<svg xmlns="http://www.w3.org/2000/svg" width="121" height="117.147" viewBox="0 0 121 117.147">
  <defs>
    <style>
      .cls-1 {
        fill: none;
        stroke: #000;
        stroke-linecap: round;
        stroke-linejoin: round;
        stroke-miterlimit: 10;
        stroke-width: 5px;
      }
    </style>
  </defs>
  <g id="_21290420691571183082" data-name="21290420691571183082" transform="translate(-0.5 -1.5)">
    <path id="Pfad_474" data-name="Pfad 474" class="cls-1" d="M3,12.891V79.573a8.917,8.917,0,0,0,8.891,8.891h97.8a8.917,8.917,0,0,0,8.891-8.891V12.891A8.917,8.917,0,0,0,109.692,4h-97.8A8.917,8.917,0,0,0,3,12.891Z"/>
    <line id="Linie_1" data-name="Linie 1" class="cls-1" x2="116" transform="translate(3 71.294)"/>
    <line id="Linie_2" data-name="Linie 2" class="cls-1" x2="62" transform="translate(30 115.294)"/>
    <path id="Pfad_475" data-name="Pfad 475" class="cls-1" d="M19.2,23c0,9.336-3.112,20.449-8,26.673" transform="translate(28.253 65.464)"/>
    <path id="Pfad_476" data-name="Pfad 476" class="cls-1" d="M27,49.673C22.112,43.449,19,32.336,19,23" transform="translate(55.128 65.464)"/>
  </g>
</svg>
