<svg xmlns="http://www.w3.org/2000/svg" width="60.1" height="92" viewBox="0 0 60.1 92">
  <defs>
    <style>
      .cls-1 {
        fill: #3f62a8;
      }
    </style>
  </defs>
  <path id="_13467669391579237617" data-name="13467669391579237617" class="cls-1" d="M46,0A30.282,30.282,0,0,0,16,30.3c0,10.2,4,18.4,12,23.9V64a4.458,4.458,0,0,0,4.3,4h.4l27.5-2.2a4.206,4.206,0,0,0,3.9-4V54.3a29.8,29.8,0,0,0,12-24C76,13.6,62.4,0,46,0ZM58,48.5A3.946,3.946,0,0,0,56,52v6.1L36,59.7V52a4.1,4.1,0,0,0-1.8-3.5c-6.9-4-10.1-10-10.1-18.2a21.953,21.953,0,1,1,43.9,0C67.9,38.3,64.3,45.1,58,48.5Zm5.6,25.8a4.02,4.02,0,0,1-3.7,4.3l-27.3,2h-.3a4.005,4.005,0,0,1-.3-8l27.3-2A3.906,3.906,0,0,1,63.6,74.3ZM54.9,86.9a4.02,4.02,0,0,1-3.7,4.3l-9.8.8h-.3a4.005,4.005,0,0,1-.3-8l9.9-.8A3.937,3.937,0,0,1,54.9,86.9Zm7-56.7a3.565,3.565,0,0,1-3.5,3.2h-.3A3.474,3.474,0,0,1,55,29.6a7.658,7.658,0,0,0-5-8,3.609,3.609,0,0,1-2.1-4.5A3.377,3.377,0,0,1,52.3,15C56,16.3,62.8,21.2,61.9,30.2Z" transform="translate(-16)"/>
</svg>
