<?xml version="1.0" encoding="UTF-8" standalone="no"?>
<!DOCTYPE svg PUBLIC "-//W3C//DTD SVG 1.1//EN" "http://www.w3.org/Graphics/SVG/1.1/DTD/svg11.dtd">
<svg width="100%" height="100%" viewBox="0 0 255 240" version="1.1" xmlns="http://www.w3.org/2000/svg" xmlns:xlink="http://www.w3.org/1999/xlink" xml:space="preserve" xmlns:serif="http://www.serif.com/" style="fill-rule:evenodd;clip-rule:evenodd;stroke-linejoin:round;stroke-miterlimit:2;">
    <g transform="matrix(1,0,0,1,-9958.59,-14002.6)">
        <g transform="matrix(1,0,0,9.50258,9079.47,5855.71)">
            <g transform="matrix(0.870434,0,0,0.0895244,-7548.04,-438.203)">
                <rect x="9709.61" y="14501.2" width="235.851" height="135.742"/>
            </g>
        </g>
        <g transform="matrix(1,0,0,9.50258,9079.47,5855.71)">
            <g transform="matrix(0.985764,0,0,0.134969,-8681.44,-1098.75)">
                <path d="M9951.55,14641.7L9703.52,14641.7L9703.52,14496.6L9951.55,14496.6L9951.55,14641.7ZM9709.61,14501.2L9709.61,14637L9945.46,14637L9945.46,14501.2L9709.61,14501.2Z"/>
            </g>
        </g>
        <g transform="matrix(1,0,0,9.50258,9079.47,5855.71)">
            <g transform="matrix(1,0,0,0.0810566,-9009.97,-269.254)">
                <path d="M10070,14190.2L9962.29,14190.2C9981.56,14177.3 9989.18,14159.7 9988.55,14138.8L10043.8,14138.8C10043.1,14159.7 10050.8,14177.3 10070,14190.2Z" style="fill:white;"/>
                <path d="M10043.7,14139.3L10043.7,14139.5L10043.7,14139.8L10043.7,14140L10043.7,14140.2L10043.7,14140.5L10043.7,14140.7L10043.7,14141L10043.7,14141.2L10043.7,14141.5L10043.7,14141.7L10043.7,14141.9L10043.7,14142.2L10043.7,14142.4L10043.7,14142.7L10043.7,14142.9L10043.8,14143.1L10043.8,14143.4L10043.8,14143.6L10043.8,14143.9L10043.8,14144.1L10043.8,14144.3L10043.8,14144.6L10043.8,14144.8L10043.8,14145L10043.8,14145.3L10043.9,14145.5L10043.9,14145.8L10043.9,14146L10043.9,14146.2L10043.9,14146.5L10043.9,14146.7L10044,14146.9L10044,14147.2L10044,14147.4L10044,14147.6L10044,14147.9L10044.1,14148.1L10044.1,14148.3L10044.1,14148.6L10044.1,14148.8L10044.2,14149L10044.2,14149.3L10044.2,14149.5L10044.2,14149.7L10044.3,14149.9L10044.3,14150.2L10044.3,14150.4L10044.4,14150.6L10044.4,14150.9L10044.4,14151.1L10044.5,14151.3L10044.5,14151.5L10044.5,14151.8L10044.6,14152L10044.6,14152.2L10044.6,14152.5L10044.7,14152.7L10044.7,14152.9L10044.8,14153.1L10044.8,14153.4L10044.8,14153.6L10044.9,14153.8L10044.9,14154L10045,14154.3L10045,14154.5L10045.1,14154.7L10045.1,14154.9L10045.2,14155.2L10045.2,14155.4L10045.3,14155.6L10045.3,14155.8L10045.4,14156L10045.4,14156.3L10045.5,14156.5L10045.5,14156.7L10045.6,14156.9L10045.6,14157.1L10045.7,14157.4L10045.8,14157.6L10045.8,14157.8L10045.9,14158L10045.9,14158.2L10046,14158.5L10046.1,14158.7L10046.1,14158.9L10046.2,14159.1L10046.2,14159.3L10046.3,14159.5L10046.4,14159.8L10046.4,14160L10046.5,14160.2L10046.6,14160.4L10046.6,14160.6L10046.7,14160.8L10046.8,14161L10046.9,14161.3L10046.9,14161.5L10047,14161.7L10047.1,14161.9L10047.2,14162.1L10047.2,14162.3L10047.3,14162.5L10047.4,14162.7L10047.5,14162.9L10047.5,14163.2L10047.6,14163.4L10047.7,14163.6L10047.8,14163.8L10047.9,14164L10048,14164.2L10048,14164.4L10048.1,14164.6L10048.2,14164.8L10048.3,14165L10048.4,14165.2L10048.5,14165.4L10048.6,14165.6L10048.7,14165.8L10048.8,14166.1L10048.9,14166.3L10048.9,14166.5L10049,14166.7L10049.1,14166.9L10049.2,14167.1L10049.3,14167.3L10049.4,14167.5L10049.5,14167.7L10049.6,14167.9L10049.7,14168.1L10049.8,14168.3L10049.9,14168.5L10050,14168.7L10050.1,14168.9L10050.3,14169.1L10050.4,14169.3L10050.5,14169.5L10050.6,14169.7L10050.7,14169.9L10050.8,14170.1L10050.9,14170.3L10051,14170.5L10051.1,14170.7L10051.3,14170.9L10051.4,14171.1L10051.5,14171.3L10051.6,14171.4L10051.7,14171.6L10051.8,14171.8L10052,14172L10052.1,14172.2L10052.2,14172.4L10052.3,14172.6L10052.4,14172.8L10052.6,14173L10052.7,14173.2L10052.8,14173.4L10053,14173.6L10053.1,14173.8L10053.2,14174L10053.3,14174.1L10053.5,14174.3L10053.6,14174.5L10053.7,14174.7L10053.9,14174.9L10054,14175.1L10054.1,14175.3L10054.3,14175.5L10054.4,14175.6L10054.6,14175.8L10054.7,14176L10054.8,14176.2L10055,14176.4L10055.1,14176.6L10055.3,14176.8L10055.4,14176.9L10055.6,14177.1L10055.7,14177.3L10055.9,14177.5L10056,14177.7L10056.2,14177.9L10056.3,14178L10056.5,14178.2L10056.6,14178.4L10056.8,14178.6L10056.9,14178.8L10057.1,14178.9L10057.2,14179.1L10057.4,14179.3L10057.5,14179.5L10057.7,14179.7L10057.9,14179.8L10058,14180L10058.2,14180.2L10058.4,14180.4L10058.5,14180.5L10058.7,14180.7L10058.9,14180.9L10059,14181.1L10059.2,14181.2L10059.4,14181.4L10059.5,14181.6L10059.7,14181.8L10059.9,14181.9L10060,14182.1L10060.2,14182.3L10060.4,14182.4L10060.6,14182.6L10060.7,14182.8L10060.9,14183L10061.1,14183.1L10061.3,14183.3L10061.5,14183.5L10061.7,14183.6L10061.8,14183.8L10062,14184L10062.2,14184.1L10062.4,14184.3L10062.6,14184.5L10062.8,14184.6L10063,14184.8L10063.1,14185L10063.3,14185.1L10063.5,14185.3L10063.7,14185.5L10063.9,14185.6L10064.1,14185.8L10064.3,14186L10064.5,14186.1L10064.7,14186.3L10064.9,14186.4L10065.1,14186.6L10065.3,14186.8L10065.5,14186.9L10065.7,14187.1L10065.9,14187.3L10066.1,14187.4L10066.3,14187.6L10066.6,14187.7L10066.8,14187.9L10067,14188L10067.2,14188.2L10067.4,14188.4L10067.6,14188.5L10067.8,14188.7L10068,14188.8L10068.3,14189L10068.5,14189.1L10068.7,14189.3L10068.9,14189.4L10069.1,14189.6L10069.4,14189.8L10069.6,14189.9L10069.8,14190.1L10070,14190.2L9962.29,14190.2L9962.51,14190.1L9962.74,14189.9L9962.96,14189.8L9963.18,14189.6L9963.4,14189.4L9963.62,14189.3L9963.84,14189.1L9964.06,14189L9964.27,14188.8L9964.49,14188.7L9964.71,14188.5L9964.92,14188.4L9965.13,14188.2L9965.34,14188L9965.55,14187.9L9965.76,14187.7L9965.97,14187.6L9966.18,14187.4L9966.39,14187.3L9966.59,14187.1L9966.8,14186.9L9967,14186.8L9967.2,14186.6L9967.4,14186.4L9967.6,14186.3L9967.8,14186.1L9968,14186L9968.2,14185.8L9968.39,14185.6L9968.59,14185.5L9968.78,14185.3L9968.97,14185.1L9969.17,14185L9969.36,14184.8L9969.55,14184.6L9969.73,14184.5L9969.92,14184.3L9970.11,14184.1L9970.29,14184L9970.48,14183.8L9970.66,14183.6L9970.84,14183.5L9971.03,14183.3L9971.21,14183.1L9971.39,14183L9971.57,14182.8L9971.74,14182.6L9971.92,14182.4L9972.09,14182.3L9972.27,14182.1L9972.44,14181.9L9972.62,14181.8L9972.79,14181.6L9972.96,14181.4L9973.13,14181.2L9973.3,14181.1L9973.46,14180.9L9973.63,14180.7L9973.8,14180.5L9973.96,14180.4L9974.12,14180.2L9974.29,14180L9974.45,14179.8L9974.61,14179.7L9974.77,14179.5L9974.93,14179.3L9975.08,14179.1L9975.24,14178.9L9975.4,14178.8L9975.55,14178.6L9975.7,14178.4L9975.86,14178.2L9976.01,14178L9976.16,14177.9L9976.31,14177.7L9976.46,14177.5L9976.61,14177.3L9976.75,14177.1L9976.9,14176.9L9977.04,14176.8L9977.19,14176.6L9977.33,14176.4L9977.47,14176.2L9977.61,14176L9977.75,14175.8L9977.89,14175.6L9978.03,14175.5L9978.17,14175.3L9978.31,14175.1L9978.44,14174.9L9978.57,14174.7L9978.71,14174.5L9978.84,14174.3L9978.97,14174.1L9979.1,14174L9979.23,14173.8L9979.36,14173.6L9979.49,14173.4L9979.61,14173.2L9979.74,14173L9979.86,14172.8L9979.99,14172.6L9980.11,14172.4L9980.23,14172.2L9980.35,14172L9980.48,14171.8L9980.59,14171.6L9980.71,14171.4L9980.83,14171.3L9980.95,14171.1L9981.06,14170.9L9981.18,14170.7L9981.29,14170.5L9981.4,14170.3L9981.51,14170.1L9981.63,14169.9L9981.73,14169.7L9981.84,14169.5L9981.95,14169.3L9982.06,14169.1L9982.17,14168.9L9982.27,14168.7L9982.37,14168.5L9982.48,14168.3L9982.58,14168.1L9982.68,14167.9L9982.78,14167.7L9982.88,14167.5L9982.98,14167.3L9983.08,14167.1L9983.18,14166.9L9983.27,14166.7L9983.37,14166.5L9983.46,14166.3L9983.56,14166.1L9983.65,14165.8L9983.74,14165.6L9983.83,14165.4L9983.92,14165.2L9984.01,14165L9984.1,14164.8L9984.18,14164.6L9984.27,14164.4L9984.35,14164.2L9984.44,14164L9984.52,14163.8L9984.6,14163.6L9984.69,14163.4L9984.77,14163.2L9984.85,14162.9L9984.93,14162.7L9985.01,14162.5L9985.08,14162.3L9985.16,14162.1L9985.24,14161.9L9985.31,14161.7L9985.38,14161.5L9985.46,14161.3L9985.53,14161L9985.6,14160.8L9985.67,14160.6L9985.74,14160.4L9985.81,14160.2L9985.88,14160L9985.94,14159.8L9986.01,14159.5L9986.07,14159.3L9986.14,14159.1L9986.2,14158.9L9986.26,14158.7L9986.33,14158.5L9986.39,14158.2L9986.45,14158L9986.51,14157.8L9986.56,14157.6L9986.62,14157.4L9986.68,14157.1L9986.73,14156.9L9986.79,14156.7L9986.84,14156.5L9986.9,14156.3L9986.95,14156L9987,14155.8L9987.05,14155.6L9987.1,14155.4L9987.15,14155.2L9987.2,14154.9L9987.24,14154.7L9987.29,14154.5L9987.34,14154.3L9987.38,14154L9987.42,14153.8L9987.47,14153.6L9987.51,14153.4L9987.55,14153.1L9987.59,14152.9L9987.63,14152.7L9987.67,14152.5L9987.71,14152.2L9987.75,14152L9987.78,14151.8L9987.82,14151.6L9987.85,14151.3L9987.89,14151.1L9987.92,14150.9L9987.95,14150.6L9987.98,14150.4L9988.01,14150.2L9988.04,14149.9L9988.07,14149.7L9988.1,14149.5L9988.13,14149.3L9988.16,14149L9988.18,14148.8L9988.21,14148.6L9988.23,14148.3L9988.25,14148.1L9988.28,14147.9L9988.3,14147.6L9988.32,14147.4L9988.34,14147.2L9988.36,14146.9L9988.38,14146.7L9988.4,14146.5L9988.41,14146.2L9988.43,14146L9988.44,14145.8L9988.46,14145.5L9988.47,14145.3L9988.49,14145L9988.5,14144.8L9988.51,14144.6L9988.52,14144.3L9988.53,14144.1L9988.54,14143.9L9988.55,14143.6L9988.56,14143.4L9988.56,14143.1L9988.57,14142.9L9988.57,14142.7L9988.58,14142.4L9988.58,14142.2L9988.59,14141.9L9988.59,14141.7L9988.59,14141.5L9988.59,14141.2L9988.59,14141L9988.59,14140.7L9988.59,14140.5L9988.58,14140.2L9988.58,14140L9988.58,14139.8L9988.57,14139.5L9988.57,14139.3L9988.55,14138.8L10043.8,14138.8L10043.7,14139.3ZM9994.41,14146.6L9994.41,14146.7L9994.39,14146.9L9994.37,14147.2L9994.35,14147.5L9994.33,14147.7L9994.31,14148L9994.28,14148.3L9994.26,14148.6L9994.23,14148.8L9994.2,14149.1L9994.18,14149.3L9994.15,14149.6L9994.12,14149.9L9994.09,14150.2L9994.06,14150.4L9994.03,14150.7L9994,14151L9993.96,14151.2L9993.93,14151.5L9993.89,14151.7L9993.86,14152L9993.82,14152.3L9993.78,14152.6L9993.74,14152.8L9993.7,14153.1L9993.66,14153.3L9993.62,14153.6L9993.57,14153.9L9993.53,14154.1L9993.48,14154.4L9993.44,14154.7L9993.39,14154.9L9993.34,14155.2L9993.29,14155.5L9993.24,14155.7L9993.19,14156L9993.14,14156.2L9993.09,14156.5L9993.03,14156.8L9992.98,14157L9992.92,14157.3L9992.87,14157.5L9992.81,14157.8L9992.75,14158.1L9992.69,14158.3L9992.63,14158.6L9992.56,14158.8L9992.5,14159.1L9992.44,14159.3L9992.37,14159.6L9992.31,14159.8L9992.24,14160.1L9992.17,14160.4L9992.1,14160.6L9992.03,14160.9L9991.96,14161.1L9991.89,14161.4L9991.82,14161.6L9991.74,14161.9L9991.67,14162.1L9991.59,14162.4L9991.51,14162.6L9991.43,14162.9L9991.35,14163.2L9991.27,14163.4L9991.2,14163.6L9991.11,14163.9L9991.02,14164.2L9990.94,14164.4L9990.86,14164.6L9990.78,14164.9L9990.68,14165.1L9990.6,14165.4L9990.51,14165.6L9990.42,14165.9L9990.33,14166.1L9990.23,14166.4L9990.14,14166.6L9990.05,14166.9L9989.95,14167.1L9989.86,14167.3L9989.76,14167.6L9989.65,14167.9L9989.55,14168.1L9989.46,14168.3L9989.36,14168.6L9989.25,14168.8L9989.15,14169L9989.04,14169.3L9988.94,14169.5L9988.84,14169.8L9988.72,14170L9988.61,14170.2L9988.51,14170.5L9988.4,14170.7L9988.28,14171L9988.17,14171.2L9988.06,14171.4L9987.94,14171.7L9987.82,14171.9L9987.71,14172.1L9987.59,14172.4L9987.47,14172.6L9987.36,14172.8L9987.23,14173.1L9987.11,14173.3L9986.99,14173.5L9986.86,14173.8L9986.74,14174L9986.61,14174.2L9986.48,14174.5L9986.36,14174.7L9986.23,14174.9L9986.1,14175.1L9985.96,14175.4L9985.84,14175.6L9985.7,14175.8L9985.57,14176L9985.43,14176.3L9985.29,14176.5L9985.16,14176.7L9985.03,14176.9L9984.88,14177.2L9984.74,14177.4L9984.6,14177.6L9984.46,14177.8L9984.32,14178L9984.17,14178.3L9984.02,14178.5L9983.88,14178.7L9983.74,14178.9L9983.59,14179.1L9983.44,14179.3L9983.29,14179.6L9983.14,14179.8L9982.98,14180L9982.83,14180.2L9982.68,14180.4L9982.52,14180.6L9982.37,14180.8L9982.21,14181.1L9982.06,14181.3L9981.9,14181.5L9981.74,14181.7L9981.57,14181.9L9981.41,14182.1L9981.25,14182.3L9981.17,14182.4L10051.1,14182.4L10051.1,14182.3L10050.9,14182.1L10050.7,14181.9L10050.6,14181.7L10050.4,14181.5L10050.3,14181.3L10050.1,14181.1L10049.9,14180.8L10049.8,14180.6L10049.6,14180.4L10049.5,14180.2L10049.3,14180L10049.2,14179.8L10049,14179.6L10048.9,14179.3L10048.7,14179.1L10048.6,14178.9L10048.4,14178.7L10048.3,14178.5L10048.1,14178.3L10048,14178L10047.9,14177.8L10047.7,14177.6L10047.6,14177.4L10047.4,14177.2L10047.3,14176.9L10047.2,14176.7L10047,14176.5L10046.9,14176.3L10046.7,14176L10046.6,14175.8L10046.5,14175.6L10046.4,14175.4L10046.2,14175.1L10046.1,14174.9L10046,14174.7L10045.8,14174.4L10045.7,14174.2L10045.6,14174L10045.5,14173.8L10045.3,14173.5L10045.2,14173.3L10045.1,14173.1L10045,14172.8L10044.8,14172.6L10044.7,14172.4L10044.6,14172.1L10044.5,14171.9L10044.4,14171.7L10044.3,14171.4L10044.1,14171.2L10044,14171L10043.9,14170.7L10043.8,14170.5L10043.7,14170.2L10043.6,14170L10043.5,14169.8L10043.4,14169.5L10043.3,14169.3L10043.2,14169.1L10043.1,14168.8L10043,14168.6L10042.9,14168.3L10042.8,14168.1L10042.7,14167.8L10042.6,14167.6L10042.5,14167.4L10042.4,14167.1L10042.3,14166.9L10042.2,14166.6L10042.1,14166.4L10042,14166.1L10041.9,14165.9L10041.8,14165.6L10041.7,14165.4L10041.6,14165.1L10041.5,14164.9L10041.5,14164.6L10041.4,14164.4L10041.3,14164.2L10041.2,14163.9L10041.1,14163.7L10041,14163.4L10041,14163.1L10040.9,14162.9L10040.8,14162.7L10040.7,14162.4L10040.6,14162.1L10040.6,14161.9L10040.5,14161.6L10040.4,14161.4L10040.4,14161.1L10040.3,14160.9L10040.2,14160.6L10040.1,14160.4L10040.1,14160.1L10040,14159.9L10039.9,14159.6L10039.9,14159.3L10039.8,14159.1L10039.8,14158.8L10039.7,14158.6L10039.6,14158.3L10039.6,14158L10039.5,14157.8L10039.5,14157.5L10039.4,14157.3L10039.3,14157L10039.3,14156.7L10039.2,14156.5L10039.2,14156.2L10039.1,14156L10039.1,14155.7L10039,14155.4L10039,14155.2L10038.9,14154.9L10038.9,14154.7L10038.8,14154.4L10038.8,14154.1L10038.7,14153.9L10038.7,14153.6L10038.7,14153.3L10038.6,14153.1L10038.6,14152.8L10038.5,14152.5L10038.5,14152.3L10038.5,14152L10038.4,14151.8L10038.4,14151.5L10038.4,14151.2L10038.3,14151L10038.3,14150.7L10038.3,14150.4L10038.2,14150.2L10038.2,14149.9L10038.2,14149.6L10038.1,14149.4L10038.1,14149.1L10038.1,14148.8L10038.1,14148.5L10038,14148.3L10038,14148L10038,14147.8L10038,14147.5L10037.9,14147.2L10037.9,14146.9L10037.9,14146.7L10037.9,14146.6L9994.41,14146.6Z"/>
            </g>
        </g>
        <g transform="matrix(1,0,0,9.50258,9079.47,5855.71)">
            <g transform="matrix(1.75296,0,0,0.184472,-16533.7,-1732.86)">
                <path d="M10006,14124.8L10006.1,14124.8L10006.2,14124.8L10006.4,14124.8L10006.5,14124.9L10006.6,14124.9L10006.7,14124.9L10006.8,14124.9L10006.9,14124.9L10007.1,14124.9L10007.2,14124.9L10007.3,14124.9L10007.4,14125L10007.5,14125L10007.6,14125L10007.7,14125L10007.8,14125L10008,14125.1L10008.1,14125.1L10008.2,14125.1L10008.3,14125.2L10008.4,14125.2L10008.5,14125.2L10008.6,14125.2L10008.7,14125.3L10008.8,14125.3L10008.9,14125.4L10009.1,14125.4L10009.2,14125.4L10009.3,14125.5L10009.4,14125.5L10009.5,14125.6L10009.6,14125.6L10009.7,14125.6L10009.8,14125.7L10009.9,14125.7L10010,14125.8L10010.1,14125.8L10010.2,14125.9L10010.3,14125.9L10010.4,14126L10010.5,14126.1L10010.6,14126.1L10010.7,14126.2L10010.8,14126.2L10010.9,14126.3L10010.9,14126.3L10011,14126.4L10011.1,14126.5L10011.2,14126.5L10011.3,14126.6L10011.4,14126.7L10011.5,14126.7L10011.6,14126.8L10011.7,14126.9L10011.7,14126.9L10011.8,14127L10011.9,14127.1L10012,14127.2L10012.1,14127.2L10012.2,14127.3L10012.2,14127.4L10012.3,14127.5L10012.4,14127.5L10012.5,14127.6L10012.6,14127.7L10012.6,14127.8L10012.7,14127.9L10012.8,14127.9L10012.9,14128L10012.9,14128.1L10013,14128.2L10013.1,14128.3L10013.1,14128.4L10013.2,14128.5L10013.3,14128.5L10013.3,14128.6L10013.4,14128.7L10013.5,14128.8L10013.5,14128.9L10013.6,14129L10013.7,14129.1L10013.7,14129.2L10013.8,14129.3L10013.8,14129.4L10013.9,14129.5L10013.9,14129.6L10014,14129.7L10014,14129.8L10014.1,14129.9L10014.2,14130L10014.2,14130.1L10014.2,14130.2L10014.3,14130.3L10014.3,14130.4L10014.4,14130.5L10014.4,14130.6L10014.5,14130.7L10014.5,14130.8L10014.6,14130.9L10014.6,14131L10014.6,14131.1L10014.7,14131.2L10014.7,14131.3L10014.7,14131.4L10014.8,14131.5L10014.8,14131.7L10014.8,14131.8L10014.8,14131.9L10014.9,14132L10014.9,14132.1L10014.9,14132.2L10014.9,14132.3L10015,14132.4L10015,14132.5L10015,14132.7L10015,14132.8L10015,14132.9L10015.1,14133L10015.1,14133.1L10015.1,14133.2L10015.1,14133.4L10015.1,14133.5L10015.1,14133.6L10015.1,14133.7L10015.1,14133.8L10015.1,14134L10015.1,14134.1L10015.1,14134.2L10015.1,14134.3L10015.1,14134.4L10015.1,14134.5L10015.1,14134.7L10015.1,14134.8L10015.1,14134.9L10015.1,14135L10015.1,14135.1L10015,14135.2L10015,14135.4L10015,14135.5L10015,14135.6L10015,14135.7L10014.9,14135.8L10014.9,14135.9L10014.9,14136L10014.9,14136.2L10014.8,14136.3L10014.8,14136.4L10014.8,14136.5L10014.8,14136.6L10014.7,14136.7L10014.7,14136.8L10014.7,14136.9L10014.6,14137L10014.6,14137.1L10014.6,14137.2L10014.5,14137.3L10014.5,14137.5L10014.4,14137.6L10014.4,14137.7L10014.3,14137.8L10014.3,14137.9L10014.2,14138L10014.2,14138.1L10014.2,14138.2L10014.1,14138.3L10014,14138.4L10014,14138.5L10013.9,14138.6L10013.9,14138.7L10013.8,14138.8L10013.8,14138.9L10013.7,14139L10013.7,14139L10013.6,14139.1L10013.5,14139.2L10013.5,14139.3L10013.4,14139.4L10013.3,14139.5L10013.3,14139.6L10013.2,14139.7L10013.1,14139.8L10013.1,14139.9L10013,14139.9L10012.9,14140L10012.9,14140.1L10012.8,14140.2L10012.7,14140.3L10012.6,14140.4L10012.6,14140.4L10012.5,14140.5L10012.4,14140.6L10012.3,14140.7L10012.2,14140.8L10012.2,14140.8L10012.1,14140.9L10012,14141L10011.9,14141.1L10011.8,14141.1L10011.7,14141.2L10011.7,14141.3L10011.6,14141.3L10011.5,14141.4L10011.4,14141.5L10011.3,14141.5L10011.2,14141.6L10011.1,14141.7L10011,14141.7L10010.9,14141.8L10010.9,14141.8L10010.8,14141.9L10010.7,14142L10010.6,14142L10010.5,14142.1L10010.4,14142.1L10010.3,14142.2L10010.2,14142.2L10010.1,14142.3L10010,14142.3L10009.9,14142.4L10009.8,14142.4L10009.7,14142.5L10009.6,14142.5L10009.5,14142.6L10009.4,14142.6L10009.3,14142.7L10009.2,14142.7L10009.1,14142.7L10008.9,14142.8L10008.8,14142.8L10008.7,14142.9L10008.6,14142.9L10008.5,14142.9L10008.4,14143L10008.3,14143L10008.2,14143L10008.1,14143L10008,14143.1L10007.8,14143.1L10007.7,14143.1L10007.6,14143.1L10007.5,14143.2L10007.4,14143.2L10007.3,14143.2L10007.2,14143.2L10007.1,14143.2L10006.9,14143.2L10006.8,14143.3L10006.7,14143.3L10006.6,14143.3L10006.5,14143.3L10006.4,14143.3L10006.2,14143.3L10006.1,14143.3L10006,14143.3L10005.9,14143.3L10005.8,14143.3L10005.6,14143.3L10005.5,14143.3L10005.4,14143.3L10005.3,14143.3L10005.2,14143.3L10005,14143.3L10004.9,14143.3L10004.8,14143.2L10004.7,14143.2L10004.6,14143.2L10004.5,14143.2L10004.4,14143.2L10004.2,14143.2L10004.1,14143.1L10004,14143.1L10003.9,14143.1L10003.8,14143.1L10003.7,14143L10003.6,14143L10003.5,14143L10003.3,14143L10003.2,14142.9L10003.1,14142.9L10003,14142.9L10002.9,14142.8L10002.8,14142.8L10002.7,14142.7L10002.6,14142.7L10002.5,14142.7L10002.4,14142.6L10002.3,14142.6L10002.2,14142.5L10002.1,14142.5L10002,14142.4L10001.9,14142.4L10001.8,14142.3L10001.7,14142.3L10001.6,14142.2L10001.5,14142.2L10001.4,14142.1L10001.3,14142.1L10001.2,14142L10001.1,14142L10001,14141.9L10000.9,14141.8L10000.8,14141.8L10000.7,14141.7L10000.6,14141.7L10000.5,14141.6L10000.4,14141.5L10000.4,14141.5L10000.3,14141.4L10000.2,14141.3L10000.1,14141.3L10000,14141.2L9999.92,14141.1L9999.83,14141.1L9999.75,14141L9999.67,14140.9L9999.59,14140.8L9999.5,14140.8L9999.43,14140.7L9999.35,14140.6L9999.27,14140.5L9999.19,14140.4L9999.11,14140.4L9999.04,14140.3L9998.97,14140.2L9998.89,14140.1L9998.82,14140L9998.75,14139.9L9998.68,14139.9L9998.61,14139.8L9998.54,14139.7L9998.48,14139.6L9998.41,14139.5L9998.34,14139.4L9998.28,14139.3L9998.22,14139.2L9998.16,14139.1L9998.09,14139L9998.04,14139L9997.98,14138.9L9997.92,14138.8L9997.86,14138.7L9997.81,14138.6L9997.76,14138.5L9997.7,14138.4L9997.65,14138.3L9997.6,14138.2L9997.55,14138.1L9997.5,14138L9997.46,14137.9L9997.41,14137.8L9997.37,14137.7L9997.32,14137.6L9997.28,14137.5L9997.24,14137.3L9997.2,14137.2L9997.16,14137.1L9997.13,14137L9997.09,14136.9L9997.06,14136.8L9997.02,14136.7L9996.99,14136.6L9996.96,14136.5L9996.93,14136.4L9996.9,14136.3L9996.88,14136.2L9996.85,14136L9996.83,14135.9L9996.81,14135.8L9996.78,14135.7L9996.76,14135.6L9996.75,14135.5L9996.73,14135.4L9996.71,14135.2L9996.7,14135.1L9996.69,14135L9996.68,14134.9L9996.67,14134.8L9996.66,14134.7L9996.65,14134.5L9996.65,14134.4L9996.64,14134.3L9996.64,14134.2L9996.64,14134.1L9996.64,14134L9996.64,14133.8L9996.65,14133.7L9996.65,14133.6L9996.66,14133.5L9996.67,14133.4L9996.68,14133.2L9996.69,14133.1L9996.7,14133L9996.71,14132.9L9996.73,14132.8L9996.75,14132.7L9996.76,14132.5L9996.78,14132.4L9996.81,14132.3L9996.83,14132.2L9996.85,14132.1L9996.88,14132L9996.9,14131.9L9996.93,14131.8L9996.96,14131.7L9996.99,14131.5L9997.02,14131.4L9997.06,14131.3L9997.09,14131.2L9997.13,14131.1L9997.16,14131L9997.2,14130.9L9997.24,14130.8L9997.28,14130.7L9997.32,14130.6L9997.37,14130.5L9997.41,14130.4L9997.46,14130.3L9997.5,14130.2L9997.55,14130.1L9997.6,14130L9997.65,14129.9L9997.7,14129.8L9997.76,14129.7L9997.81,14129.6L9997.86,14129.5L9997.92,14129.4L9997.98,14129.3L9998.04,14129.2L9998.09,14129.1L9998.16,14129L9998.22,14128.9L9998.28,14128.8L9998.34,14128.7L9998.41,14128.6L9998.48,14128.5L9998.54,14128.5L9998.61,14128.4L9998.68,14128.3L9998.75,14128.2L9998.82,14128.1L9998.89,14128L9998.97,14127.9L9999.04,14127.9L9999.11,14127.8L9999.19,14127.7L9999.27,14127.6L9999.35,14127.5L9999.43,14127.5L9999.5,14127.4L9999.59,14127.3L9999.67,14127.2L9999.75,14127.2L9999.83,14127.1L9999.92,14127L10000,14126.9L10000.1,14126.9L10000.2,14126.8L10000.3,14126.7L10000.4,14126.7L10000.4,14126.6L10000.5,14126.5L10000.6,14126.5L10000.7,14126.4L10000.8,14126.3L10000.9,14126.3L10001,14126.2L10001.1,14126.2L10001.2,14126.1L10001.3,14126.1L10001.4,14126L10001.5,14125.9L10001.6,14125.9L10001.7,14125.8L10001.8,14125.8L10001.9,14125.7L10002,14125.7L10002.1,14125.6L10002.2,14125.6L10002.3,14125.6L10002.4,14125.5L10002.5,14125.5L10002.6,14125.4L10002.7,14125.4L10002.8,14125.4L10002.9,14125.3L10003,14125.3L10003.1,14125.2L10003.2,14125.2L10003.3,14125.2L10003.5,14125.2L10003.6,14125.1L10003.7,14125.1L10003.8,14125.1L10003.9,14125L10004,14125L10004.1,14125L10004.2,14125L10004.4,14125L10004.5,14124.9L10004.6,14124.9L10004.7,14124.9L10004.8,14124.9L10004.9,14124.9L10005,14124.9L10005.2,14124.9L10005.3,14124.9L10005.4,14124.8L10005.5,14124.8L10005.6,14124.8L10005.8,14124.8L10005.9,14124.8L10006,14124.8ZM10005.8,14128.3L10005.7,14128.3L10005.7,14128.3L10005.6,14128.3L10005.5,14128.3L10005.4,14128.3L10005.3,14128.3L10005.3,14128.3L10005.2,14128.3L10005.1,14128.3L10005.1,14128.3L10005,14128.3L10004.9,14128.3L10004.8,14128.3L10004.8,14128.4L10004.7,14128.4L10004.6,14128.4L10004.5,14128.4L10004.5,14128.4L10004.4,14128.4L10004.3,14128.5L10004.3,14128.5L10004.2,14128.5L10004.1,14128.5L10004.1,14128.5L10004,14128.6L10004,14128.6L10003.9,14128.6L10003.8,14128.6L10003.8,14128.7L10003.7,14128.7L10003.6,14128.7L10003.5,14128.7L10003.5,14128.8L10003.4,14128.8L10003.4,14128.8L10003.3,14128.9L10003.2,14128.9L10003.2,14128.9L10003.1,14129L10003,14129L10003,14129L10002.9,14129.1L10002.9,14129.1L10002.8,14129.1L10002.7,14129.2L10002.7,14129.2L10002.6,14129.2L10002.6,14129.3L10002.5,14129.3L10002.5,14129.4L10002.4,14129.4L10002.4,14129.4L10002.3,14129.5L10002.2,14129.5L10002.2,14129.6L10002.1,14129.6L10002.1,14129.7L10002,14129.7L10002,14129.8L10001.9,14129.8L10001.9,14129.9L10001.8,14129.9L10001.8,14130L10001.7,14130L10001.7,14130.1L10001.6,14130.1L10001.6,14130.2L10001.5,14130.2L10001.5,14130.3L10001.4,14130.3L10001.4,14130.4L10001.3,14130.4L10001.3,14130.5L10001.3,14130.5L10001.2,14130.6L10001.2,14130.7L10001.1,14130.7L10001.1,14130.8L10001.1,14130.8L10001,14130.9L10001,14130.9L10000.9,14131L10000.9,14131.1L10000.9,14131.1L10000.8,14131.2L10000.8,14131.2L10000.8,14131.3L10000.7,14131.4L10000.7,14131.4L10000.7,14131.5L10000.6,14131.6L10000.6,14131.6L10000.6,14131.7L10000.5,14131.7L10000.5,14131.8L10000.5,14131.9L10000.5,14131.9L10000.4,14132L10000.4,14132.1L10000.4,14132.1L10000.4,14132.2L10000.3,14132.3L10000.3,14132.3L10000.3,14132.4L10000.3,14132.5L10000.3,14132.5L10000.2,14132.6L10000.2,14132.7L10000.2,14132.8L10000.2,14132.8L10000.2,14132.9L10000.2,14133L10000.2,14133L10000.1,14133.1L10000.1,14133.2L10000.1,14133.3L10000.1,14133.3L10000.1,14133.4L10000.1,14133.5L10000.1,14133.5L10000.1,14133.6L10000.1,14133.7L10000.1,14133.8L10000.1,14133.8L10000.1,14133.9L10000.1,14134L10000.1,14134.1L10000.1,14134.1L10000.1,14134.2L10000.1,14134.3L10000.1,14134.4L10000.1,14134.4L10000.1,14134.5L10000.1,14134.6L10000.1,14134.7L10000.1,14134.7L10000.1,14134.8L10000.1,14134.9L10000.1,14135L10000.1,14135L10000.2,14135.1L10000.2,14135.2L10000.2,14135.2L10000.2,14135.3L10000.2,14135.4L10000.2,14135.4L10000.2,14135.5L10000.3,14135.6L10000.3,14135.7L10000.3,14135.7L10000.3,14135.8L10000.3,14135.9L10000.4,14135.9L10000.4,14136L10000.4,14136.1L10000.4,14136.1L10000.5,14136.2L10000.5,14136.3L10000.5,14136.3L10000.5,14136.4L10000.6,14136.5L10000.6,14136.5L10000.6,14136.6L10000.7,14136.6L10000.7,14136.7L10000.7,14136.8L10000.8,14136.8L10000.8,14136.9L10000.8,14137L10000.9,14137L10000.9,14137.1L10000.9,14137.1L10001,14137.2L10001,14137.3L10001.1,14137.3L10001.1,14137.4L10001.1,14137.4L10001.2,14137.5L10001.2,14137.5L10001.3,14137.6L10001.3,14137.7L10001.3,14137.7L10001.4,14137.8L10001.4,14137.8L10001.5,14137.9L10001.5,14137.9L10001.6,14138L10001.6,14138L10001.7,14138.1L10001.7,14138.1L10001.8,14138.2L10001.8,14138.2L10001.9,14138.3L10001.9,14138.3L10002,14138.4L10002,14138.4L10002.1,14138.5L10002.1,14138.5L10002.2,14138.6L10002.2,14138.6L10002.3,14138.6L10002.3,14138.7L10002.4,14138.7L10002.5,14138.8L10002.5,14138.8L10002.6,14138.9L10002.6,14138.9L10002.7,14138.9L10002.7,14139L10002.8,14139L10002.9,14139L10002.9,14139.1L10003,14139.1L10003,14139.1L10003.1,14139.2L10003.2,14139.2L10003.2,14139.2L10003.3,14139.3L10003.4,14139.3L10003.4,14139.3L10003.5,14139.4L10003.5,14139.4L10003.6,14139.4L10003.7,14139.5L10003.8,14139.5L10003.8,14139.5L10003.9,14139.5L10004,14139.6L10004,14139.6L10004.1,14139.6L10004.1,14139.6L10004.2,14139.6L10004.3,14139.7L10004.3,14139.7L10004.4,14139.7L10004.5,14139.7L10004.5,14139.7L10004.6,14139.7L10004.7,14139.8L10004.8,14139.8L10004.8,14139.8L10004.9,14139.8L10005,14139.8L10005.1,14139.8L10005.1,14139.8L10005.2,14139.8L10005.3,14139.9L10005.3,14139.9L10005.4,14139.9L10005.5,14139.9L10005.6,14139.9L10005.7,14139.9L10005.7,14139.9L10005.8,14139.9L10005.9,14139.9L10005.9,14139.9L10006,14139.9L10006.1,14139.9L10006.2,14139.9L10006.3,14139.9L10006.3,14139.9L10006.4,14139.9L10006.5,14139.9L10006.5,14139.8L10006.6,14139.8L10006.7,14139.8L10006.8,14139.8L10006.8,14139.8L10006.9,14139.8L10007,14139.8L10007,14139.8L10007.1,14139.7L10007.2,14139.7L10007.3,14139.7L10007.3,14139.7L10007.4,14139.7L10007.5,14139.7L10007.5,14139.6L10007.6,14139.6L10007.7,14139.6L10007.7,14139.6L10007.8,14139.6L10007.9,14139.5L10007.9,14139.5L10008,14139.5L10008.1,14139.5L10008.1,14139.4L10008.2,14139.4L10008.3,14139.4L10008.3,14139.3L10008.4,14139.3L10008.5,14139.3L10008.5,14139.2L10008.6,14139.2L10008.6,14139.2L10008.7,14139.1L10008.8,14139.1L10008.8,14139.1L10008.9,14139L10008.9,14139L10009,14139L10009.1,14138.9L10009.1,14138.9L10009.2,14138.9L10009.2,14138.8L10009.3,14138.8L10009.4,14138.7L10009.4,14138.7L10009.5,14138.6L10009.5,14138.6L10009.6,14138.6L10009.6,14138.5L10009.7,14138.5L10009.7,14138.4L10009.8,14138.4L10009.8,14138.3L10009.9,14138.3L10009.9,14138.2L10010,14138.2L10010,14138.1L10010.1,14138.1L10010.1,14138L10010.2,14138L10010.2,14137.9L10010.3,14137.9L10010.3,14137.8L10010.4,14137.8L10010.4,14137.7L10010.5,14137.7L10010.5,14137.6L10010.5,14137.5L10010.6,14137.5L10010.6,14137.4L10010.7,14137.4L10010.7,14137.3L10010.7,14137.3L10010.8,14137.2L10010.8,14137.1L10010.9,14137.1L10010.9,14137L10010.9,14137L10011,14136.9L10011,14136.8L10011,14136.8L10011.1,14136.7L10011.1,14136.6L10011.1,14136.6L10011.1,14136.5L10011.2,14136.5L10011.2,14136.4L10011.2,14136.3L10011.3,14136.3L10011.3,14136.2L10011.3,14136.1L10011.3,14136.1L10011.4,14136L10011.4,14135.9L10011.4,14135.9L10011.4,14135.8L10011.4,14135.7L10011.5,14135.7L10011.5,14135.6L10011.5,14135.5L10011.5,14135.5L10011.5,14135.4L10011.6,14135.3L10011.6,14135.2L10011.6,14135.2L10011.6,14135.1L10011.6,14135L10011.6,14135L10011.6,14134.9L10011.6,14134.8L10011.7,14134.7L10011.7,14134.7L10011.7,14134.6L10011.7,14134.5L10011.7,14134.4L10011.7,14134.4L10011.7,14134.3L10011.7,14134.2L10011.7,14134.1L10011.7,14134.1L10011.7,14134L10011.7,14133.9L10011.7,14133.8L10011.7,14133.8L10011.7,14133.7L10011.7,14133.6L10011.7,14133.5L10011.7,14133.5L10011.7,14133.4L10011.6,14133.3L10011.6,14133.3L10011.6,14133.2L10011.6,14133.1L10011.6,14133L10011.6,14133L10011.6,14132.9L10011.6,14132.8L10011.5,14132.8L10011.5,14132.7L10011.5,14132.6L10011.5,14132.6L10011.5,14132.5L10011.4,14132.4L10011.4,14132.3L10011.4,14132.3L10011.4,14132.2L10011.4,14132.1L10011.3,14132.1L10011.3,14132L10011.3,14131.9L10011.3,14131.9L10011.2,14131.8L10011.2,14131.7L10011.2,14131.7L10011.1,14131.6L10011.1,14131.6L10011.1,14131.5L10011.1,14131.4L10011,14131.4L10011,14131.3L10011,14131.2L10010.9,14131.2L10010.9,14131.1L10010.9,14131.1L10010.8,14131L10010.8,14130.9L10010.7,14130.9L10010.7,14130.8L10010.7,14130.8L10010.6,14130.7L10010.6,14130.7L10010.5,14130.6L10010.5,14130.5L10010.5,14130.5L10010.4,14130.4L10010.4,14130.4L10010.3,14130.3L10010.3,14130.3L10010.2,14130.2L10010.2,14130.2L10010.1,14130.1L10010.1,14130.1L10010,14130L10010,14130L10009.9,14129.9L10009.9,14129.9L10009.8,14129.8L10009.8,14129.8L10009.7,14129.7L10009.7,14129.7L10009.6,14129.6L10009.6,14129.6L10009.5,14129.5L10009.5,14129.5L10009.4,14129.4L10009.4,14129.4L10009.3,14129.4L10009.2,14129.3L10009.2,14129.3L10009.1,14129.2L10009.1,14129.2L10009,14129.2L10008.9,14129.1L10008.9,14129.1L10008.8,14129.1L10008.8,14129L10008.7,14129L10008.6,14129L10008.6,14128.9L10008.5,14128.9L10008.5,14128.9L10008.4,14128.8L10008.3,14128.8L10008.3,14128.8L10008.2,14128.7L10008.1,14128.7L10008.1,14128.7L10008,14128.7L10007.9,14128.6L10007.9,14128.6L10007.8,14128.6L10007.7,14128.6L10007.7,14128.5L10007.6,14128.5L10007.5,14128.5L10007.5,14128.5L10007.4,14128.5L10007.3,14128.4L10007.3,14128.4L10007.2,14128.4L10007.1,14128.4L10007,14128.4L10007,14128.4L10006.9,14128.3L10006.8,14128.3L10006.8,14128.3L10006.7,14128.3L10006.6,14128.3L10006.5,14128.3L10006.5,14128.3L10006.4,14128.3L10006.3,14128.3L10006.3,14128.3L10006.2,14128.3L10006.1,14128.3L10006,14128.3L10006,14128.3L10005.8,14128.3Z"/>
            </g>
        </g>
        <g transform="matrix(1,0,0,9.50258,9079.47,5855.71)">
            <g transform="matrix(0.60912,0,0,0.0641004,-5088.59,-31.523)">
                <circle cx="10005.9" cy="14134.1" r="9.236"/>
            </g>
        </g>
        <g transform="matrix(1,0,0,9.50258,9079.47,5855.71)">
            <g transform="matrix(0.31401,0,0,0.0330447,-2135.76,392.169)">
                <circle cx="10005.9" cy="14134.1" r="9.236"/>
            </g>
        </g>
        <g transform="matrix(1,0,0,9.50258,9079.47,5855.71)">
            <g transform="matrix(0.725608,0,0,0.0682024,-6261.13,-85.8368)">
                <rect x="9938.49" y="14180.4" width="151.241" height="17.362"/>
                <rect x="9938.49" y="14180.4" width="151.241" height="17.362"/>
            </g>
        </g>
        <g transform="matrix(1,0,0,9.50258,9079.47,5855.71)">
            <g transform="matrix(1.06061,0,0,0.105235,-9609.07,-611.203)">
                <rect x="9932.92" y="14011.3" width="100.953" height="72.196" style="fill:white;"/>
            </g>
        </g>
        <g transform="matrix(1,0,0,9.50258,9079.47,5855.71)">
            <g transform="matrix(0.31401,0,0,0.0330447,-2208.77,396.898)">
                <circle cx="10005.9" cy="14134.1" r="9.236"/>
            </g>
        </g>
        <g transform="matrix(1,0,0,9.50258,9079.47,5855.71)">
            <g transform="matrix(0.31401,0,0,0.0330447,-2199.63,396.898)">
                <circle cx="10005.9" cy="14134.1" r="9.236"/>
            </g>
        </g>
        <g transform="matrix(1,0,0,9.50258,9079.47,5855.71)">
            <g transform="matrix(0.31401,0,0,0.0330447,-2190.49,396.898)">
                <circle cx="10005.9" cy="14134.1" r="9.236"/>
            </g>
        </g>
        <g transform="matrix(1,0,0,9.50258,9079.47,5855.71)">
            <g transform="matrix(0,0.105235,1,2.08167e-17,-13073,-164.959)">
                <rect x="9807.25" y="14005" width="6" height="33.655"/>
            </g>
        </g>
        <g transform="matrix(1,0,0,9.50258,9079.47,5855.71)">
            <g transform="matrix(-1.11022e-16,0.105235,1.37365,-9.51233e-18,-18307,-163.586)">
                <rect x="9807.25" y="14005.8" width="6" height="32.023"/>
            </g>
        </g>
        <g transform="matrix(1,0,0,9.50258,9079.47,5855.71)">
            <g transform="matrix(1.66533e-16,0.105235,1.9199,-9.71445e-17,-25958.9,-166.333)">
                <rect x="9807.25" y="14006.4" width="6" height="30.78"/>
            </g>
        </g>
    </g>
</svg>
