<?xml version="1.0" encoding="UTF-8" standalone="no"?>
<!DOCTYPE svg PUBLIC "-//W3C//DTD SVG 1.1//EN" "http://www.w3.org/Graphics/SVG/1.1/DTD/svg11.dtd">
<svg width="100%" height="100%" viewBox="0 0 958 904" version="1.1" xmlns="http://www.w3.org/2000/svg" xmlns:xlink="http://www.w3.org/1999/xlink" xml:space="preserve" xmlns:serif="http://www.serif.com/" style="fill-rule:evenodd;clip-rule:evenodd;stroke-linecap:round;stroke-linejoin:round;stroke-miterlimit:1.5;">
    <g transform="matrix(1,0,0,1,-386.487,-22.364)">
        <g transform="matrix(1.37803,0,0,1,-345.51,-14.3235)">
            <ellipse cx="879.656" cy="825.804" rx="302.209" ry="88.787" style="fill:rgb(67,113,159);"/>
        </g>
        <g transform="matrix(1,0,0,1,11.881,-11.8881)">
            <circle cx="1020.93" cy="819.348" r="14.545" style="fill:rgb(99,99,99);"/>
        </g>
        <g transform="matrix(0.437982,0,0,1,417.778,12.7311)">
            <path d="M1020.93,804.803C1025.05,804.803 1032.49,802.845 1037.18,805.6C1041.63,808.215 1043.45,815.44 1043.45,819.348C1043.45,823.535 1044.12,828.964 1039.21,831.618C1034.71,834.055 1024.77,833.894 1020.93,833.894C1012.9,833.894 1006.39,827.376 1006.39,819.348C1006.39,811.32 1012.9,804.803 1020.93,804.803Z" style="fill:rgb(99,99,99);"/>
        </g>
        <g transform="matrix(1,0,0,1,-308.196,-11.8881)">
            <circle cx="1020.93" cy="819.348" r="14.545" style="fill:rgb(99,99,99);"/>
        </g>
        <g transform="matrix(1,0,0,1,0,-27.2829)">
            <g transform="matrix(1,0,0,1.00945,8.68281,-79.9634)">
                <rect x="846.413" y="610.509" width="50.243" height="272.487" style="fill:rgb(64,64,64);"/>
            </g>
            <g transform="matrix(-1.83697e-16,0.885461,-1,-1.62657e-16,1626.97,-173.45)">
                <path d="M896.656,610.509L846.413,610.509L846.413,882.996L874.648,882.996C887.713,882.996 899.034,874.979 901.905,863.693C922.845,779.964 921.749,695.589 896.656,610.509Z" style="fill:rgb(64,64,64);"/>
                <clipPath id="_clip1">
                    <path d="M896.656,610.509L846.413,610.509L846.413,882.996L874.648,882.996C887.713,882.996 899.034,874.979 901.905,863.693C922.845,779.964 921.749,695.589 896.656,610.509Z"/>
                </clipPath>
                <g clip-path="url(#_clip1)">
                    <g transform="matrix(-1.83697e-16,-1,1.12935,-2.07459e-16,226.699,1632.77)">
                        <path d="M1048.64,587.829C938.149,596.547 829.533,597.399 723.399,587.829L723.399,610.9L1048.64,610.9L1048.64,587.829Z" style="fill:rgb(43,43,43);"/>
                    </g>
                </g>
            </g>
            <g transform="matrix(1.41283e-16,-0.348568,1.30081,3.34261e-16,-99.9763,1122.14)">
                <path d="M900.428,623.97C898.368,616.384 874.799,610.511 846.414,610.511C846.414,610.509 846.413,610.509 846.413,610.509C813.609,645.286 796.592,684.699 795.732,728.858C795.641,733.557 757.963,731.391 758.626,742.98C759.378,756.122 796.814,753.543 797.537,758.85C802.733,796.973 818.956,838.335 846.413,882.996L846.417,882.996C874.794,882.996 898.351,877.122 900.39,869.538C921.722,788.309 922.329,706.471 900.428,623.97Z" style="fill:rgb(64,64,64);"/>
                <clipPath id="_clip2">
                    <path d="M900.428,623.97C898.368,616.384 874.799,610.511 846.414,610.511C846.414,610.509 846.413,610.509 846.413,610.509C813.609,645.286 796.592,684.699 795.732,728.858C795.641,733.557 757.963,731.391 758.626,742.98C759.378,756.122 796.814,753.543 797.537,758.85C802.733,796.973 818.956,838.335 846.413,882.996L846.417,882.996C874.794,882.996 898.351,877.122 900.39,869.538C921.722,788.309 922.329,706.471 900.428,623.97Z"/>
                </clipPath>
                <g clip-path="url(#_clip2)">
                    <g transform="matrix(8.71883e-16,0.9092,-2.86888,3.11592e-16,3141.01,-71.9856)">
                        <path d="M1059.75,791.961C950.554,808.595 842.811,808.769 736.562,791.961L736.562,822.791L1059.75,822.791L1059.75,791.961Z" style="fill:rgb(43,43,43);"/>
                    </g>
                    <g transform="matrix(6.55754e-16,0.68382,-2.86888,3.11592e-16,3141.01,150.611)">
                        <path d="M886.83,789.364L850.021,789.364C842.859,804.662 846.341,817.421 854.119,826.466C856.68,829.444 849.141,835.6 850.021,839.694L886.83,839.694C886.83,839.694 874.779,829.329 878.196,827.484C890.716,820.722 892.861,790.148 886.83,789.364Z" style="fill:rgb(64,64,64);"/>
                    </g>
                </g>
            </g>
            <g transform="matrix(0.528621,-0.491544,0.527142,0.566904,-310.8,1264.96)">
                <path d="M1587.43,517.048C1587.43,517.048 1567.54,542.012 1537.68,546.469C1521.39,548.9 1500.95,549.686 1490.44,549.099C1458.03,547.286 1443.94,558.072 1440.07,570.643C1437.56,578.815 1439.36,587.74 1443.24,594.453C1446.67,600.376 1447.93,598.575 1454.05,602.219C1485.18,620.742 1526.22,615.382 1547.03,620.45C1579.43,628.339 1622.4,578.379 1622.4,578.379L1587.43,517.048Z" style="fill:rgb(213,213,213);"/>
                <clipPath id="_clip3">
                    <path d="M1587.43,517.048C1587.43,517.048 1567.54,542.012 1537.68,546.469C1521.39,548.9 1500.95,549.686 1490.44,549.099C1458.03,547.286 1443.94,558.072 1440.07,570.643C1437.56,578.815 1439.36,587.74 1443.24,594.453C1446.67,600.376 1447.93,598.575 1454.05,602.219C1485.18,620.742 1526.22,615.382 1547.03,620.45C1579.43,628.339 1622.4,578.379 1622.4,578.379L1587.43,517.048Z"/>
                </clipPath>
                <g clip-path="url(#_clip3)">
                    <g transform="matrix(1.01452,0.879657,-0.943361,0.946009,1461.37,-889.186)">
                        <path d="M873.695,776.919C888.512,776.919 880.218,780.812 880.218,793.718C880.218,806.624 850.228,825.284 835.411,825.284C820.594,825.284 839.695,809.121 839.695,796.215C839.695,783.309 858.878,776.919 873.695,776.919Z" style="fill:rgb(99,99,99);"/>
                    </g>
                </g>
            </g>
            <g transform="matrix(-0.600992,-0.399831,-0.428786,0.644516,2188.7,995.225)">
                <path d="M1593.97,534.155C1593.97,534.155 1575.76,533.48 1557.38,539.091C1548.97,541.658 1543.54,551.327 1534.47,552.727C1517.18,555.394 1501.58,549.722 1490.44,549.099C1458.03,547.286 1443.94,558.072 1440.07,570.643C1437.56,578.815 1439.36,587.74 1443.24,594.453C1446.67,600.376 1447.93,598.575 1454.05,602.219C1485.18,620.742 1526.22,615.382 1547.03,620.45C1579.43,628.339 1593.17,590.299 1593.17,590.299L1593.97,534.155Z" style="fill:rgb(213,213,213);"/>
                <clipPath id="_clip4">
                    <path d="M1593.97,534.155C1593.97,534.155 1575.76,533.48 1557.38,539.091C1548.97,541.658 1543.54,551.327 1534.47,552.727C1517.18,555.394 1501.58,549.722 1490.44,549.099C1458.03,547.286 1443.94,558.072 1440.07,570.643C1437.56,578.815 1439.36,587.74 1443.24,594.453C1446.67,600.376 1447.93,598.575 1454.05,602.219C1485.18,620.742 1526.22,615.382 1547.03,620.45C1579.43,628.339 1593.17,590.299 1593.17,590.299L1593.97,534.155Z"/>
                </clipPath>
                <g clip-path="url(#_clip4)">
                    <g transform="matrix(1.01452,0.879657,-0.943361,0.946009,1461.37,-889.186)">
                        <path d="M853.371,770.334C868.188,770.334 880.218,780.812 880.218,793.718C880.218,806.624 850.228,825.284 835.411,825.284C820.594,825.284 839.695,809.121 839.695,796.215C839.695,783.309 838.554,770.334 853.371,770.334Z" style="fill:rgb(99,99,99);"/>
                    </g>
                </g>
            </g>
            <g transform="matrix(0.988053,0.13646,-0.154112,0.874883,69.1844,-148.88)">
                <path d="M877.967,950.872C874.725,931.958 877.012,891.895 879.499,854.283C879.685,851.468 879.872,848.667 880.058,845.889C880.239,843.186 880.419,840.506 880.596,837.857C882.148,814.638 883.46,793.838 883.146,781.594C882.544,758.035 884.893,735.169 889.999,712.144C893.994,694.128 893.033,678.063 907.119,664.766C921.329,651.353 955.96,652.069 971.967,664.494C980.406,671.044 1011.5,650.706 1014.81,660.57C1021.06,679.168 996.232,718.927 994.975,738.695C994.065,753.012 1003.64,742.95 992.323,785.606C978.228,838.739 942.767,944.719 942.767,944.719C920.851,958.18 899.249,960.32 877.967,950.872Z" style="fill:rgb(60,106,218);"/>
                <clipPath id="_clip5">
                    <path d="M877.967,950.872C874.725,931.958 877.012,891.895 879.499,854.283C879.685,851.468 879.872,848.667 880.058,845.889C880.239,843.186 880.419,840.506 880.596,837.857C882.148,814.638 883.46,793.838 883.146,781.594C882.544,758.035 884.893,735.169 889.999,712.144C893.994,694.128 893.033,678.063 907.119,664.766C921.329,651.353 955.96,652.069 971.967,664.494C980.406,671.044 1011.5,650.706 1014.81,660.57C1021.06,679.168 996.232,718.927 994.975,738.695C994.065,753.012 1003.64,742.95 992.323,785.606C978.228,838.739 942.767,944.719 942.767,944.719C920.851,958.18 899.249,960.32 877.967,950.872Z"/>
                </clipPath>
                <g clip-path="url(#_clip5)">
                    <g transform="matrix(0.973608,0.14464,-0.152866,1.02898,111.867,-205.829)">
                        <path d="M1057.78,685.721L914.226,685.721L914.226,797.708C915.668,797.13 917.619,804.517 919.06,803.967C974.423,782.815 1027.33,774.289 1038.5,804.182L1057.78,797.708L1057.78,685.721Z" style="fill:rgb(19,48,119);"/>
                    </g>
                </g>
            </g>
            <g transform="matrix(1,0,0,0.71952,-131.942,75.2306)">
                <path d="M878.994,603.869C878.994,603.869 852.764,678.463 910.946,723.409C927.352,736.083 945.364,752.051 979.038,751.045C1033.24,749.424 1070.95,750.452 1070.19,800.412C1069.57,841.902 1097.79,926.975 1097.79,926.975C1121.19,926.331 1141.35,918.205 1158.37,902.769C1158.37,902.769 1157.88,799.532 1158.14,781.4C1158.59,749.126 1159.97,696.141 1130.97,678.315C1109.89,665.358 998.814,685.666 1084.26,649.48C1126.58,631.56 999.224,621.793 955.19,620.5C942.776,620.136 931.165,621.389 919.317,616.975C904.659,611.514 896.068,594.825 878.994,603.869Z" style="fill:rgb(60,106,218);"/>
            </g>
        </g>
        <g transform="matrix(1,0,0,1.50361,-95.292,-396.623)">
            <rect x="545.656" y="635.846" width="31.023" height="236.198" style="fill:rgb(65,74,96);"/>
        </g>
        <g transform="matrix(1,0,0,1.50361,706.453,-396.623)">
            <rect x="545.656" y="635.846" width="31.023" height="236.198" style="fill:rgb(65,74,96);"/>
        </g>
        <g transform="matrix(1,0,0,1.44083,636.21,-533.77)">
            <rect x="545.656" y="635.846" width="31.023" height="236.198" style="fill:rgb(65,74,96);"/>
        </g>
        <g transform="matrix(1,0,0,1.44083,-25.0486,-533.77)">
            <rect x="545.656" y="635.846" width="31.023" height="236.198" style="fill:rgb(65,74,96);"/>
        </g>
        <g transform="matrix(1.14177,0,0,1,-247.112,-118.267)">
            <path d="M1150.2,238.185C1151.16,231.857 1149.62,225.367 1146,220.452C1142.38,215.538 1137.04,212.701 1131.42,212.701C1065.58,212.675 877.96,212.675 815.016,212.675C809.894,212.675 805.033,215.251 801.727,219.718C798.42,224.184 797.006,230.086 797.859,235.852C810.365,321.75 807.422,403.79 794.138,483.246L1154.56,483.246C1143.88,402.53 1137.87,321.323 1150.2,238.185Z" style="fill:rgb(52,70,114);"/>
        </g>
        <g transform="matrix(1,0,0,1,-109.307,-76.409)">
            <path d="M499.839,618.37C499.839,618.37 491.352,641.013 498.967,650.473C506.189,659.447 1358.2,651.395 1445.76,650.544C1449.85,650.504 1453.18,647.257 1453.32,643.175C1453.64,634.343 1453.89,620.483 1452.42,619.173C1450.24,617.229 499.839,618.37 499.839,618.37Z" style="fill:rgb(22,34,65);"/>
        </g>
        <g transform="matrix(1,0,0,1,-137.081,-76.409)">
            <path d="M1003.76,443.77L1356.58,436.1C1361.31,435.997 1365.82,438.138 1368.72,441.874C1411.76,497.333 1449.13,555.621 1479.49,617.415C1481.42,621.39 1481.17,626.078 1478.83,629.823C1476.48,633.568 1472.38,635.843 1467.96,635.843C1391.19,635.85 1118.44,635.851 1021.16,635.851L1021.16,635.851L1003.76,635.851L986.365,635.851L986.365,635.851C889.077,635.851 616.331,635.85 539.564,635.843C535.146,635.843 531.039,633.568 528.694,629.823C526.35,626.078 526.099,621.39 528.029,617.415C558.391,555.621 595.765,497.333 638.797,441.874C641.704,438.138 646.207,435.997 650.939,436.1L1003.76,443.77Z" style="fill:rgb(65,74,96);"/>
        </g>
        <g transform="matrix(0.840609,0,0,1,250.078,-430.466)">
            <ellipse cx="733.517" cy="621.676" rx="112.301" ry="105.154" style="fill:rgb(255,215,196);"/>
        </g>
        <g transform="matrix(1,0,0,1,148.941,-430.466)">
            <path d="M673.026,583.716C692.227,583.716 707.36,588.172 707.36,604.912C707.36,621.652 692.056,640.667 672.854,640.667C653.652,640.667 637.777,621.652 637.777,604.912C637.777,588.172 653.824,583.716 673.026,583.716Z" style="fill:white;stroke:black;stroke-width:5.37px;"/>
        </g>
        <g transform="matrix(1,0,0,1,239.28,-430.466)">
            <path d="M673.026,583.716C692.227,583.716 707.36,588.172 707.36,604.912C707.36,621.652 692.056,640.667 672.854,640.667C653.652,640.667 637.777,621.652 637.777,604.912C637.777,588.172 653.824,583.716 673.026,583.716Z" style="fill:white;stroke:black;stroke-width:5.37px;"/>
        </g>
        <g transform="matrix(0.655399,0,0,1,388.898,-430.466)">
            <path d="M713.159,604.912C724.35,599.52 734.855,599.95 744.828,604.912" style="fill:none;stroke:black;stroke-width:6.35px;"/>
        </g>
        <g transform="matrix(1.63527,0,0,2.29375,-374.59,-1221.74)">
            <circle cx="786.681" cy="614.336" r="7.34" style="fill:rgb(0,144,255);"/>
        </g>
        <g transform="matrix(1.63527,0,0,2.29375,-464.929,-1221.74)">
            <circle cx="786.681" cy="614.336" r="7.34" style="fill:rgb(0,144,255);"/>
        </g>
        <g transform="matrix(1,0,0,1,135.637,-427.533)">
            <circle cx="692.922" cy="605.143" r="7.048" style="fill:white;"/>
        </g>
        <g transform="matrix(0.388487,0,0,0.698006,552.319,-230.077)">
            <circle cx="692.922" cy="605.143" r="7.048"/>
        </g>
        <g transform="matrix(0.388487,0,0,0.698006,642.658,-228.48)">
            <circle cx="692.922" cy="605.143" r="7.048"/>
        </g>
        <g transform="matrix(1,0,0,1,225.976,-427.533)">
            <circle cx="692.922" cy="605.143" r="7.048" style="fill:white;"/>
        </g>
        <g transform="matrix(1,0,0,1,133.162,-430.466)">
            <path d="M744.831,524.885C744.831,524.885 737.652,567.891 756.1,587.712C789.219,623.295 809.756,609.103 823.927,617.863C834.551,624.43 820.837,624.868 825.014,637.829C828.343,648.162 818.733,656.656 819.008,666.435C819.28,676.07 828.365,678.783 833.346,685.21C835.71,688.261 836.583,692.216 836.892,696.005C837.533,703.866 835.446,711.331 830.685,717.662C828.046,721.172 823.684,724.463 822.19,728.765C819.38,736.856 830.459,740.713 834.526,744.903C834.744,745.128 833.806,747.114 833.718,747.359C832.86,749.757 832.028,752.132 831.64,754.66C830.73,760.597 833.071,765.627 836.48,770.364C843.511,780.134 859.251,781.304 870.454,782.361C880.181,783.278 889.632,783.253 899.402,783.163C906.557,783.097 914.562,783.989 921.613,782.465C929.964,780.659 939.626,774.098 945.531,767.976C948.94,764.441 953.003,760.306 954.496,755.475C958,744.137 939.743,735.441 931.846,733.739C926.537,732.595 919.981,731.604 919.315,724.788C918.747,718.969 921.695,712.892 922.99,707.332C925.192,697.871 926.662,687.351 925.039,677.684C923.897,670.881 921.507,661.475 915.997,656.704C909.805,651.341 900.785,650.27 897.567,641.695C893.759,631.55 897.299,618.859 895.225,608.118C893.562,599.509 891.545,589.938 887.179,582.2C882.447,573.814 876.114,566.487 871.571,557.885C866.95,549.136 863.691,539.701 858.763,530.764C841.016,498.583 752.938,442.323 710.569,458.402C697.753,463.265 653.473,489.51 635.68,502.9C613.171,519.84 623.302,535.397 605.563,556.577C599.229,564.141 592.362,571.072 587.212,579.599C579.225,592.822 569.445,614.705 573.49,630.606C575.048,636.728 573.725,663.752 573.349,666.817C573.06,669.167 588.789,693.02 587.047,694.524C579.891,700.704 570.244,704.472 563.684,711.153C557.61,717.34 560.166,724.596 558.142,732.137C557.582,734.224 553.055,740.066 553.444,741.763C554.761,747.512 559.789,751.804 565.022,754.279C566.419,754.94 567.838,755.552 569.249,756.18C569.413,756.253 571.673,757.051 571.699,757.162C571.727,757.281 569.108,758.292 568.834,758.399C567.761,758.816 562.931,759.98 561.51,761.301C560.005,762.699 559.177,766.509 558.385,768.26C555.85,773.87 551.741,777.901 557.583,782.968C564.03,788.559 581.992,769.084 590.29,770.65C600.979,772.668 601.106,796.096 612.061,795.431C623.973,794.709 633.638,789.58 644.81,786.022C659.177,781.447 675.271,771.786 680.976,757.045C684.4,748.198 684.693,735.801 684.932,726.324C685.021,722.79 682.283,719.821 681.898,716.284C680.884,706.98 682.043,697.281 677.414,688.746C674.081,682.6 668.958,680.716 663.365,677.348C660.305,675.505 657.574,668.211 655.661,665.442C652.536,660.92 647.45,656.955 644.889,652.145C642.151,647.003 642.788,639.418 641.739,633.791C640.814,628.824 638.67,621.89 641.4,617.131C643.927,612.726 651.685,606.961 652.746,601.67C653.789,596.47 653.98,591.575 653.24,586.352C652.522,581.294 650.603,575.278 652.519,570.28C655.61,562.218 667.694,557.247 675.02,554.962C678.315,553.935 685.262,550.271 688.977,552.447C695.321,556.162 744.831,524.885 744.831,524.885Z" style="fill:rgb(78,58,45);"/>
        </g>
        <g transform="matrix(1,0,0,1,199.671,-486.797)">
            <path d="M653.556,757.708C653.556,757.708 620.427,731.579 611.265,735.229C603.134,738.469 595.109,741.929 586.528,743.861C567.609,748.122 547.814,749.047 528.629,751.576C496.533,755.805 465.437,770.39 441.5,791.752C433.629,798.776 425.945,806.35 420.231,815.288C409.435,832.174 401.858,855.935 417.056,872.931C420.26,876.514 424.142,879.602 428.236,882.109C432.956,885 437.9,886.977 443.295,888.275C465.078,893.515 524.136,900.898 545.785,895.728C553.319,893.929 560.495,890.852 568.027,889.09C582.07,885.806 593.464,880.39 605.245,872.013C609.297,869.132 613.975,867.133 616.99,863.035C625.121,851.981 620.959,837.318 614.36,826.448C612.302,823.059 610.124,818.627 606.63,816.454C602.842,814.1 597.381,813.218 592.913,812.953C580.037,812.19 572.663,824.386 563.643,831.336C553.747,838.961 530.001,849.028 518.463,853.375C511.257,856.09 470.433,844.713 467.717,832.934C464.983,821.075 486.827,816.206 496.584,813.585C504.833,811.369 544.728,811.729 554.847,810.451C572.348,808.239 639.523,766.809 653.556,757.708Z" style="fill:rgb(255,215,196);"/>
        </g>
        <g transform="matrix(0.894977,-0.446112,0.446112,0.894977,-164.69,-153.814)">
            <path d="M643.592,765.145L529.8,748.695C517.186,782.286 522.281,814.4 543.98,845.128L688.348,821.681L643.592,765.145Z" style="fill:rgb(255,189,0);"/>
        </g>
        <path d="M784.776,174.058C754.833,178.541 728.211,197.02 706.812,237.513C716.079,261.733 729.039,269.165 743.677,268.967C724.429,241.426 752.823,193.669 784.776,174.058" style="fill:rgb(109,79,62);"/>
        <g transform="matrix(-0.311674,-0.950189,-0.950189,0.311674,1438.65,870.95)">
            <path d="M784.776,174.058C754.833,178.541 728.211,197.02 706.812,237.513C716.079,261.733 729.039,269.165 743.677,268.967C724.429,241.426 752.823,193.669 784.776,174.058" style="fill:rgb(109,79,62);"/>
        </g>
        <g transform="matrix(-1,0,0,1,1544.06,-481.593)">
            <path d="M653.556,757.708C653.556,757.708 620.427,731.579 611.265,735.229C603.134,738.469 595.109,741.929 586.528,743.861C567.609,748.122 547.814,749.047 528.629,751.576C496.533,755.805 465.437,770.39 441.5,791.752C433.629,798.776 425.945,806.35 420.231,815.288C409.435,832.174 401.858,855.935 417.056,872.931C420.26,876.514 424.142,879.602 428.236,882.109C432.956,885 437.9,886.977 443.295,888.275C465.078,893.515 524.136,900.898 545.785,895.728C553.319,893.929 560.495,890.852 568.027,889.09C582.07,885.806 593.464,880.39 605.245,872.013C609.297,869.132 613.975,867.133 616.99,863.035C625.121,851.981 620.959,837.318 614.36,826.448C612.302,823.059 610.124,818.627 606.63,816.454C602.842,814.1 597.381,813.218 592.913,812.953C580.037,812.19 572.663,824.386 563.643,831.336C553.747,838.961 530.001,849.028 518.463,853.375C511.257,856.09 470.433,844.713 467.717,832.934C464.983,821.075 486.827,816.206 496.584,813.585C504.833,811.369 544.728,811.729 554.847,810.451C572.348,808.239 639.523,766.809 653.556,757.708Z" style="fill:rgb(255,215,196);"/>
        </g>
        <g transform="matrix(-0.894977,-0.446112,-0.446112,0.894977,1908.42,-148.61)">
            <path d="M643.592,765.145L529.8,748.695C517.186,782.286 522.281,814.4 543.98,845.128L688.348,821.681L643.592,765.145Z" style="fill:rgb(255,189,0);"/>
        </g>
        <g transform="matrix(1,0,0,1,138.734,-432.368)">
            <path d="M890.701,681.242C890.701,675.754 888.521,670.491 884.641,666.611C880.76,662.73 875.498,660.551 870.01,660.551C813.441,660.551 656.661,660.551 600.091,660.551C594.604,660.551 589.341,662.73 585.461,666.611C581.58,670.491 579.4,675.754 579.4,681.242C579.4,730.044 579.4,848.26 579.4,848.26L890.701,848.26L890.701,681.242Z" style="fill:rgb(172,172,172);"/>
        </g>
        <g transform="matrix(1.36542,0,0,1.36542,-132.962,-713.562)">
            <circle cx="737.316" cy="761.603" r="28.293" style="fill:rgb(89,89,89);"/>
        </g>
        <g transform="matrix(0.941213,0,0,1,179.666,-473.513)">
            <path d="M902.844,889.405L572.1,889.405L572.1,899.002C572.1,904.797 577.091,909.494 583.248,909.494C633.791,909.494 841.154,909.494 891.697,909.494C897.854,909.494 902.844,904.797 902.844,899.002C902.844,894.133 902.844,889.405 902.844,889.405Z" style="fill:rgb(89,89,89);"/>
        </g>
        <g transform="matrix(-0.965926,-0.258819,0.258819,-0.965926,1722.61,398.213)">
            <path d="M894.464,74.84C893.73,134.128 935.628,119.487 969.465,107.387C939.443,111.393 908.474,118.366 912.174,56.553C906.073,61.757 897.773,67.217 894.464,74.84Z" style="fill:rgb(109,79,62);"/>
        </g>
        <g transform="matrix(-0.965926,-0.258819,0.258819,-0.965926,1739.94,384.221)">
            <path d="M894.96,75.885C894.226,135.173 951.99,114.968 965.663,105.68C951.343,112.327 905.243,117.879 908.942,56.065C903.594,62.625 899.043,69.656 894.96,75.885Z" style="fill:rgb(109,79,62);"/>
        </g>
        <g transform="matrix(-0.965926,-0.258819,0.258819,-0.965926,1758.19,364.389)">
            <path d="M897.887,95.112C914.298,121.668 918.92,102.323 954.537,95.485C923.982,96.117 902.171,102.525 901.703,71.446C896.355,78.006 901.969,88.883 897.887,95.112Z" style="fill:rgb(109,79,62);"/>
        </g>
        <path d="M896.305,74.58C901.068,69.554 906.995,59.337 911.015,51.472C907.315,113.285 915.633,156.989 954.495,186.063C920.114,167.975 900.982,147.359 897.787,98.311C895.514,146.421 896.953,156.49 931.928,182.656C894.692,174.836 870.521,154.166 877.355,92.141C881.84,88.21 890.153,84.047 894.95,76.871C894.952,76.543 894.956,76.215 894.96,75.885C895.391,75.507 895.836,75.075 896.291,74.595L896.306,74.566L896.305,74.58Z" style="fill:rgb(109,79,62);"/>
        <g transform="matrix(-0.328037,0.944665,0.944665,0.328037,1161.25,-826.711)">
            <path d="M899.48,52.225C898.746,111.512 926.864,151.948 964.803,171.907C925.941,142.834 914.015,112.983 917.715,51.169C916.763,51.224 915.857,51.225 914.993,51.19C908.149,50.913 903.87,48.377 899.48,52.225Z" style="fill:rgb(109,79,62);"/>
        </g>
        <path d="M834.538,118.767C823.445,86.514 800.711,71.721 752.992,94.408C793.113,89.708 808.387,102.575 802.73,126.867C812.513,126.626 823.229,123.586 834.538,118.767Z" style="fill:rgb(109,79,62);"/>
        <g transform="matrix(1.04707,0,0,0.768134,-21.1932,200.546)">
            <circle cx="465.041" cy="929.585" r="14.814" style="fill:rgb(65,74,96);"/>
        </g>
        <g transform="matrix(1.04707,0,0,0.768134,49.187,8.64823)">
            <circle cx="465.041" cy="929.585" r="14.814" style="fill:rgb(65,74,96);"/>
        </g>
        <g transform="matrix(1.04707,0,0,0.768134,710.446,8.64823)">
            <circle cx="465.041" cy="929.585" r="14.814" style="fill:rgb(65,74,96);"/>
        </g>
        <g transform="matrix(1.04707,0,0,0.768134,780.689,200.546)">
            <circle cx="465.041" cy="929.585" r="14.814" style="fill:rgb(65,74,96);"/>
        </g>
    </g>
</svg>
