<svg xmlns="http://www.w3.org/2000/svg" width="100" height="200" viewBox="0 0 100 200">
  <g id="Differenzmenge_2" data-name="Differenzmenge 2" transform="translate(1961 3013)">
    <path d="M -1960.500122070313 -2813.500732421875 L -1960.500122070313 -3012.4990234375 C -1947.244018554688 -3012.4345703125 -1934.38525390625 -3009.805419921875 -1922.2705078125 -3004.681396484375 C -1916.37353515625 -3002.18701171875 -1910.687133789063 -2999.100341796875 -1905.369140625 -2995.50732421875 C -1900.101196289063 -2991.94873046875 -1895.146606445313 -2987.86083984375 -1890.642944335938 -2983.357421875 C -1886.14013671875 -2978.8544921875 -1882.05224609375 -2973.899658203125 -1878.492919921875 -2968.631103515625 C -1874.899291992188 -2963.31201171875 -1871.812866210938 -2957.625732421875 -1869.319091796875 -2951.730224609375 C -1864.130859375 -2939.463623046875 -1861.500244140625 -2926.43310546875 -1861.500244140625 -2913.00048828125 C -1861.500244140625 -2899.56787109375 -1864.130859375 -2886.537353515625 -1869.319091796875 -2874.2705078125 C -1871.812866210938 -2868.374755859375 -1874.8994140625 -2862.688232421875 -1878.492919921875 -2857.369140625 C -1882.052612304688 -2852.10009765625 -1886.140502929688 -2847.145263671875 -1890.642944335938 -2842.642822265625 C -1895.145751953125 -2838.14013671875 -1900.100341796875 -2834.05224609375 -1905.369140625 -2830.49267578125 C -1910.687866210938 -2826.899169921875 -1916.374267578125 -2823.8125 -1922.2705078125 -2821.318603515625 C -1934.385009765625 -2816.194580078125 -1947.243896484375 -2813.565185546875 -1960.500122070313 -2813.500732421875 Z" stroke="none"/>
    <path d="M -1960.000122070313 -2814.00439453125 C -1946.988159179688 -2814.1318359375 -1934.365112304688 -2816.745849609375 -1922.465209960938 -2821.779052734375 C -1916.598754882813 -2824.260498046875 -1910.94091796875 -2827.33154296875 -1905.649047851563 -2830.906982421875 C -1900.406616210938 -2834.44873046875 -1895.476806640625 -2838.51611328125 -1890.99658203125 -2842.996337890625 C -1886.516479492188 -2847.4765625 -1882.449096679688 -2852.40625 -1878.9072265625 -2857.649169921875 C -1875.331787109375 -2862.94140625 -1872.2607421875 -2868.59912109375 -1869.779663085938 -2874.46533203125 C -1864.61767578125 -2886.670166015625 -1862.000244140625 -2899.63525390625 -1862.000244140625 -2913.00048828125 C -1862.000244140625 -2926.36572265625 -1864.61767578125 -2939.330810546875 -1869.779663085938 -2951.535400390625 C -1872.2607421875 -2957.4013671875 -1875.331665039063 -2963.058837890625 -1878.9072265625 -2968.351318359375 C -1882.44873046875 -2973.593505859375 -1886.516235351563 -2978.5234375 -1890.99658203125 -2983.00390625 C -1895.4775390625 -2987.48486328125 -1900.407348632813 -2991.55224609375 -1905.649047851563 -2995.093017578125 C -1910.940307617188 -2998.66796875 -1916.59814453125 -3001.739013671875 -1922.465209960938 -3004.220947265625 C -1934.365356445313 -3009.25390625 -1946.988403320313 -3011.867919921875 -1960.000122070313 -3011.995361328125 L -1960.000122070313 -2814.00439453125 M -1961.000122070313 -2812.99951171875 L -1961.000122070313 -3013.000244140625 C -1947.499389648438 -3013.000244140625 -1934.403564453125 -3010.35595703125 -1922.07568359375 -3005.141845703125 C -1916.1494140625 -3002.635009765625 -1910.434326171875 -2999.532958984375 -1905.089233398438 -2995.921630859375 C -1899.794189453125 -2992.3447265625 -1894.81494140625 -2988.236328125 -1890.289428710938 -2983.7109375 C -1885.76416015625 -2979.185546875 -1881.655883789063 -2974.206298828125 -1878.07861328125 -2968.9111328125 C -1874.467041015625 -2963.5654296875 -1871.364990234375 -2957.8505859375 -1868.858642578125 -2951.925048828125 C -1863.644165039063 -2939.596435546875 -1861.000244140625 -2926.50048828125 -1861.000244140625 -2913.00048828125 C -1861.000244140625 -2899.500732421875 -1863.644165039063 -2886.404541015625 -1868.858642578125 -2874.07568359375 C -1871.364868164063 -2868.150390625 -1874.466918945313 -2862.435302734375 -1878.07861328125 -2857.08935546875 C -1881.656127929688 -2851.793701171875 -1885.764526367188 -2846.814208984375 -1890.289428710938 -2842.289306640625 C -1894.814575195313 -2837.76416015625 -1899.7939453125 -2833.65576171875 -1905.089233398438 -2830.078369140625 C -1910.435180664063 -2826.46630859375 -1916.150390625 -2823.3642578125 -1922.07568359375 -2820.858154296875 C -1934.404174804688 -2815.6435546875 -1947.500244140625 -2812.99951171875 -1961.000122070313 -2812.99951171875 Z M -1961.000122070313 -2812.99951171875 L -1961.000610351563 -2812.99951171875 L -1961.000122070313 -2812.99951171875 Z" stroke="none" fill="#707070"/>
  </g>
</svg>
