<svg xmlns="http://www.w3.org/2000/svg" width="120" height="240.998" viewBox="0 0 120 240.998">
  <path id="Differenzmenge_1" data-name="Differenzmenge 1" d="M-1892-2774h0v-241a121.316,121.316,0,0,1,24.2,2.532,119.891,119.891,0,0,1,22.531,7.074,120.511,120.511,0,0,1,20.385,11.135,121.363,121.363,0,0,1,17.757,14.715,121.362,121.362,0,0,1,14.648,17.814,120.507,120.507,0,0,1,11.058,20.432,119.9,119.9,0,0,1,6.988,22.57A121.4,121.4,0,0,1-1772-2894.5a121.4,121.4,0,0,1-2.436,24.226,119.9,119.9,0,0,1-6.988,22.57,120.507,120.507,0,0,1-11.058,20.432,121.367,121.367,0,0,1-14.648,17.814,121.369,121.369,0,0,1-17.757,14.715,120.486,120.486,0,0,1-20.385,11.135,119.891,119.891,0,0,1-22.531,7.074A121.331,121.331,0,0,1-1892-2774Z" transform="translate(1892 3014.999)" fill="#6f6f6e"/>
</svg>
