<?xml version="1.0" encoding="UTF-8" standalone="no"?>
<!DOCTYPE svg PUBLIC "-//W3C//DTD SVG 1.1//EN" "http://www.w3.org/Graphics/SVG/1.1/DTD/svg11.dtd">
<svg width="100%" height="100%" viewBox="0 0 847 585" version="1.1" xmlns="http://www.w3.org/2000/svg" xmlns:xlink="http://www.w3.org/1999/xlink" xml:space="preserve" xmlns:serif="http://www.serif.com/" style="fill-rule:evenodd;clip-rule:evenodd;stroke-linejoin:round;stroke-miterlimit:2;">
    <g transform="matrix(1,0,0,1,-9450.29,-15389.4)">
        <g transform="matrix(1,0,0,9.50258,9079.47,5855.71)">
            <g transform="matrix(1,0,0,0.105235,-9392.89,-609.172)">
                <path d="M10410.1,15704.9L10410.2,15704.9L10410.3,15705L10475.3,15761.3L10475.3,15761.3L10475.4,15761.4L10475.4,15761.5L10475.4,15761.6L10475.4,15761.7L10475.4,15761.8L10475.3,15761.9L10475.2,15762L10475.1,15762.1L10475,15762.1L10474.9,15762.1L10474.8,15762.1L10474.7,15762L10474.6,15762L10409.7,15705.7L10409.6,15705.6L10409.5,15705.5L10409.5,15705.4L10409.5,15705.3L10409.5,15705.2L10409.6,15705.1L10409.6,15705L10409.7,15705L10409.8,15704.9L10409.9,15704.9L10410,15704.9L10410.1,15704.9Z"/>
            </g>
        </g>
        <g transform="matrix(1,0,0,9.50258,9079.47,5855.71)">
            <g transform="matrix(1,0,0,0.105235,-9392.89,-609.172)">
                <path d="M10306.1,15734.2L10306.2,15734.3L10415.9,15807.5L10416,15807.6L10416.1,15807.7L10416.1,15807.8L10416.1,15808L10416.1,15808.1L10416,15808.2L10415.9,15808.3L10415.8,15808.4L10415.6,15808.4L10415.5,15808.4L10415.4,15808.3L10305.6,15735.1L10305.6,15735L10305.5,15734.8L10305.4,15734.7L10305.4,15734.6L10305.5,15734.5L10305.6,15734.3L10305.7,15734.3L10305.8,15734.2L10305.9,15734.2L10306.1,15734.2Z"/>
            </g>
        </g>
        <g transform="matrix(1,0,0,9.50258,9079.47,5855.71)">
            <g transform="matrix(1,0,0,0.105235,-9392.89,-609.172)">
                <path d="M10551.7,15831.5L10551.8,15831.5L10551.9,15831.6L10551.9,15831.6L10552,15831.7L10552,15831.9L10564.3,15904.9L10564.3,15905L10564.3,15905.1L10564.2,15905.2L10564.2,15905.3L10564.1,15905.4L10564,15905.4L10563.9,15905.5L10563.7,15905.4L10563.6,15905.4L10563.5,15905.3L10563.5,15905.3L10563.4,15905.2L10563.4,15905.1L10551.1,15832L10551.1,15831.9L10551.1,15831.8L10551.2,15831.7L10551.2,15831.6L10551.3,15831.5L10551.4,15831.5L10551.5,15831.5L10551.7,15831.5Z"/>
            </g>
        </g>
        <g transform="matrix(1,0,0,9.50258,9079.47,5855.71)">
            <g transform="matrix(1,0,0,0.105235,-9392.89,-609.172)">
                <path d="M10489.8,15858.6L10489.9,15858.6L10489.9,15858.7L10490,15858.7L10490,15858.8L10518.5,15904.7L10518.6,15904.8L10518.6,15904.9L10518.6,15905L10518.6,15905.1L10518.6,15905.1L10518.5,15905.2L10518.5,15905.3L10518.4,15905.4L10518.4,15905.4L10518.3,15905.4L10518.2,15905.4L10518.1,15905.4L10518,15905.4L10517.9,15905.4L10517.9,15905.4L10517.8,15905.3L10517.7,15905.2L10489.2,15859.3L10489.2,15859.2L10489.2,15859.1L10489.2,15859L10489.2,15859L10489.2,15858.9L10489.2,15858.8L10489.3,15858.7L10489.4,15858.7L10489.4,15858.6L10489.5,15858.6L10489.6,15858.6L10489.7,15858.6L10489.8,15858.6Z"/>
            </g>
        </g>
        <g transform="matrix(1,0,0,9.50258,9079.47,5855.71)">
            <g transform="matrix(1,0,0,0.105235,-9392.89,-609.172)">
                <path d="M10490.2,15858.5L10486.9,15905L10486.8,15905.1L10486.8,15905.2L10486.8,15905.3L10486.7,15905.3L10486.6,15905.4L10486.6,15905.4L10486.5,15905.4L10486.4,15905.5L10486.3,15905.4L10486.2,15905.4L10486.1,15905.4L10486.1,15905.3L10486,15905.3L10486,15905.2L10485.9,15905.1L10485.9,15905L10485.9,15904.9L10489.1,15860.6L10455.3,15905.3L10455.3,15905.3L10455.2,15905.4L10455.1,15905.4L10455,15905.4L10454.9,15905.5L10454.8,15905.4L10454.8,15905.4L10454.7,15905.4L10454.6,15905.3L10454.6,15905.3L10454.5,15905.2L10454.5,15905.1L10454.5,15905L10454.5,15904.9L10454.5,15904.8L10454.5,15904.8L10454.6,15904.7L10489.6,15858.3L10490.2,15858.5Z"/>
            </g>
        </g>
        <g transform="matrix(1,0,0,9.50258,9079.47,5855.71)">
            <g transform="matrix(1,0,0,0.105235,-9392.89,-609.172)">
                <path d="M10396.1,15847.2L10396.2,15847.2L10396.3,15847.2L10396.3,15847.3L10443.6,15904.7L10443.7,15904.8L10443.7,15904.8L10443.8,15904.9L10443.8,15905L10443.7,15905.1L10443.7,15905.2L10443.6,15905.3L10443.5,15905.4L10443.5,15905.4L10443.4,15905.4L10443.3,15905.5L10443.2,15905.4L10443.1,15905.4L10443,15905.3L10442.9,15905.3L10395.6,15847.9L10395.6,15847.8L10395.5,15847.7L10395.5,15847.6L10395.5,15847.5L10395.5,15847.5L10395.6,15847.4L10395.6,15847.3L10395.7,15847.2L10395.8,15847.2L10395.9,15847.1L10396,15847.1L10396.1,15847.2Z"/>
            </g>
        </g>
        <g transform="matrix(1,0,0,9.50258,9079.47,5855.71)">
            <g transform="matrix(1,0,0,0.105235,-9392.89,-609.172)">
                <path d="M10371.9,15637.2L10438.4,15655.5L10438.5,15655.5L10410.3,15704.7L10477.6,15721.1L10474.5,15761.3L10552.3,15831.9L10552.3,15832.2L10490.2,15859.3L10490.2,15859.5L10489.8,15859.8L10489.5,15859.5L10396.3,15848.1L10385.6,15890.8L10427.2,15904.5L10427.4,15904.6L10427.5,15904.8L10427.5,15904.9L10427.5,15905.1L10427.4,15905.3L10427.3,15905.4L10427.1,15905.4L10426.9,15905.4L10384.5,15891.5L10395.4,15848L10325.5,15828.1L10325.5,15827.5L10412.9,15808.4L10258.7,15789.2L10258.6,15788.9L10305.9,15735.4L10409.3,15704.7L10437.1,15656.1L10371.6,15638.1L10371.4,15638.1L10371.3,15637.9L10371.3,15637.7L10371.3,15637.6L10371.3,15637.4L10371.5,15637.3L10371.7,15637.2L10371.9,15637.2ZM10490,15858.4L10550.7,15831.8L10474.7,15762.7L10490,15858.4ZM10396.7,15847.2L10487.8,15858.3L10415.9,15809L10396.7,15847.2ZM10416.5,15808.2L10489,15858L10473.7,15762.3L10416.5,15808.2ZM10328.2,15827.9L10395.7,15847.1L10414.8,15809L10328.2,15827.9ZM10306.5,15736.3L10260.3,15788.5L10415.2,15807.7L10409.1,15705.7L10306.5,15736.3ZM10416.1,15807.3L10473.5,15761.3L10473.5,15761L10473.6,15760.9L10476.6,15721.8L10410.1,15705.7L10416.1,15807.3Z"/>
            </g>
        </g>
        <g transform="matrix(1,0,0,9.50258,9079.47,5855.71)">
            <g transform="matrix(1,0,0,0.105235,-9392.89,-609.172)">
                <path d="M10372.1,15637.4L10372.5,15637.7L10372.3,15638.1L10274,15642.1L10273.9,15642L10273.8,15642L10273.7,15641.9L10273.6,15641.8L10273.6,15641.7L10273.5,15641.6L10273.6,15641.5L10273.6,15641.4L10273.7,15641.3L10273.8,15641.2L10273.9,15641.1L10274,15641.1L10370.5,15637.3L10298.3,15575.6L10298.5,15575.2L10347.8,15573.3L10372.1,15637.4ZM10300.3,15576.1L10370.6,15636.1L10347.1,15574.3L10300.3,15576.1Z"/>
            </g>
        </g>
        <g transform="matrix(1,0,0,9.50258,9079.47,5855.71)">
            <g transform="matrix(1,0,0,0.105235,-9392.89,-609.172)">
                <path d="M10233.1,15673.9L10233.2,15674L10307,15735.9L10306.7,15736.5L10180.3,15711L10129.2,15731L10106.8,15708.5L10106.6,15708.4L10106.6,15708.2L10106.7,15708L10106.8,15707.8L10106.9,15707.7L10107.1,15707.7L10107.3,15707.7L10107.4,15707.8L10129.4,15729.9L10180.2,15710L10304.5,15735L10232.6,15674.7L10232.5,15674.6L10232.5,15674.4L10232.5,15674.2L10232.6,15674.1L10232.7,15674L10232.9,15673.9L10233.1,15673.9Z"/>
            </g>
        </g>
        <g transform="matrix(1,0,0,9.50258,9079.47,5855.71)">
            <g transform="matrix(1,0,0,0.105235,-9392.89,-609.172)">
                <path d="M10299.6,15575.7L10274.6,15641.3L10408.4,15704L10371.1,15637.6L10401.1,15607.1L10401.2,15607L10401.4,15607L10401.6,15607L10401.8,15607.1L10401.9,15607.3L10401.9,15607.5L10401.9,15607.6L10401.8,15607.8L10372.3,15637.8L10410.3,15705.3L10409.9,15705.7L10274.8,15642.5L10306.8,15736.2L10306.8,15736.2L10190.4,15757.9L10179.7,15710.3L10232.6,15673.8L10273.5,15641.4L10273.4,15641.2L10273.7,15640.9L10273.8,15640.9L10298.6,15575.7L10278,15530L10247.6,15540L10247.4,15540L10247.2,15539.9L10247.1,15539.8L10247,15539.7L10247,15539.5L10247,15539.3L10247.1,15539.2L10247.3,15539.1L10278.5,15528.8L10299.6,15575.7ZM10233.2,15674.5L10180.8,15710.7L10191.1,15756.8L10305.6,15735.5L10273.8,15642.4L10233.2,15674.5Z"/>
            </g>
        </g>
        <g transform="matrix(1,0,0,9.50258,9079.47,5855.71)">
            <g transform="matrix(1,0,0,0.105235,-9392.89,-609.172)">
                <path d="M10227.8,15530L10228,15530.1L10228,15530.2L10228.1,15530.2L10228.2,15530.4L10228.2,15530.5L10228.2,15530.6L10228.1,15530.7L10228.1,15530.8L10228,15530.9L10227.9,15530.9L10154,15561.7L10153.9,15561.7L10153.8,15561.7L10153.7,15561.7L10153.6,15561.6L10153.5,15561.6L10153.4,15561.5L10153.4,15561.4L10153.4,15561.2L10153.4,15561.1L10153.4,15561L10153.5,15560.9L10153.6,15560.8L10153.7,15560.8L10227.5,15530L10227.6,15530L10227.7,15530L10227.8,15530Z"/>
            </g>
        </g>
        <g transform="matrix(1,0,0,9.50258,9079.47,5855.71)">
            <g transform="matrix(1,0,0,0.105235,-9392.89,-609.172)">
                <path d="M10212,15508.8L10212.1,15508.8L10212.1,15508.8L10212.2,15508.9L10212.3,15509L10212.3,15509L10212.3,15509.1L10212.4,15509.2L10212.4,15509.3L10212.3,15509.4L10212.3,15509.5L10212.2,15509.5L10212.2,15509.6L10212.1,15509.6L10212,15509.7L10212,15509.7L10167.6,15516.7L10167.5,15516.7L10167.4,15516.7L10167.3,15516.7L10167.2,15516.6L10167.1,15516.6L10167.1,15516.5L10167,15516.4L10167,15516.4L10167,15516.3L10167,15516.2L10167,15516.1L10167.1,15516L10167.1,15515.9L10167.2,15515.9L10167.2,15515.8L10167.3,15515.8L10167.4,15515.8L10211.8,15508.8L10211.9,15508.8L10212,15508.8Z"/>
            </g>
        </g>
        <g transform="matrix(1,0,0,9.50258,9079.47,5855.71)">
            <g transform="matrix(1,0,0,0.105235,-9392.89,-609.172)">
                <path d="M10078.3,15467.9L10078.3,15467.9L10078.4,15467.9L10078.5,15467.9L10078.5,15468L10078.6,15468L10078.6,15468.1L10078.6,15468.1L10078.7,15468.2L10078.7,15468.2L10078.7,15468.3L10078.7,15468.3L10078.7,15468.4L10078.7,15468.5L10078.7,15468.5L10078.7,15468.6L10078.6,15468.6L10078.6,15468.7L10078.5,15468.7L10078.5,15468.8L10078.4,15468.8L10078.4,15468.8L10078.3,15468.8L10057.9,15472.3L10057.8,15472.3L10057.8,15472.3L10057.7,15472.3L10057.7,15472.3L10057.6,15472.2L10057.6,15472.2L10057.5,15472.2L10057.5,15472.1L10057.4,15472.1L10057.4,15472L10057.4,15472L10057.4,15471.9L10057.4,15471.8L10057.4,15471.8L10057.4,15471.7L10057.4,15471.6L10057.4,15471.6L10057.4,15471.5L10057.5,15471.5L10057.5,15471.4L10057.6,15471.4L10057.6,15471.4L10057.7,15471.4L10057.7,15471.3L10078.2,15467.9L10078.2,15467.9L10078.3,15467.9Z"/>
            </g>
        </g>
        <g transform="matrix(1,0,0,9.50258,9079.47,5855.71)">
            <g transform="matrix(1,0,0,0.105235,-9392.89,-609.172)">
                <path d="M10060.7,15441.9L10060.8,15441.9L10060.9,15442L10078.7,15468.1L10102,15519.8L10158.4,15500.8L10158.5,15500.8L10158.7,15500.8L10158.8,15500.9L10158.9,15501L10159,15501.1L10159,15501.2L10159,15501.3L10159,15501.5L10158.9,15501.6L10158.8,15501.7L10158.7,15501.7L10101.5,15521L10077.8,15468.6L10060.1,15442.6L10060,15442.4L10060,15442.3L10060,15442.2L10060.1,15442L10060.2,15441.9L10060.3,15441.9L10060.4,15441.8L10060.5,15441.8L10060.7,15441.9Z"/>
            </g>
        </g>
        <g transform="matrix(1,0,0,9.50258,9079.47,5855.71)">
            <g transform="matrix(1,0,0,0.105235,-9392.89,-609.172)">
                <path d="M10158.8,15500.7L10188.7,15489.1L10189.1,15489.6L10167.9,15516.5L10154.8,15559.7L10211.9,15508.5L10227.9,15529.9L10250.1,15523.7L10250.3,15523.9L10248.1,15539L10299.8,15575.9L10299.8,15576.1L10242.7,15602.3L10274.4,15642.2L10274.2,15642.6L10188.4,15627.5L10233.7,15674.5L10233.5,15674.9L10114.2,15669.8L10181.5,15710.8L10181.4,15711.4L10107.2,15708.6L10092,15714.7L10091.8,15714.8L10091.6,15714.7L10091.5,15714.6L10091.3,15714.5L10091.3,15714.3L10091.4,15714.1L10091.5,15713.9L10091.6,15713.8L10107,15707.7L10179,15710.3L10111.6,15669.3L10111.8,15668.7L10231.8,15673.8L10186.3,15626.7L10186.5,15626.2L10272.5,15641.4L10241.3,15602L10241.3,15601.9L10298.1,15575.8L10247.1,15539.5L10249.2,15525L10227.5,15531L10211.8,15509.9L10153.7,15562L10153.2,15561.7L10166.5,15517.9L10134.9,15549.9L10134.3,15549.5L10158,15501.3L10141.5,15456.3L10101.8,15521.2L10101.2,15521L10107.1,15437.3L10078.2,15469.1L10077.7,15468.9L10081.9,15427.7L10082,15427.6L10082.1,15427.4L10082.3,15427.3L10082.5,15427.3L10082.6,15427.4L10082.8,15427.5L10082.9,15427.7L10082.9,15427.8L10078.9,15467L10107.7,15435.2L10108.2,15435.4L10102.3,15518.5L10141.5,15454.5L10141.8,15454.5L10158.8,15500.7ZM10136.7,15546.7L10166.9,15516.2L10158.6,15502.3L10136.7,15546.7ZM10159.3,15501.5L10167.5,15515.4L10186.9,15490.8L10159.3,15501.5Z"/>
            </g>
        </g>
        <g transform="matrix(1,0,0,9.50258,9079.47,5855.71)">
            <g transform="matrix(1,0,0,0.105235,-9392.89,-609.172)">
                <path d="M10044.8,15668.1L10044.9,15668.1L10045,15668.2L10045,15668.2L10090.6,15712.5L10079.5,15682.2L10079.5,15682.1L10079.5,15682L10079.5,15681.9L10079.6,15681.8L10079.6,15681.7L10079.7,15681.7L10079.7,15681.6L10079.8,15681.6L10079.9,15681.5L10080,15681.5L10080.1,15681.5L10080.2,15681.6L10080.3,15681.6L10080.3,15681.7L10080.4,15681.8L10080.4,15681.8L10092.5,15714.7L10091.9,15715.1L10044.4,15668.9L10044.3,15668.8L10044.3,15668.8L10044.2,15668.7L10044.2,15668.6L10044.2,15668.5L10044.3,15668.4L10044.3,15668.3L10044.4,15668.2L10044.4,15668.2L10044.5,15668.1L10044.6,15668.1L10044.7,15668.1L10044.8,15668.1Z"/>
            </g>
        </g>
        <g transform="matrix(1,0,0,9.50258,9079.47,5855.71)">
            <g transform="matrix(1,0,0,0.105235,-9392.89,-609.172)">
                <path d="M10046.5,15657.9L10046.6,15657.9L10046.7,15658L10046.7,15658L10080.3,15681.6L10080.3,15681.7L10080.4,15681.7L10080.4,15681.8L10080.4,15681.9L10080.5,15681.9L10080.5,15682L10080.5,15682.1L10080.4,15682.2L10080.4,15682.2L10080.4,15682.3L10080.3,15682.4L10080.2,15682.4L10080.2,15682.4L10080.1,15682.5L10080,15682.5L10079.9,15682.5L10079.9,15682.5L10079.8,15682.4L10079.7,15682.4L10046.2,15658.8L10046.1,15658.7L10046.1,15658.7L10046,15658.6L10046,15658.5L10046,15658.5L10046,15658.4L10046,15658.3L10046,15658.2L10046,15658.2L10046.1,15658.1L10046.1,15658L10046.2,15658L10046.3,15658L10046.4,15657.9L10046.4,15657.9L10046.5,15657.9Z"/>
            </g>
        </g>
        <g transform="matrix(1,0,0,9.50258,9079.47,5855.71)">
            <g transform="matrix(1,0,0,0.105235,-9392.89,-609.172)">
                <path d="M10153,15593.4L10153.1,15593.5L10187.8,15626.8L10187.7,15627L10112.9,15669.5L10107.5,15708.8L10107.2,15708.9L10079.9,15682.6L10079.7,15682.6L10079.6,15682.4L10045.8,15669.5L10065,15701.9L10065.1,15702.1L10065.1,15702.2L10065.1,15702.4L10065,15702.5L10064.9,15702.6L10064.7,15702.6L10064.6,15702.6L10064.4,15702.6L10064.3,15702.5L10064.2,15702.4L10044,15668.3L10044.3,15667.9L10079.1,15681.2L10058.5,15628.8L10058.9,15628.5L10112.5,15668.6L10186.3,15626.7L10152.4,15594.1L10152.3,15594L10152.3,15593.9L10152.3,15593.7L10152.3,15593.6L10152.4,15593.5L10152.5,15593.4L10152.7,15593.3L10152.8,15593.3L10153,15593.4ZM10080.8,15682.2L10106.7,15707.2L10111.8,15669.9L10080.8,15682.2ZM10080.3,15681.4L10111.5,15669.1L10060.2,15630.6L10080.3,15681.4Z"/>
            </g>
        </g>
        <g transform="matrix(1,0,0,9.50258,9079.47,5855.71)">
            <g transform="matrix(1,0,0,0.105235,-9392.89,-609.172)">
                <path d="M10247.6,15538.7L10248,15538.6L10248.3,15539L10248.1,15539.4L10242.5,15601.8L10242.7,15601.9L10242.7,15602.3L10242.4,15602.4L10242.4,15602.7L10241.9,15602.9L10241.8,15602.7L10186.8,15627.5L10186.7,15627.4L10171.5,15571.3L10153.4,15593.7L10153.5,15593.8L10153.3,15594.3L10153,15594.3L10112.6,15669.9L10112.2,15669.9L10086,15593.9L10059.5,15629.5L10046.9,15658.5L10045.2,15668.6L10045.1,15668.8L10045,15669L10044.8,15669L10044.6,15669L10044.5,15669L10044.3,15668.8L10044.2,15668.7L10044.2,15668.5L10046,15658.3L10058.7,15629L10085.6,15592.8L10085.5,15592.5L10085.6,15592.4L10085.9,15592.4L10118,15563.2L10152.7,15593.1L10171,15570.5L10171,15570.5L10171,15570.4L10170.9,15570.3L10171,15570.2L10171.1,15569.8L10171.5,15569.8L10171.7,15569.6L10171.9,15569.6L10227.6,15529.9L10247.6,15538.7ZM10112.5,15668L10152,15594.3L10086.8,15593.4L10112.5,15668ZM10187.4,15626.1L10240.8,15602.1L10172.5,15571.2L10187.4,15626.1ZM10240.8,15601.1L10223.6,15572.1L10174.1,15570.8L10240.8,15601.1ZM10224.4,15571.7L10241.6,15600.6L10247,15540.9L10224.4,15571.7ZM10087.3,15592.4L10151.5,15593.3L10118,15564.4L10087.3,15592.4ZM10174,15569.9L10223.6,15571.2L10246.2,15540.3L10174,15569.9ZM10175.4,15568.3L10246.4,15539.2L10227.7,15531L10175.4,15568.3Z"/>
            </g>
        </g>
        <g transform="matrix(1,0,0,9.50258,9079.47,5855.71)">
            <g transform="matrix(1,0,0,0.105235,-9392.89,-609.172)">
                <path d="M10019.4,15594.9L10019.5,15594.9L10019.6,15595L10019.7,15595L10019.7,15595.1L10019.8,15595.1L10019.8,15595.2L10019.8,15595.3L10027.6,15641.2L10027.6,15641.3L10027.6,15641.4L10027.6,15641.5L10027.5,15641.6L10027.5,15641.6L10027.4,15641.7L10027.3,15641.7L10027.3,15641.8L10027.2,15641.8L10027.1,15641.8L10027,15641.8L10026.9,15641.7L10026.8,15641.7L10026.8,15641.6L10026.7,15641.5L10026.7,15641.5L10026.7,15641.4L10018.9,15595.5L10018.9,15595.4L10018.9,15595.3L10018.9,15595.2L10019,15595.1L10019,15595.1L10019.1,15595L10019.2,15595L10019.3,15594.9L10019.3,15594.9L10019.4,15594.9Z"/>
            </g>
        </g>
        <g transform="matrix(1,0,0,9.50258,9079.47,5855.71)">
            <g transform="matrix(1,0,0,0.105235,-9392.89,-609.172)">
                <path d="M10019.5,15594.9L10019.6,15595L10019.7,15595L10019.8,15595.1L10019.8,15595.2L10046.9,15658L10047,15658.1L10047,15658.2L10046.9,15658.3L10046.9,15658.4L10046.8,15658.5L10046.8,15658.6L10046.7,15658.7L10046.6,15658.7L10046.5,15658.7L10046.4,15658.7L10046.3,15658.6L10046.2,15658.6L10046.1,15658.5L10046.1,15658.4L10018.9,15595.6L10018.9,15595.5L10018.9,15595.4L10018.9,15595.3L10019,15595.2L10019,15595.1L10019.1,15595L10019.2,15594.9L10019.3,15594.9L10019.4,15594.9L10019.5,15594.9Z"/>
            </g>
        </g>
        <g transform="matrix(1,0,0,9.50258,9079.47,5855.71)">
            <g transform="matrix(1,0,0,0.105235,-9392.89,-609.172)">
                <path d="M10001,15571.6L10027.2,15575.5L10027.3,15575.6L10027.3,15575.6L10027.4,15575.6L10027.4,15575.7L10027.5,15575.7L10027.5,15575.8L10027.6,15575.8L10027.6,15575.9L10027.6,15576L10027.6,15576L10027.6,15576.1L10027.6,15576.2L10027.6,15576.2L10027.5,15576.3L10027.5,15576.3L10027.4,15576.4L10027.4,15576.4L10027.3,15576.4L10027.3,15576.5L10027.2,15576.5L10027.1,15576.5L10027.1,15576.5L10000.9,15572.6L10000.8,15572.6L10000.8,15572.5L10000.7,15572.5L10000.7,15572.5L10000.6,15572.4L10000.6,15572.4L10000.5,15572.3L10000.5,15572.2L10000.5,15572.2L10000.5,15572.1L10000.5,15572L10000.5,15572L10000.5,15571.9L10000.6,15571.9L10000.6,15571.8L10000.7,15571.8L10000.7,15571.7L10000.8,15571.7L10000.8,15571.7L10000.9,15571.6L10001,15571.6L10001,15571.6Z"/>
            </g>
        </g>
        <g transform="matrix(1,0,0,9.50258,9079.47,5855.71)">
            <g transform="matrix(1,0,0,0.105235,-9392.89,-609.172)">
                <path d="M9993.91,15499.9L9994.02,15500L9994.12,15500L9994.2,15500.1L9994.26,15500.2L10027.6,15575.8L10027.6,15575.9L10027.6,15576L10027.6,15576.2L10027.5,15576.3L10027.5,15576.4L10027.4,15576.4L10027.3,15576.5L10027.2,15576.5L10027,15576.5L10026.9,15576.4L10026.8,15576.4L10026.8,15576.3L10026.7,15576.2L9993.39,15500.6L9993.35,15500.5L9993.35,15500.4L9993.37,15500.3L9993.42,15500.2L9993.49,15500.1L9993.58,15500L9993.68,15500L9993.8,15499.9L9993.91,15499.9Z"/>
            </g>
        </g>
        <g transform="matrix(1,0,0,9.50258,9079.47,5855.71)">
            <g transform="matrix(1,0,0,0.105235,-9392.89,-609.172)">
                <path d="M10027.2,15575.6L10027.3,15575.6L10027.4,15575.6L10027.5,15575.7L10027.5,15575.8L10059.5,15628.8L10059.5,15628.9L10059.6,15629L10059.6,15629.1L10059.5,15629.2L10059.5,15629.3L10059.4,15629.4L10059.4,15629.4L10059.3,15629.5L10059.2,15629.5L10059.1,15629.5L10059,15629.5L10058.9,15629.5L10058.8,15629.4L10058.7,15629.4L10058.7,15629.3L10026.7,15576.3L10026.7,15576.2L10026.7,15576.1L10026.7,15576L10026.7,15575.9L10026.7,15575.8L10026.8,15575.7L10026.8,15575.6L10026.9,15575.6L10027,15575.6L10027.1,15575.5L10027.2,15575.6Z"/>
            </g>
        </g>
        <g transform="matrix(1,0,0,9.50258,9079.47,5855.71)">
            <g transform="matrix(1,0,0,0.105235,-9392.89,-609.172)">
                <path d="M10077.9,15556.2L10078,15556.2L10078.1,15556.2L10078.1,15556.3L10078.2,15556.3L10078.2,15556.4L10078.3,15556.4L10078.3,15556.5L10078.3,15556.6L10078.3,15556.6L10078.3,15556.7L10078.3,15556.8L10078.3,15556.9L10078.2,15556.9L10078.2,15557L10078.1,15557L10078.1,15557.1L10078,15557.1L10047.9,15567.8L10047.8,15567.8L10047.8,15567.9L10047.7,15567.9L10047.6,15567.8L10047.5,15567.8L10047.5,15567.8L10047.4,15567.7L10047.4,15567.7L10047.3,15567.6L10047.3,15567.5L10047.3,15567.5L10047.3,15567.4L10047.3,15567.3L10047.3,15567.2L10047.3,15567.2L10047.4,15567.1L10047.4,15567.1L10047.5,15567L10047.5,15567L10047.6,15566.9L10077.7,15556.2L10077.8,15556.2L10077.8,15556.2L10077.9,15556.2Z"/>
            </g>
        </g>
        <g transform="matrix(1,0,0,9.50258,9079.47,5855.71)">
            <g transform="matrix(1,0,0,0.105235,-9392.89,-609.172)">
                <path d="M9993.97,15500L10017,15507.6L10027.4,15574.3L10037.6,15551.2L10037.9,15551.2L10048.1,15567L10084.9,15591.6L10077.4,15556.7L10077.4,15556.6L10077.4,15556.5L10077.5,15556.3L10077.6,15556.2L10077.8,15556.2L10077.9,15556.2L10078,15556.2L10078.2,15556.3L10078.3,15556.4L10078.3,15556.5L10086.2,15593.1L10085.8,15593.4L10048.4,15568.4L10059.7,15629.5L10059.2,15629.8L10018.8,15595.5L10026.6,15576L10016.1,15508.3L9993.67,15500.9L9993.54,15500.8L9993.43,15500.7L9993.37,15500.5L9993.35,15500.4L9993.37,15500.3L9993.44,15500.1L9993.54,15500L9993.68,15500L9993.82,15499.9L9993.97,15500ZM10027.5,15576.4L10019.9,15595.2L10058.4,15627.8L10047.4,15568L10027.5,15576.4ZM10028.1,15575.1L10047,15567.2L10037.9,15552.9L10028.1,15575.1Z"/>
            </g>
        </g>
        <g transform="matrix(1,0,0,9.50258,9079.47,5855.71)">
            <g transform="matrix(1,0,0,0.105235,-9392.89,-609.172)">
                <path d="M9849.36,15491.9L9849.45,15491.9L9849.53,15492L9849.6,15492L9849.66,15492.1L9849.69,15492.2L9864.11,15547.7L9864.12,15547.8L9864.12,15547.9L9864.09,15548L9864.05,15548L9863.98,15548.1L9863.9,15548.2L9863.82,15548.2L9863.72,15548.3L9863.62,15548.3L9863.52,15548.2L9863.43,15548.2L9863.35,15548.1L9863.28,15548.1L9863.22,15548L9863.19,15547.9L9848.77,15492.5L9848.76,15492.4L9848.76,15492.3L9848.79,15492.2L9848.83,15492.1L9848.9,15492L9848.98,15491.9L9849.06,15491.9L9849.16,15491.9L9849.26,15491.9L9849.36,15491.9Z"/>
            </g>
        </g>
        <g transform="matrix(1,0,0,9.50258,9079.47,5855.71)">
            <g transform="matrix(1,0,0,0.105235,-9392.89,-609.172)">
                <path d="M9877.8,15514.2L9877.89,15514.2L9877.97,15514.3L9878.03,15514.3L9878.09,15514.4L9878.13,15514.5L9878.16,15514.6L9888.73,15556.6L9888.74,15556.7L9888.74,15556.8L9888.72,15556.9L9888.69,15556.9L9888.64,15557L9888.58,15557.1L9888.51,15557.1L9888.43,15557.2L9888.34,15557.2L9888.26,15557.2L9888.17,15557.2L9888.09,15557.1L9888.01,15557.1L9887.94,15557.1L9887.88,15557L9887.84,15556.9L9887.81,15556.8L9877.24,15514.8L9877.23,15514.7L9877.23,15514.6L9877.25,15514.5L9877.28,15514.4L9877.33,15514.4L9877.39,15514.3L9877.47,15514.3L9877.54,15514.2L9877.63,15514.2L9877.72,15514.2L9877.8,15514.2Z"/>
            </g>
        </g>
        <g transform="matrix(1,0,0,9.50258,9079.47,5855.71)">
            <g transform="matrix(1,0,0,0.105235,-9392.89,-609.172)">
                <path d="M9900.94,15486.8L9901.04,15486.9L9901.12,15486.9L9901.19,15487L9901.24,15487.1L9901.27,15487.2L9910.68,15553.3L9910.68,15553.4L9910.66,15553.5L9910.62,15553.6L9910.56,15553.7L9910.48,15553.8L9910.38,15553.8L9910.28,15553.9L9910.17,15553.9L9910.07,15553.9L9909.97,15553.8L9909.88,15553.7L9909.82,15553.7L9909.77,15553.6L9909.74,15553.5L9900.33,15487.4L9900.32,15487.2L9900.34,15487.1L9900.39,15487L9900.45,15487L9900.53,15486.9L9900.63,15486.8L9900.73,15486.8L9900.84,15486.8L9900.94,15486.8Z"/>
            </g>
        </g>
        <g transform="matrix(1,0,0,9.50258,9079.47,5855.71)">
            <g transform="matrix(1,0,0,0.105235,-9392.89,-609.172)">
                <path d="M9951.97,15530.2L9952.04,15530.3L9952.11,15530.3L9952.18,15530.3L9952.23,15530.4L9952.28,15530.5L9973.86,15566.1L9973.89,15566.2L9973.92,15566.3L9973.93,15566.3L9973.92,15566.4L9973.91,15566.5L9973.88,15566.6L9973.84,15566.6L9973.79,15566.7L9973.73,15566.7L9973.66,15566.8L9973.59,15566.8L9973.51,15566.8L9973.44,15566.8L9973.36,15566.8L9973.28,15566.8L9973.21,15566.8L9973.15,15566.7L9973.09,15566.7L9973.05,15566.6L9951.47,15530.9L9951.43,15530.9L9951.41,15530.8L9951.4,15530.7L9951.4,15530.6L9951.42,15530.6L9951.44,15530.5L9951.48,15530.4L9951.53,15530.4L9951.59,15530.3L9951.66,15530.3L9951.73,15530.2L9951.81,15530.2L9951.89,15530.2L9951.97,15530.2Z"/>
            </g>
        </g>
        <g transform="matrix(1,0,0,9.50258,9079.47,5855.71)">
            <g transform="matrix(1,0,0,0.105235,-9392.89,-609.172)">
                <path d="M9944.63,15480.6L9944.74,15480.7L9944.83,15480.8L9944.89,15480.9L9944.93,15481L9952.36,15530.8L9934.58,15568L9934.51,15568.1L9934.42,15568.2L9934.31,15568.2L9934.19,15568.3L9934.06,15568.2L9933.95,15568.2L9933.84,15568.1L9933.76,15568L9933.7,15567.9L9933.68,15567.8L9933.68,15567.7L9933.72,15567.6L9951.38,15530.6L9943.99,15481.1L9943.99,15481L9944.01,15480.9L9944.08,15480.8L9944.16,15480.7L9944.27,15480.6L9944.39,15480.6L9944.51,15480.6L9944.63,15480.6Z"/>
            </g>
        </g>
        <g transform="matrix(1,0,0,9.50258,9079.47,5855.71)">
            <g transform="matrix(1,0,0,0.105235,-9392.89,-609.172)">
                <path d="M9944.52,15480.6L9944.59,15480.6L9965.47,15486.5L9965.53,15486.5L9965.58,15486.6L9965.63,15486.6L9965.68,15486.6L9965.72,15486.7L9965.75,15486.7L9965.78,15486.8L9965.8,15486.9L9965.81,15486.9L9965.81,15487L9965.81,15487L9965.8,15487.1L9965.77,15487.2L9965.75,15487.2L9965.71,15487.3L9965.67,15487.3L9965.62,15487.4L9965.57,15487.4L9965.51,15487.4L9965.45,15487.4L9965.39,15487.4L9965.33,15487.4L9965.27,15487.4L9965.21,15487.4L9944.33,15481.5L9944.27,15481.5L9944.21,15481.5L9944.16,15481.4L9944.12,15481.4L9944.08,15481.4L9944.04,15481.3L9944.01,15481.3L9944,15481.2L9943.99,15481.1L9943.98,15481.1L9943.99,15481L9944,15480.9L9944.02,15480.9L9944.05,15480.8L9944.08,15480.8L9944.13,15480.7L9944.17,15480.7L9944.23,15480.7L9944.28,15480.6L9944.34,15480.6L9944.4,15480.6L9944.46,15480.6L9944.52,15480.6Z"/>
            </g>
        </g>
        <g transform="matrix(1,0,0,9.50258,9079.47,5855.71)">
            <g transform="matrix(1,0,0,0.105235,-9392.89,-609.172)">
                <path d="M9960.77,15427.7L9945,15482.6L9943.34,15482.3L9951.07,15423.5L9951.29,15423.4L9960.77,15427.7ZM9944.46,15481.1L9959.64,15428.2L9951.87,15424.7L9944.46,15481.1Z"/>
            </g>
        </g>
        <g transform="matrix(1,0,0,9.50258,9079.47,5855.71)">
            <g transform="matrix(1,0,0,0.105235,-9392.89,-609.172)">
                <path d="M9953.82,15367L9953.92,15367L9954.01,15367.1L9954.09,15367.2L9954.15,15367.2L9954.2,15367.3L9954.22,15367.4L9954.23,15367.5L9952.44,15421.7L9961.94,15395.7L9961.99,15395.6L9962.05,15395.5L9962.13,15395.4L9962.21,15395.4L9962.31,15395.4L9962.41,15395.3L9962.51,15395.4L9962.6,15395.4L9962.68,15395.4L9962.76,15395.5L9962.81,15395.6L9962.85,15395.7L9962.86,15395.8L9962.86,15395.9L9962.84,15396L9952.1,15425.4L9951.38,15425.3L9953.28,15367.5L9953.3,15367.4L9953.33,15367.3L9953.38,15367.2L9953.45,15367.1L9953.53,15367.1L9953.62,15367L9953.72,15367L9953.82,15367Z"/>
            </g>
        </g>
        <g transform="matrix(1,0,0,9.50258,9079.47,5855.71)">
            <g transform="matrix(1,0,0,0.105235,-9392.89,-609.172)">
                <path d="M10003.4,15395.2L10003.5,15395.2L10003.6,15395.3L10003.7,15395.4L10003.7,15395.6L10006.2,15417L10028.1,15433.1L10028.1,15433.1L9999.74,15457.8L10020,15490.1L10020,15490.1L9993.76,15501L9967.83,15539L9967.73,15539.1L9967.6,15539.2L9967.45,15539.2L9967.31,15539.2L9967.17,15539.1L9967.06,15539L9966.99,15538.9L9966.97,15538.7L9966.98,15538.6L9967.05,15538.5L9993.14,15500.3L10018.6,15489.7L9998.51,15457.6L10026.6,15433.2L10005.3,15417.5L10002.8,15395.7L10002.8,15395.5L10002.8,15395.4L10002.9,15395.3L10003.1,15395.2L10003.2,15395.2L10003.4,15395.2Z"/>
            </g>
        </g>
        <g transform="matrix(1,0,0,9.50258,9079.47,5855.71)">
            <g transform="matrix(1,0,0,0.105235,-9392.89,-609.172)">
                <path d="M9953.95,15367.1L9954.08,15367.1L9982.47,15393.2L9989.43,15403.8L10003.5,15394.9L10003.9,15395.2L9993.88,15428.5L10005.8,15416.5L10006.3,15416.7L9999.59,15457.8L9993.84,15501.3L9993.13,15501.4L9985.44,15468.3L9992.31,15430.7L9992.25,15430.7L9992.42,15430.1L9992.52,15429.5L9992.59,15429.5L10002.4,15396.7L9989.15,15405.1L9981.74,15393.8L9953.43,15367.8L9953.34,15367.7L9953.29,15367.6L9953.28,15367.4L9953.32,15367.3L9953.41,15367.2L9953.52,15367.1L9953.66,15367L9953.81,15367L9953.95,15367.1ZM9986.45,15468.5L9993.32,15498L9998.5,15458.8L9986.45,15468.5ZM9986.62,15467.1L9998.59,15457.5L9992.93,15432.6L9986.62,15467.1ZM9993.4,15430.4L9999.05,15455.2L10005.1,15418.6L9993.4,15430.4Z"/>
            </g>
        </g>
        <g transform="matrix(1,0,0,9.50258,9079.47,5855.71)">
            <g transform="matrix(1,0,0,0.105235,-9392.89,-609.172)">
                <path d="M9986.02,15338.1L9986.09,15338.1L9986.16,15338.1L9986.22,15338.2L9986.27,15338.2L9986.32,15338.3L9986.35,15338.3L9986.38,15338.4L9986.39,15338.5L9986.4,15338.6L9986.39,15338.6L9986.36,15338.7L9986.33,15338.8L9986.29,15338.8L9986.24,15338.9L9954.07,15367.8L9954.01,15367.9L9953.95,15367.9L9953.88,15368L9953.81,15368L9953.73,15368L9953.66,15368L9953.59,15367.9L9953.52,15367.9L9953.46,15367.9L9953.4,15367.8L9953.36,15367.8L9953.32,15367.7L9953.3,15367.6L9953.28,15367.5L9953.28,15367.5L9953.29,15367.4L9953.31,15367.3L9953.34,15367.3L9953.39,15367.2L9953.44,15367.1L9985.6,15338.2L9985.66,15338.1L9985.73,15338.1L9985.8,15338.1L9985.87,15338.1L9985.95,15338.1L9986.02,15338.1Z"/>
            </g>
        </g>
        <g transform="matrix(1,0,0,9.50258,9079.47,5855.71)">
            <g transform="matrix(1,0,0,0.105235,-9392.89,-609.172)">
                <path d="M9965.37,15323.7L9965.43,15323.7L9965.48,15323.7L9965.53,15323.7L9965.58,15323.7L9965.63,15323.8L9965.67,15323.8L9965.71,15323.9L9965.74,15323.9L9965.77,15323.9L9965.79,15324L9965.8,15324.1L9965.81,15324.1L9965.81,15324.2L9965.81,15324.2L9965.8,15324.3L9965.78,15324.3L9965.76,15324.4L9965.73,15324.4L9965.7,15324.5L9951.78,15340.6L9951.74,15340.6L9951.7,15340.7L9951.65,15340.7L9951.6,15340.7L9951.55,15340.7L9951.5,15340.7L9951.44,15340.7L9951.39,15340.7L9951.33,15340.7L9951.28,15340.7L9951.23,15340.7L9951.18,15340.7L9951.13,15340.6L9951.09,15340.6L9951.05,15340.6L9951.02,15340.5L9950.99,15340.5L9950.97,15340.4L9950.96,15340.4L9950.95,15340.3L9950.95,15340.3L9950.95,15340.2L9950.96,15340.2L9950.98,15340.1L9951,15340L9951.03,15340L9951.06,15340L9964.98,15323.8L9965.02,15323.8L9965.06,15323.8L9965.11,15323.7L9965.16,15323.7L9965.21,15323.7L9965.26,15323.7L9965.32,15323.7L9965.37,15323.7Z"/>
            </g>
        </g>
        <g transform="matrix(1,0,0,9.50258,9079.47,5855.71)">
            <g transform="matrix(1,0,0,0.105235,-9392.89,-609.172)">
                <path d="M9951.49,15339.8L9951.56,15339.8L9951.62,15339.8L9951.68,15339.9L9951.74,15339.9L9951.79,15340L9951.83,15340L9951.86,15340.1L9951.88,15340.2L9951.89,15340.2L9954.23,15367.5L9954.23,15367.5L9954.22,15367.6L9954.2,15367.7L9954.17,15367.7L9954.13,15367.8L9954.08,15367.8L9954.03,15367.9L9953.97,15367.9L9953.9,15367.9L9953.83,15368L9953.76,15368L9953.69,15368L9953.62,15368L9953.55,15367.9L9953.49,15367.9L9953.44,15367.8L9953.39,15367.8L9953.35,15367.7L9953.32,15367.7L9953.29,15367.6L9953.28,15367.5L9950.95,15340.3L9950.95,15340.2L9950.96,15340.2L9950.98,15340.1L9951.01,15340L9951.05,15340L9951.09,15339.9L9951.15,15339.9L9951.21,15339.8L9951.28,15339.8L9951.34,15339.8L9951.42,15339.8L9951.49,15339.8Z"/>
            </g>
        </g>
        <g transform="matrix(1,0,0,9.50258,9079.47,5855.71)">
            <g transform="matrix(1,0,0,0.105235,-9392.89,-609.172)">
                <path d="M9979.63,15399.6L9979.72,15399.6L9979.79,15399.6L9979.86,15399.7L9979.92,15399.8L9979.97,15399.8L9980,15399.9L9980.01,15400L9980.01,15400.1L9975.06,15445L9975.04,15445.1L9975.01,15445.2L9974.96,15445.3L9974.9,15445.4L9974.83,15445.4L9974.75,15445.4L9974.67,15445.5L9974.58,15445.5L9974.49,15445.5L9974.41,15445.4L9974.33,15445.4L9974.26,15445.3L9974.2,15445.3L9974.16,15445.2L9974.13,15445.1L9974.11,15445L9974.11,15444.9L9979.06,15400L9979.08,15399.9L9979.11,15399.8L9979.16,15399.7L9979.22,15399.7L9979.29,15399.6L9979.37,15399.6L9979.46,15399.6L9979.55,15399.6L9979.63,15399.6Z"/>
            </g>
        </g>
        <g transform="matrix(1,0,0,9.50258,9079.47,5855.71)">
            <g transform="matrix(1,0,0,0.105235,-9392.89,-609.172)">
                <path d="M9993.38,15392.6L9989.75,15404.4L9993.49,15430.8L9975.19,15445.1L9987.22,15468.8L9966.2,15486.9L9994.2,15500.3L10001.5,15571.7L10019.9,15595.3L10006.7,15622.5L10047.2,15658.4L10047,15659L10016.7,15654.8L10045.2,15668.3L10044,15686.1L10043.6,15686.3L10013.5,15654.4L9968.61,15648.2L9968.44,15648.1L9968.3,15648L9968.22,15647.8L9968.21,15647.6L9968.27,15647.4L9968.39,15647.3L9968.56,15647.2L9968.75,15647.2L10013.8,15653.5L10045,15657.7L10005.5,15622.8L10018.7,15595.4L10000.5,15572.1L9993.31,15500.9L9964.65,15487.2L9964.62,15487L9986.04,15468.5L9973.99,15444.9L9974.19,15444.7L9988.66,15404.6L9978.92,15400.3L9981.88,15393.1L9993.27,15392.5L9993.38,15392.6ZM10043.2,15684.4L10044.2,15668.9L10015.8,15655.4L10043.2,15684.4ZM9975.6,15443.6L9992.47,15430.3L9989.06,15406.3L9975.6,15443.6ZM9982.53,15394L9980.15,15399.8L9988.97,15403.7L9992.11,15393.5L9982.53,15394Z"/>
            </g>
        </g>
        <g transform="matrix(1,0,0,9.50258,9079.47,5855.71)">
            <g transform="matrix(1,0,0,0.105235,-9392.89,-609.172)">
                <path d="M9963.94,15598L9964.04,15598.1L9964.13,15598.1L9964.2,15598.2L9964.26,15598.3L9964.3,15598.3L9964.32,15598.4L9964.33,15598.5L9964.31,15598.6L9964.27,15598.7L9964.21,15598.8L9964.14,15598.9L9964.05,15598.9L9963.96,15599L9963.86,15599L9939.9,15599.3L9981.7,15637.9L9981.36,15638.5L9921.99,15618.8L9921.9,15618.8L9921.82,15618.7L9921.75,15618.6L9921.7,15618.5L9921.68,15618.4L9921.67,15618.3L9921.68,15618.2L9921.71,15618.1L9921.76,15618.1L9921.82,15618L9921.91,15617.9L9922,15617.9L9922.09,15617.9L9922.19,15617.9L9922.29,15617.9L9978.98,15636.7L9937.96,15598.8L9938.12,15598.4L9963.84,15598L9963.94,15598Z"/>
            </g>
        </g>
        <g transform="matrix(1,0,0,9.50258,9079.47,5855.71)">
            <g transform="matrix(1,0,0,0.105235,-9392.89,-609.172)">
                <path d="M9953.98,15367.1L9954.12,15367.2L9954.21,15367.4L9962.87,15395.8L9960.11,15428.2L9965.81,15486.9L9967.91,15538.5L10001,15571.2L10001,15571.2L10001.4,15571.3L10001.5,15571.7L10001.8,15572L10001.5,15572.4L10006.5,15622.4L10006.8,15622.7L10006.7,15623L10006.7,15623L10014.3,15654.4L10014,15654.6L9980.32,15638L9984.7,15627L10005.1,15622.4L9980.49,15598.7L9972.52,15566L9972.67,15565.9L9999.55,15571.1L9966.97,15538.9L9964.86,15487L9959.16,15428.2L9961.91,15395.9L9953.3,15367.6L9953.28,15367.4L9953.34,15367.3L9953.45,15367.1L9953.62,15367L9953.8,15367L9953.98,15367.1ZM9985.4,15627.8L9981.52,15637.6L10013,15653.1L10005.7,15623.2L9985.4,15627.8ZM9981.55,15598.4L10005.5,15621.4L10000.7,15573.2L9981.55,15598.4ZM9981.14,15597.4L10000.2,15572.2L9973.75,15567.1L9981.14,15597.4Z"/>
            </g>
        </g>
        <g transform="matrix(1,0,0,9.50258,9079.47,5855.71)">
            <g transform="matrix(1,0,0,0.105235,-9392.89,-609.172)">
                <path d="M9965.46,15323.7L9965.63,15323.8L9965.75,15323.9L9965.81,15324.1L9965.8,15324.3L9954.38,15367L9996.73,15366.8L9996.87,15367L9982.51,15394L9965.09,15396L9980.17,15399.7L9980.24,15399.9L9960.24,15428.2L9975.1,15444.9L9965.8,15487.1L9952.44,15530.5L9967.86,15538.4L9973.6,15566.5L9964.48,15598L9981.33,15598L9985.61,15627.9L9985.03,15628.2L9965.98,15602.2L9981.5,15638L9968.98,15648.1L9968.82,15648.1L9968.63,15648.2L9968.45,15648.1L9968.31,15648L9968.23,15647.8L9968.21,15647.6L9968.26,15647.5L9968.38,15647.3L9980.34,15637.7L9963.54,15599L9963.32,15599L9963.25,15598.9L9963.35,15598.5L9963.15,15598.1L9963.54,15597.9L9972.62,15566.4L9967.02,15539L9951.3,15530.9L9964.88,15486.8L9974.07,15445.1L9959.03,15428.2L9978.75,15400.3L9961.66,15396.1L9961.7,15395.4L9981.91,15393.1L9995.4,15367.8L9953.23,15368L9953.16,15367.9L9964.88,15324L9964.96,15323.9L9965.1,15323.7L9965.28,15323.7L9965.46,15323.7ZM9980.51,15599L9964.79,15599L9984.32,15625.6L9980.51,15599Z"/>
            </g>
        </g>
        <g transform="matrix(1,0,0,9.50258,9079.47,5855.71)">
            <g transform="matrix(1,0,0,0.105235,-9392.89,-609.172)">
                <path d="M9942.95,15329.2L9943.09,15329.3L9951.96,15340.2L9936.74,15380.1L9953.94,15366.8L9954.4,15367.1L9932.19,15431.4L9951.7,15424.1L9952.01,15424.4L9926.79,15477L9944.69,15481L9944.76,15481.2L9928.42,15506.2L9952.31,15530.5L9964.43,15599L9963.93,15599.3L9933.81,15568.1L9933.71,15568L9933.68,15567.8L9933.71,15567.6L9933.82,15567.4L9933.98,15567.3L9934.16,15567.3L9934.34,15567.3L9934.49,15567.4L9963.11,15597.1L9951.43,15530.9L9927.21,15506.3L9943.29,15481.7L9925.48,15477.6L9925.44,15477.6L9950.39,15425.6L9931.05,15432.9L9930.78,15432.6L9952.79,15368.8L9935.51,15382.2L9935.04,15381.9L9950.88,15340.4L9942.35,15329.9L9942.27,15329.7L9942.25,15329.5L9942.31,15329.3L9942.42,15329.2L9942.59,15329.1L9942.77,15329.1L9942.95,15329.2Z"/>
            </g>
        </g>
        <g transform="matrix(1,0,0,9.50258,9079.47,5855.71)">
            <g transform="matrix(1,0,0,0.105235,-9392.89,-609.172)">
                <path d="M9939.86,15599L9922.17,15619.8L9922.11,15619.8L9895.59,15588.7L9909.58,15551.9L9910.28,15551.9L9939.86,15599ZM9896.68,15588.5L9922.14,15618.3L9938.69,15598.9L9910.07,15553.3L9896.68,15588.5Z"/>
            </g>
        </g>
        <g transform="matrix(1,0,0,9.50258,9079.47,5855.71)">
            <g transform="matrix(1,0,0,0.105235,-9392.89,-609.172)">
                <path d="M9910.13,15552.9L9910.2,15552.9L9910.26,15552.9L9910.32,15552.9L9934.4,15567.4L9934.45,15567.4L9934.5,15567.5L9934.54,15567.5L9934.57,15567.6L9934.6,15567.6L9934.61,15567.7L9934.62,15567.7L9934.62,15567.8L9934.62,15567.9L9934.6,15567.9L9934.57,15568L9934.54,15568.1L9934.5,15568.1L9934.45,15568.1L9934.4,15568.2L9934.34,15568.2L9934.28,15568.2L9934.22,15568.2L9934.15,15568.3L9934.09,15568.3L9934.02,15568.2L9933.96,15568.2L9933.91,15568.2L9909.83,15553.7L9909.77,15553.7L9909.73,15553.7L9909.69,15553.6L9909.65,15553.6L9909.63,15553.5L9909.61,15553.4L9909.6,15553.4L9909.6,15553.3L9909.61,15553.2L9909.62,15553.2L9909.65,15553.1L9909.68,15553.1L9909.72,15553L9909.77,15553L9909.82,15552.9L9909.88,15552.9L9909.94,15552.9L9910.01,15552.9L9910.07,15552.9L9910.13,15552.9Z"/>
            </g>
        </g>
        <g transform="matrix(1,0,0,9.50258,9079.47,5855.71)">
            <g transform="matrix(1,0,0,0.105235,-9392.89,-609.172)">
                <path d="M9871.43,15461.1L9917.26,15478.2L9910.86,15549.9L9927.59,15505.5L9928.22,15505.6L9934.62,15567.7L9939.23,15599.4L9939.09,15599.5L9896.87,15589L9888.24,15600.2L9888.13,15600.3L9887.99,15600.3L9887.84,15600.3L9887.7,15600.3L9887.57,15600.2L9887.47,15600.1L9887.4,15600L9887.39,15599.8L9887.41,15599.7L9887.48,15599.6L9895.6,15589.1L9879.07,15591.3L9878.95,15591.1L9887.98,15556L9888.59,15556L9897.04,15588L9897.19,15587.9L9897.31,15588.2L9938.11,15598.3L9933.68,15567.8L9927.55,15508.3L9910.29,15554.1L9909.54,15553.9L9916.25,15478.8L9871.1,15462L9870.97,15461.9L9870.87,15461.8L9870.81,15461.7L9870.79,15461.5L9870.82,15461.4L9870.89,15461.2L9871,15461.1L9871.14,15461.1L9871.29,15461.1L9871.43,15461.1ZM9880.18,15590.1L9896.09,15588.1L9888.29,15558.6L9880.18,15590.1Z"/>
            </g>
        </g>
        <g transform="matrix(1,0,0,9.50258,9079.47,5855.71)">
            <g transform="matrix(1,0,0,0.105235,-9392.89,-609.172)">
                <path d="M9871.31,15461.1L9871.39,15461.1L9871.45,15461.1L9871.52,15461.1L9871.58,15461.2L9901.13,15487.3L9901.18,15487.3L9901.22,15487.4L9901.25,15487.5L9901.27,15487.5L9901.28,15487.6L9901.28,15487.7L9901.27,15487.7L9901.25,15487.8L9901.21,15487.9L9901.17,15487.9L9901.11,15488L9901.05,15488L9900.99,15488.1L9900.91,15488.1L9900.84,15488.1L9900.76,15488.1L9900.69,15488.1L9900.62,15488.1L9900.56,15488L9900.5,15488L9870.95,15461.9L9870.9,15461.8L9870.86,15461.8L9870.82,15461.7L9870.8,15461.6L9870.79,15461.6L9870.79,15461.5L9870.81,15461.4L9870.83,15461.3L9870.86,15461.3L9870.91,15461.2L9870.96,15461.2L9871.02,15461.1L9871.09,15461.1L9871.16,15461.1L9871.24,15461.1L9871.31,15461.1Z"/>
            </g>
        </g>
        <g transform="matrix(1,0,0,9.50258,9079.47,5855.71)">
            <g transform="matrix(1,0,0,0.105235,-9392.89,-609.172)">
                <path d="M9843.23,15444.7L9849.4,15491.4L9871.22,15460.8L9871.67,15460.9L9878.17,15514.6L9878.18,15514.7L9878.15,15514.8L9878.11,15514.9L9878.04,15515L9877.96,15515.1L9877.86,15515.1L9877.76,15515.1L9877.65,15515.1L9877.55,15515.1L9877.45,15515.1L9877.37,15515L9877.3,15514.9L9877.26,15514.8L9877.23,15514.7L9870.94,15462.8L9849.14,15493.4L9848.69,15493.3L9842.66,15447.6L9833.64,15477L9833.6,15477.1L9833.54,15477.2L9833.46,15477.3L9833.36,15477.3L9833.26,15477.4L9833.15,15477.4L9833.05,15477.4L9832.95,15477.3L9832.86,15477.3L9832.8,15477.2L9832.75,15477.1L9832.72,15477L9832.71,15476.9L9832.73,15476.8L9842.57,15444.6L9843.23,15444.7Z"/>
            </g>
        </g>
        <g transform="matrix(1,0,0,9.50258,9079.47,5855.71)">
            <g transform="matrix(1,0,0,0.105235,-9392.89,-609.172)">
                <path d="M9805.55,15424.1L9805.63,15424.1L9805.71,15424.2L9805.78,15424.2L9805.83,15424.3L9805.87,15424.4L9805.9,15424.4L9805.91,15424.5L9805.9,15424.6L9805.88,15424.7L9805.84,15424.8L9805.79,15424.9L9805.73,15424.9L9781.35,15444.3L9789.05,15467.2L9789.07,15467.3L9789.07,15467.4L9789.06,15467.5L9789.03,15467.5L9788.99,15467.6L9788.93,15467.7L9788.86,15467.7L9788.79,15467.8L9788.7,15467.8L9788.62,15467.8L9788.53,15467.8L9788.44,15467.8L9788.36,15467.8L9788.29,15467.7L9788.23,15467.7L9788.18,15467.6L9788.14,15467.5L9780.24,15444L9805.14,15424.2L9805.21,15424.1L9805.29,15424.1L9805.38,15424.1L9805.47,15424.1L9805.55,15424.1Z"/>
            </g>
        </g>
        <g transform="matrix(1,0,0,9.50258,9079.47,5855.71)">
            <g transform="matrix(1,0,0,0.105235,-9392.89,-609.172)">
                <path d="M9784.49,15424.1L9784.55,15424.1L9784.61,15424.1L9784.66,15424.1L9784.71,15424.2L9784.76,15424.2L9784.8,15424.2L9784.84,15424.3L9784.86,15424.3L9784.89,15424.4L9784.9,15424.5L9784.91,15424.5L9784.91,15424.6L9784.9,15424.6L9781.26,15444.2L9781.25,15444.3L9781.23,15444.3L9781.2,15444.4L9781.17,15444.4L9781.13,15444.5L9781.08,15444.5L9781.03,15444.5L9780.98,15444.6L9780.92,15444.6L9780.86,15444.6L9780.8,15444.6L9780.74,15444.6L9780.68,15444.6L9780.63,15444.6L9780.57,15444.5L9780.52,15444.5L9780.47,15444.5L9780.43,15444.4L9780.4,15444.4L9780.37,15444.3L9780.35,15444.3L9780.33,15444.2L9780.32,15444.2L9780.32,15444.1L9780.33,15444L9783.97,15424.5L9783.98,15424.4L9784,15424.3L9784.03,15424.3L9784.07,15424.2L9784.11,15424.2L9784.15,15424.2L9784.2,15424.1L9784.26,15424.1L9784.32,15424.1L9784.37,15424.1L9784.43,15424.1L9784.49,15424.1Z"/>
            </g>
        </g>
        <g transform="matrix(1,0,0,9.50258,9079.47,5855.71)">
            <g transform="matrix(1,0,0,0.105235,-9392.89,-609.172)">
                <path d="M9787.7,15447.8L9787.76,15447.8L9787.81,15447.8L9787.87,15447.8L9787.92,15447.9L9807.86,15463.1L9807.9,15463.2L9807.94,15463.2L9807.98,15463.3L9808,15463.3L9808.02,15463.4L9808.04,15463.4L9808.04,15463.5L9808.04,15463.6L9808.03,15463.6L9808.02,15463.7L9807.99,15463.7L9807.96,15463.8L9807.93,15463.8L9807.88,15463.9L9807.84,15463.9L9807.79,15463.9L9807.73,15464L9807.67,15464L9807.62,15464L9807.56,15464L9807.5,15464L9807.44,15464L9807.38,15464L9807.33,15463.9L9807.28,15463.9L9787.34,15448.6L9787.29,15448.6L9787.25,15448.5L9787.22,15448.5L9787.19,15448.4L9787.17,15448.4L9787.16,15448.3L9787.15,15448.3L9787.15,15448.2L9787.16,15448.2L9787.18,15448.1L9787.2,15448L9787.23,15448L9787.27,15447.9L9787.31,15447.9L9787.36,15447.9L9787.41,15447.8L9787.46,15447.8L9787.52,15447.8L9787.58,15447.8L9787.64,15447.8L9787.7,15447.8Z"/>
            </g>
        </g>
        <g transform="matrix(1,0,0,9.50258,9079.47,5855.71)">
            <g transform="matrix(1,0,0,0.105235,-9392.89,-609.172)">
                <path d="M9807.66,15463.1L9807.73,15463.1L9807.79,15463.1L9833.41,15476.5L9833.47,15476.5L9833.52,15476.6L9833.56,15476.6L9833.6,15476.7L9833.63,15476.7L9833.65,15476.8L9833.66,15476.9L9833.66,15476.9L9833.65,15477L9833.64,15477.1L9833.61,15477.1L9833.57,15477.2L9833.53,15477.2L9833.48,15477.3L9833.42,15477.3L9833.36,15477.3L9833.3,15477.4L9833.23,15477.4L9833.16,15477.4L9833.1,15477.4L9833.03,15477.4L9832.97,15477.3L9807.35,15463.9L9807.29,15463.9L9807.24,15463.9L9807.19,15463.8L9807.16,15463.8L9807.13,15463.7L9807.11,15463.6L9807.09,15463.6L9807.09,15463.5L9807.1,15463.4L9807.12,15463.4L9807.15,15463.3L9807.18,15463.2L9807.23,15463.2L9807.28,15463.1L9807.33,15463.1L9807.39,15463.1L9807.46,15463.1L9807.53,15463.1L9807.59,15463.1L9807.66,15463.1Z"/>
            </g>
        </g>
        <g transform="matrix(1,0,0,9.50258,9079.47,5855.71)">
            <g transform="matrix(1,0,0,0.105235,-9392.89,-609.172)">
                <path d="M9807.64,15463.1L9807.7,15463.1L9807.76,15463.1L9807.82,15463.1L9807.87,15463.2L9807.91,15463.2L9807.95,15463.2L9823.27,15484.3L9823.3,15484.3L9823.33,15484.4L9823.35,15484.4L9823.36,15484.5L9823.36,15484.6L9823.35,15484.6L9823.34,15484.7L9823.32,15484.8L9823.29,15484.8L9823.26,15484.9L9823.21,15484.9L9823.17,15484.9L9823.11,15485L9823.06,15485L9823,15485L9822.93,15485L9822.87,15485L9822.81,15485L9822.75,15485L9822.69,15485L9822.64,15485L9822.59,15484.9L9822.54,15484.9L9822.5,15484.8L9807.18,15463.8L9807.15,15463.8L9807.13,15463.7L9807.11,15463.6L9807.1,15463.6L9807.09,15463.5L9807.1,15463.5L9807.11,15463.4L9807.13,15463.3L9807.16,15463.3L9807.2,15463.2L9807.24,15463.2L9807.29,15463.1L9807.34,15463.1L9807.4,15463.1L9807.46,15463.1L9807.52,15463.1L9807.58,15463.1L9807.64,15463.1Z"/>
            </g>
        </g>
        <g transform="matrix(1,0,0,9.50258,9079.47,5855.71)">
            <g transform="matrix(1,0,0,0.105235,-9392.89,-609.172)">
                <path d="M9787.76,15447.8L9787.89,15447.9L9787.99,15447.9L9788.06,15448.1L9800.1,15474.7L9807.48,15462.8L9808.02,15462.9L9808.81,15487.2L9822.26,15484.2L9822.22,15484.1L9822.93,15483.7L9823.01,15483.9L9833.33,15476.2L9833.41,15476.2L9864.35,15548.2L9863.61,15548.6L9824.59,15488.1L9834.63,15517.4L9834.66,15517.6L9834.65,15517.7L9834.6,15517.8L9834.51,15517.9L9834.4,15518L9834.27,15518.1L9834.14,15518.1L9834.01,15518L9833.89,15518L9833.8,15517.9L9833.74,15517.8L9822.57,15485.1L9807.94,15488.4L9807.9,15488.4L9807.14,15465.1L9800.15,15476.4L9799.83,15476.4L9787.19,15448.4L9787.16,15448.3L9787.16,15448.2L9787.2,15448.1L9787.27,15447.9L9787.37,15447.9L9787.5,15447.8L9787.63,15447.8L9787.76,15447.8ZM9823.53,15484.7L9860.97,15542.7L9832.99,15477.6L9823.53,15484.7Z"/>
            </g>
        </g>
        <g transform="matrix(1,0,0,9.50258,9079.47,5855.71)">
            <g transform="matrix(1,0,0,0.105235,-9392.89,-609.172)">
                <path d="M9805.85,15423.9L9807.94,15461.7L9823.1,15431.8L9823.59,15431.8L9833.62,15476.7L9849.4,15492.3L9877.99,15514.3L9878.09,15514.4L9878.15,15514.5L9878.18,15514.6L9878.17,15514.8L9878.12,15514.9L9878.03,15515L9877.92,15515.1L9877.8,15515.1L9877.66,15515.1L9877.53,15515.1L9877.41,15515L9848.77,15493L9832.76,15477.1L9823.08,15433.9L9807.72,15464.3L9807.13,15464.2L9805,15425.9L9788.11,15448.4L9789.1,15467.9L9788.57,15468.1L9764.67,15435.4L9765.11,15434.9L9780.91,15443.7L9787.51,15447.6L9805.38,15423.8L9805.85,15423.9ZM9788.04,15465.8L9787.17,15448.5L9780.44,15444.5L9767.08,15437.1L9788.04,15465.8Z"/>
            </g>
        </g>
        <g transform="matrix(1,0,0,9.50258,9079.47,5855.71)">
            <g transform="matrix(1,0,0,0.105235,-9392.89,-609.172)">
                <path d="M9916.86,15478L9916.97,15478.1L9917.06,15478.1L9917.14,15478.2L9917.2,15478.3L9917.23,15478.4L9917.23,15478.5L9917.2,15478.6L9917.15,15478.7L9917.08,15478.8L9916.99,15478.9L9901.1,15487.7L9878.32,15514.7L9910.93,15553.5L9910.83,15553.8L9888.22,15557.2L9863.01,15548.1L9877.29,15514.4L9900.49,15486.9L9916.53,15478.1L9916.63,15478L9916.75,15478L9916.86,15478ZM9864.28,15547.5L9888.32,15556.2L9909.3,15553.1L9877.84,15515.6L9864.28,15547.5Z"/>
            </g>
        </g>
        <g transform="matrix(1,0,0,9.50258,9079.47,5855.71)">
            <g transform="matrix(1,0,0,0.105235,-9392.89,-609.172)">
                <path d="M9902.24,15442L9902.32,15442L9902.39,15442.1L9902.46,15442.1L9902.52,15442.2L9902.57,15442.2L9902.61,15442.3L9902.64,15442.4L9902.66,15442.4L9902.66,15442.5L9902.65,15442.6L9902.63,15442.7L9902.6,15442.7L9902.55,15442.8L9902.5,15442.9L9902.43,15442.9L9872.9,15460.9L9905.58,15458.1L9905.65,15458.1L9905.73,15458.1L9905.81,15458.1L9905.88,15458.2L9905.94,15458.2L9905.99,15458.3L9906.03,15458.3L9906.07,15458.4L9906.08,15458.5L9906.09,15458.6L9906.08,15458.6L9906.07,15458.7L9906.03,15458.8L9905.99,15458.9L9905.94,15458.9L9905.88,15459L9905.81,15459L9905.73,15459L9905.66,15459L9870.35,15462L9870.15,15461.4L9901.94,15442.1L9902.01,15442.1L9902.09,15442L9902.16,15442L9902.24,15442Z"/>
            </g>
        </g>
        <g transform="matrix(1,0,0,9.50258,9079.47,5855.71)">
            <g transform="matrix(1,0,0,0.105235,-9392.89,-609.172)">
                <path d="M9860.38,15417L9872.13,15462.4L9871.44,15462.9L9841.51,15445.7L9859.55,15416.9L9860.38,15417ZM9842.84,15445.3L9870.93,15461.5L9859.75,15418.3L9842.84,15445.3Z"/>
            </g>
        </g>
        <g transform="matrix(1,0,0,9.50258,9079.47,5855.71)">
            <g transform="matrix(1,0,0,0.105235,-9392.89,-609.172)">
                <path d="M9859.82,15417.9L9859.9,15417.9L9859.98,15417.9L9902.42,15442.1L9902.5,15442.1L9902.56,15442.2L9902.6,15442.3L9902.64,15442.4L9902.66,15442.4L9902.66,15442.5L9902.65,15442.6L9902.62,15442.7L9902.58,15442.8L9902.52,15442.8L9902.45,15442.9L9902.38,15442.9L9902.29,15443L9902.2,15443L9902.12,15443L9902.03,15442.9L9901.95,15442.9L9859.51,15418.7L9859.44,15418.7L9859.38,15418.6L9859.33,15418.6L9859.29,15418.5L9859.27,15418.4L9859.27,15418.3L9859.28,15418.2L9859.31,15418.1L9859.36,15418.1L9859.41,15418L9859.48,15417.9L9859.56,15417.9L9859.64,15417.9L9859.73,15417.9L9859.82,15417.9Z"/>
            </g>
        </g>
        <g transform="matrix(1,0,0,9.50258,9079.47,5855.71)">
            <g transform="matrix(1,0,0,0.105235,-9392.89,-609.172)">
                <path d="M9887.72,15368.3L9887.82,15368.4L9887.9,15368.4L9887.98,15368.5L9888.03,15368.6L9888.07,15368.7L9888.09,15368.8L9888.09,15368.9L9888.07,15369L9888.03,15369L9887.97,15369.1L9887.9,15369.2L9857.38,15391.3L9895.49,15390.4L9895.67,15390.9L9859.81,15418.9L9839.99,15409.9L9839.81,15410.1L9839.29,15409.9L9846.93,15371.2L9847.48,15371.1L9856.07,15391.1L9887.34,15368.4L9887.43,15368.4L9887.52,15368.3L9887.62,15368.3L9887.72,15368.3ZM9856.08,15392.3L9840.66,15409.2L9859.68,15417.8L9893.48,15391.4L9856.08,15392.3ZM9840.67,15407.8L9855.31,15391.7L9847.45,15373.4L9840.67,15407.8Z"/>
            </g>
        </g>
        <g transform="matrix(1,0,0,9.50258,9079.47,5855.71)">
            <g transform="matrix(1,0,0,0.105235,-9392.89,-609.172)">
                <path d="M9863.68,15350.3L9863.76,15350.4L9863.84,15350.4L9863.92,15350.4L9863.98,15350.5L9864.03,15350.6L9864.07,15350.6L9864.1,15350.7L9864.1,15350.8L9864.1,15350.9L9856.33,15391.9L9856.31,15392L9856.27,15392L9856.21,15392.1L9856.15,15392.2L9856.07,15392.2L9855.99,15392.3L9855.91,15392.3L9855.82,15392.3L9855.73,15392.2L9855.65,15392.2L9855.58,15392.2L9855.51,15392.1L9855.46,15392L9855.42,15392L9855.4,15391.9L9855.39,15391.8L9855.4,15391.7L9863.16,15350.7L9863.19,15350.6L9863.23,15350.6L9863.28,15350.5L9863.34,15350.4L9863.42,15350.4L9863.5,15350.4L9863.59,15350.3L9863.68,15350.3Z"/>
            </g>
        </g>
        <g transform="matrix(1,0,0,9.50258,9079.47,5855.71)">
            <g transform="matrix(1,0,0,0.105235,-9392.89,-609.172)">
                <path d="M9986.35,15338.4L9997.16,15367.2L9993.82,15392.3L10003.7,15394.8L10019.1,15407.9L10028.3,15433L10020.3,15490L10017,15507.8L10038.5,15551.1L10078,15555.7L10118.1,15563.1L10166.8,15569.4L10153.4,15562L10134.4,15549.9L10101.1,15521.1L10056.8,15472.1L10059.6,15441.7L10082.3,15426.7L10108,15435.1L10142.1,15454.4L10188.9,15489L10212.4,15508.4L10250,15523.4L10278.6,15528.5L10348,15573L10402.1,15606.7L10438.6,15655.2L10478.3,15720.9L10552.3,15831.4L10610.1,15905.3L10609.8,15905.9L10393.1,15905.9L10384.3,15891.7L10325.6,15828.6L10258.9,15789.7L10193.7,15759.7L10128.9,15731.3L10092.5,15715.7L10064.1,15703L10043,15686.3L10005.9,15664.2L9968.24,15648.5L9921.66,15619.2L9887.27,15600.6L9878.71,15591.2L9862.83,15548.3L9833.65,15518.4L9807.6,15488.4L9799.34,15476.3L9788,15468.1L9770.8,15452.8L9764.25,15435.2L9784.18,15423.6L9805.61,15423.6L9823.72,15431.7L9841.74,15443.5L9838.93,15409.5L9831.75,15355.6L9849.36,15346.8L9864.03,15349.9L9888.43,15368.2L9895.83,15390.7L9903.13,15442.3L9906.51,15458.2L9917.61,15478.1L9926.52,15500.4L9925.15,15477.3L9930.47,15432.1L9934.75,15381.4L9941.87,15328.8L9965.55,15323.1L9986.35,15338.4ZM9942.72,15329.6L9935.7,15381.5L9931.41,15432.2L9926.1,15477.3L9927.81,15506.3L9916.76,15478.5L9905.62,15458.6L9902.19,15442.5L9894.91,15390.9L9887.62,15368.8L9863.63,15350.8L9849.49,15347.8L9832.78,15356.2L9839.87,15409.3L9842.84,15445.3L9823.26,15432.5L9805.41,15424.5L9784.43,15424.5L9765.42,15435.6L9771.61,15452.3L9788.59,15467.4L9800.03,15475.7L9808.35,15487.8L9834.35,15517.8L9863.65,15547.8L9879.54,15590.7L9887.86,15599.9L9922.14,15618.3L9968.68,15647.7L10006.3,15663.3L10043.6,15685.5L10064.6,15702.2L10092.9,15714.8L10129.3,15730.4L10194,15758.8L10259.3,15788.8L10326.2,15827.8L10385,15891.1L10393.6,15905L10608.7,15905L10551.6,15831.9L10477.5,15721.5L10437.8,15655.8L10401.4,15607.5L10347.5,15573.8L10278.2,15529.4L10249.7,15524.3L10211.9,15509.2L10188.4,15489.7L10141.6,15455.2L10107.7,15436L10082.4,15427.8L10060.5,15442.3L10057.8,15471.8L10101.7,15520.4L10135,15549.2L10153.9,15561.2L10171.6,15571L10118,15564.1L10077.9,15556.6L10037.8,15551.9L10016,15507.9L10019.3,15489.9L10027.4,15433.1L10018.3,15408.5L10003.3,15395.6L9992.76,15393L9996.19,15367.3L9985.57,15339L9965.34,15324.2L9942.72,15329.6Z"/>
            </g>
        </g>
        <g transform="matrix(1,0,0,9.50258,9079.47,5855.71)">
            <g transform="matrix(1,0,0,0.105235,-9392.89,-609.172)">
                <path d="M9863.72,15350.3L9863.79,15350.4L9863.86,15350.4L9863.92,15350.4L9863.98,15350.5L9864.02,15350.5L9864.06,15350.6L9864.09,15350.7L9864.1,15350.8L9864.1,15350.8L9864.1,15350.9L9864.08,15351L9864.05,15351L9864.01,15351.1L9847.33,15372.6L9847.29,15372.6L9832.43,15356.5L9832.39,15356.4L9832.35,15356.4L9832.33,15356.3L9832.31,15356.2L9832.31,15356.2L9832.32,15356.1L9832.34,15356L9832.37,15355.9L9832.41,15355.9L9832.46,15355.8L9832.52,15355.8L9832.58,15355.7L9832.65,15355.7L9832.73,15355.7L9832.8,15355.7L9832.88,15355.7L9832.95,15355.7L9833.01,15355.8L9833.08,15355.8L9833.13,15355.8L9847.25,15371.1L9863.26,15350.5L9863.31,15350.5L9863.36,15350.4L9863.43,15350.4L9863.5,15350.4L9863.57,15350.3L9863.65,15350.3L9863.72,15350.3Z"/>
            </g>
        </g>
        <g transform="matrix(1,0,0,9.50258,9079.47,5855.71)">
            <g transform="matrix(1,0,0,0.105235,-9392.89,-609.172)">
                <path d="M9849.57,15347.3L9849.63,15347.4L9849.69,15347.4L9849.75,15347.4L9849.8,15347.5L9849.85,15347.5L9849.89,15347.6L9849.92,15347.6L9849.94,15347.7L9849.96,15347.7L9849.97,15347.8L9849.97,15347.9L9847.75,15371.9L9847.74,15372L9847.72,15372L9847.7,15372.1L9847.66,15372.1L9847.62,15372.2L9847.57,15372.2L9847.52,15372.3L9847.46,15372.3L9847.4,15372.3L9847.33,15372.3L9847.27,15372.3L9847.2,15372.3L9847.14,15372.3L9847.08,15372.3L9847.02,15372.3L9846.97,15372.2L9846.93,15372.2L9846.89,15372.1L9846.85,15372.1L9846.83,15372L9846.81,15371.9L9846.81,15371.9L9846.81,15371.8L9849.02,15347.8L9849.03,15347.7L9849.05,15347.6L9849.08,15347.6L9849.11,15347.5L9849.15,15347.5L9849.2,15347.4L9849.26,15347.4L9849.31,15347.4L9849.38,15347.4L9849.44,15347.3L9849.5,15347.3L9849.57,15347.3Z"/>
            </g>
        </g>
    </g>
</svg>
