<?xml version="1.0" encoding="UTF-8" standalone="no"?>
<!DOCTYPE svg PUBLIC "-//W3C//DTD SVG 1.1//EN" "http://www.w3.org/Graphics/SVG/1.1/DTD/svg11.dtd">
<svg width="100%" height="100%" viewBox="0 0 406 1004" version="1.1" xmlns="http://www.w3.org/2000/svg" xmlns:xlink="http://www.w3.org/1999/xlink" xml:space="preserve" xmlns:serif="http://www.serif.com/" style="fill-rule:evenodd;clip-rule:evenodd;stroke-linecap:round;stroke-linejoin:round;stroke-miterlimit:1.5;">
    <g transform="matrix(1,0,0,1,-2669.46,-38.1755)">
        <g transform="matrix(1,0,0,1,1963.02,0)">
            <g transform="matrix(1,0,0,1,-1963.02,0)">
                <ellipse cx="2781.59" cy="479.421" rx="44.631" ry="33.135" style="fill:rgb(78,58,45);"/>
            </g>
        </g>
        <g transform="matrix(1,0,0,1,1963.02,0)">
            <g transform="matrix(0.620948,0,0,0.824997,347.869,287.289)">
                <ellipse cx="879.656" cy="825.804" rx="302.209" ry="88.787" style="fill:rgb(67,113,159);"/>
            </g>
        </g>
        <g transform="matrix(1,0,0,1,1963.02,0)">
            <g transform="matrix(0.45049,-0.324849,0.329211,0.456539,-54.3251,1179.83)">
                <path d="M1587.43,517.048C1587.43,517.048 1567.54,542.012 1537.68,546.469C1521.39,548.9 1500.95,549.686 1490.44,549.099C1458.03,547.286 1443.94,558.072 1440.07,570.643C1437.56,578.815 1439.36,587.74 1443.24,594.453C1446.67,600.376 1447.93,598.575 1454.05,602.219C1485.18,620.742 1526.22,615.382 1547.03,620.45C1556.89,622.851 1583.59,629.501 1597.27,620.773C1628.54,600.821 1648.56,551.586 1648.56,551.586L1587.43,517.048Z" style="fill:rgb(213,213,213);"/>
                <clipPath id="_clip1">
                    <path d="M1587.43,517.048C1587.43,517.048 1567.54,542.012 1537.68,546.469C1521.39,548.9 1500.95,549.686 1490.44,549.099C1458.03,547.286 1443.94,558.072 1440.07,570.643C1437.56,578.815 1439.36,587.74 1443.24,594.453C1446.67,600.376 1447.93,598.575 1454.05,602.219C1485.18,620.742 1526.22,615.382 1547.03,620.45C1556.89,622.851 1583.59,629.501 1597.27,620.773C1628.54,600.821 1648.56,551.586 1648.56,551.586L1587.43,517.048Z"/>
                </clipPath>
                <g clip-path="url(#_clip1)">
                    <g transform="matrix(1.01452,0.879657,-0.943361,0.946009,1461.37,-889.186)">
                        <path d="M866.513,765.958C881.33,765.958 880.218,780.812 880.218,793.718C880.218,806.624 863.606,819.289 848.789,819.289C833.972,819.289 848.513,804.459 848.513,791.552C848.513,778.646 851.696,765.958 866.513,765.958Z" style="fill:rgb(99,99,99);"/>
                    </g>
                </g>
            </g>
        </g>
        <g transform="matrix(1,0,0,1,1963.02,0)">
            <g transform="matrix(-0.45049,-0.324849,-0.329211,0.456539,1850.41,1172.97)">
                <path d="M1587.43,517.048C1587.43,517.048 1567.54,542.012 1537.68,546.469C1521.39,548.9 1500.95,549.686 1490.44,549.099C1458.03,547.286 1443.94,558.072 1440.07,570.643C1437.56,578.815 1439.36,587.74 1443.24,594.453C1446.67,600.376 1447.93,598.575 1454.05,602.219C1485.18,620.742 1526.22,615.382 1547.03,620.45C1556.89,622.851 1583.59,629.501 1597.27,620.773C1628.54,600.821 1648.56,551.586 1648.56,551.586L1587.43,517.048Z" style="fill:rgb(213,213,213);"/>
                <clipPath id="_clip2">
                    <path d="M1587.43,517.048C1587.43,517.048 1567.54,542.012 1537.68,546.469C1521.39,548.9 1500.95,549.686 1490.44,549.099C1458.03,547.286 1443.94,558.072 1440.07,570.643C1437.56,578.815 1439.36,587.74 1443.24,594.453C1446.67,600.376 1447.93,598.575 1454.05,602.219C1485.18,620.742 1526.22,615.382 1547.03,620.45C1556.89,622.851 1583.59,629.501 1597.27,620.773C1628.54,600.821 1648.56,551.586 1648.56,551.586L1587.43,517.048Z"/>
                </clipPath>
                <g clip-path="url(#_clip2)">
                    <g transform="matrix(1.01452,0.879657,-0.943361,0.946009,1461.37,-889.186)">
                        <path d="M866.513,765.958C881.33,765.958 880.218,780.812 880.218,793.718C880.218,806.624 863.606,819.289 848.789,819.289C833.972,819.289 848.513,804.459 848.513,791.552C848.513,778.646 851.696,765.958 866.513,765.958Z" style="fill:rgb(99,99,99);"/>
                    </g>
                </g>
            </g>
        </g>
        <g transform="matrix(1,0,0,1,1963.02,0)">
            <g transform="matrix(-0.988458,-0.133498,-0.0861449,0.884166,1955.37,110.283)">
                <path d="M894.412,1042C891.17,1023.09 893.033,678.063 907.119,664.766C921.329,651.353 1011.5,650.706 1014.81,660.57C1021.06,679.168 959.212,1035.85 959.212,1035.85C937.296,1049.31 915.694,1051.45 894.412,1042Z" style="fill:rgb(60,106,218);"/>
                <clipPath id="_clip3">
                    <path d="M894.412,1042C891.17,1023.09 893.033,678.063 907.119,664.766C921.329,651.353 1011.5,650.706 1014.81,660.57C1021.06,679.168 959.212,1035.85 959.212,1035.85C937.296,1049.31 915.694,1051.45 894.412,1042Z"/>
                </clipPath>
                <g clip-path="url(#_clip3)">
                    <g transform="matrix(-0.998537,-0.150767,-0.0972882,1.11632,3686.43,329.498)">
                        <path d="M2696.69,714.839C2712.52,714.839 2712.91,696.389 2726.61,709.448C2733.09,715.629 2735.02,724.403 2734.43,734.523C2733.3,754.165 2721.46,776.319 2711.01,776.319C2695.17,776.319 2682.32,760.957 2682.32,742.034C2682.32,723.112 2680.86,714.839 2696.69,714.839Z" style="fill:rgb(51,75,134);"/>
                    </g>
                </g>
            </g>
        </g>
        <g transform="matrix(1,0,0,1,1963.02,0)">
            <g transform="matrix(0.972321,-0.222403,0.165805,0.872743,-182.203,207.203)">
                <path d="M846.908,1037.92C844.675,1024.89 862.783,857.429 881.747,751.141C883.79,739.688 893.652,733.859 895.971,724.199C903.381,693.342 901.554,664.507 904.893,661.355C919.103,647.941 1011.5,650.706 1014.81,660.57C1021.06,679.168 911.708,1031.77 911.708,1031.77C889.792,1045.23 868.19,1047.37 846.908,1037.92Z" style="fill:rgb(60,106,218);"/>
                <clipPath id="_clip4">
                    <path d="M846.908,1037.92C844.675,1024.89 862.783,857.429 881.747,751.141C883.79,739.688 893.652,733.859 895.971,724.199C903.381,693.342 901.554,664.507 904.893,661.355C919.103,647.941 1011.5,650.706 1014.81,660.57C1021.06,679.168 911.708,1031.77 911.708,1031.77C889.792,1045.23 868.19,1047.37 846.908,1037.92Z"/>
                </clipPath>
                <g clip-path="url(#_clip4)">
                    <g transform="matrix(0.985636,0.251171,-0.187253,1.0981,-1623.78,-742.037)">
                        <path d="M2696.69,714.839C2712.52,714.839 2712.91,696.389 2726.61,709.448C2733.09,715.629 2735.02,724.403 2734.43,734.523C2733.3,754.165 2721.46,776.319 2711.01,776.319C2695.17,776.319 2682.32,760.957 2682.32,742.034C2682.32,723.112 2680.86,714.839 2696.69,714.839Z" style="fill:rgb(51,75,134);"/>
                    </g>
                </g>
            </g>
        </g>
        <g transform="matrix(1,0,0,1,1963.02,0)">
            <g transform="matrix(0.951256,-0.308402,0.308402,0.951256,65.132,-132.836)">
                <path d="M653.556,757.708C653.556,757.708 620.427,731.579 611.265,735.229C603.134,738.469 591.342,730.998 582.762,732.93C563.842,737.191 547.814,749.047 528.629,751.576C496.533,755.805 465.437,770.39 441.5,791.752C433.629,798.776 410.5,841.745 404.681,870.375C403.078,878.267 463.737,949.412 460.415,981.362C459.811,987.173 498.035,981.281 500.437,963.715C504.062,937.202 453.8,884.644 485.799,840.112C490.782,833.176 545.484,796.565 555.604,795.286C562.211,794.452 564.287,785.84 579.523,777.675C604.641,764.213 644.822,763.373 653.556,757.708Z" style="fill:rgb(255,215,196);"/>
            </g>
        </g>
        <g transform="matrix(1,0,0,1,1963.02,0)">
            <g transform="matrix(0.998974,-0.0452948,0.0452948,0.998974,-2020.48,56.4538)">
                <rect x="2803.68" y="395.746" width="227.422" height="120.826" style="fill:rgb(78,58,45);"/>
            </g>
        </g>
        <g transform="matrix(1,0,0,1,1963.02,0)">
            <g transform="matrix(0.839747,-0.0380752,0.0452948,0.998974,247.462,-305.173)">
                <ellipse cx="733.517" cy="621.676" rx="112.301" ry="105.154" style="fill:rgb(255,215,196);"/>
            </g>
        </g>
        <g transform="matrix(1,0,0,1,1963.02,0)">
            <g transform="matrix(0.998974,-0.0452948,0.0452948,0.998974,146.429,-300.592)">
                <path d="M673.026,583.716C692.227,583.716 707.36,588.172 707.36,604.912C707.36,621.652 692.056,640.667 672.854,640.667C653.652,640.667 637.777,621.652 637.777,604.912C637.777,588.172 653.824,583.716 673.026,583.716Z" style="fill:none;stroke:black;stroke-width:5.37px;"/>
            </g>
        </g>
        <g transform="matrix(1,0,0,1,1963.02,0)">
            <g transform="matrix(0.0578241,0.998327,-0.659494,0.0381986,1018.48,-2564.22)">
                <path d="M2837.48,339.817C2830.32,339.817 2824.5,354.682 2824.5,372.992C2824.5,391.301 2830.32,406.166 2837.48,406.166C2835.33,398.425 2833.58,386.225 2833.58,372.992C2833.58,359.758 2835.33,347.558 2837.48,339.817Z"/>
            </g>
        </g>
        <g transform="matrix(1,0,0,1,1963.02,0)">
            <g transform="matrix(0.998974,-0.0452948,0.0452948,0.998974,236.675,-304.684)">
                <path d="M673.026,583.716C692.227,583.716 707.36,588.172 707.36,604.912C707.36,621.652 692.056,640.667 672.854,640.667C653.652,640.667 637.777,621.652 637.777,604.912C637.777,588.172 653.824,583.716 673.026,583.716Z" style="fill:none;stroke:black;stroke-width:5.37px;"/>
            </g>
        </g>
        <g transform="matrix(1,0,0,1,1963.02,0)">
            <g transform="matrix(0.654726,-0.0296861,0.0452948,0.998974,386.139,-311.461)">
                <path d="M713.159,604.912C724.35,599.52 734.855,599.95 744.828,604.912" style="fill:none;stroke:black;stroke-width:6.35px;"/>
            </g>
        </g>
        <g transform="matrix(1,0,0,1,1963.02,0)">
            <g transform="matrix(0.998974,-0.0452948,0.0452948,0.998974,130.666,-299.877)">
                <path d="M744.831,524.885C744.831,524.885 737.652,567.891 756.1,587.712C789.219,623.295 809.756,609.103 823.927,617.863C834.551,624.43 820.837,624.868 825.014,637.829C828.343,648.162 818.733,656.656 819.008,666.435C819.28,676.07 828.365,678.783 833.346,685.21C835.71,688.261 836.583,692.216 836.892,696.005C837.533,703.866 835.446,711.331 830.685,717.662C828.046,721.172 823.684,724.463 822.19,728.765C819.38,736.856 830.459,740.713 834.526,744.903C834.744,745.128 833.806,747.114 833.718,747.359C832.86,749.757 832.028,752.132 831.64,754.66C830.73,760.597 833.071,765.627 836.48,770.364C843.511,780.134 784.098,805.937 795.302,806.993C805.029,807.911 779.051,842.716 788.821,842.626C795.976,842.56 825.69,834.955 832.74,833.43C841.091,831.625 850.754,825.063 856.658,818.941C860.068,815.406 864.131,811.271 865.624,806.44C869.127,795.102 873.504,781.768 865.607,780.066C860.785,779.027 888.918,747.725 888.857,747.1C888.289,741.28 921.695,712.892 922.99,707.332C925.192,697.871 926.662,687.351 925.039,677.684C923.897,670.881 921.507,661.475 915.997,656.704C909.805,651.341 900.785,650.27 897.567,641.695C893.759,631.55 897.299,618.859 895.225,608.118C893.562,599.509 891.545,589.938 887.179,582.2C882.447,573.814 876.114,566.487 871.571,557.885C866.95,549.136 863.691,539.701 858.763,530.764C841.016,498.583 752.938,442.323 710.569,458.402C697.753,463.265 653.473,489.51 635.68,502.9C613.171,519.84 623.302,535.397 605.563,556.577C599.229,564.141 592.362,571.072 587.212,579.599C579.225,592.822 569.445,614.705 573.49,630.606C575.048,636.728 573.725,663.752 573.349,666.817C573.06,669.167 588.789,693.02 587.047,694.524C579.891,700.704 570.244,704.472 563.684,711.153C557.61,717.34 560.166,724.596 558.142,732.137C557.582,734.224 553.055,740.066 553.444,741.763C554.761,747.512 559.789,751.804 565.022,754.279C566.419,754.94 567.838,755.552 569.249,756.18C569.413,756.253 571.673,757.051 571.699,757.162C571.727,757.281 569.108,758.292 568.834,758.399C567.761,758.816 562.931,759.98 561.51,761.301C560.005,762.699 559.177,766.509 558.385,768.26C555.85,773.87 551.741,777.901 557.583,782.968C564.03,788.559 581.992,769.084 590.29,770.65C600.979,772.668 601.106,796.096 612.061,795.431C623.973,794.709 633.638,789.58 644.81,786.022C659.177,781.447 675.271,771.786 680.976,757.045C684.4,748.198 684.693,735.801 684.932,726.324C685.021,722.79 682.283,719.821 681.898,716.284C680.884,706.98 687.605,698.833 682.976,690.298C679.643,684.152 668.958,680.716 663.365,677.348C660.305,675.505 657.574,668.211 655.661,665.442C652.536,660.92 647.45,656.955 644.889,652.145C642.151,647.003 642.788,639.418 641.739,633.791C640.814,628.824 638.67,621.89 641.4,617.131C643.927,612.726 651.685,606.961 652.746,601.67C653.789,596.47 653.98,591.575 653.24,586.352C652.522,581.294 650.603,575.278 652.519,570.28C655.61,562.218 667.694,557.247 675.02,554.962C678.315,553.935 685.262,550.271 688.977,552.447C695.321,556.162 744.831,524.885 744.831,524.885Z" style="fill:rgb(78,58,45);"/>
            </g>
        </g>
        <g transform="matrix(1,0,0,1,1963.02,0)">
            <g transform="matrix(0.456294,-0.889829,0.889829,0.456294,-61.8745,599.684)">
                <path d="M653.556,757.708C653.556,757.708 620.427,731.579 611.265,735.229C603.134,738.469 595.109,741.929 586.528,743.861C567.609,748.122 543.277,738.931 528.629,751.576C474.794,798.047 610.543,823.121 653.556,757.708Z" style="fill:rgb(255,215,196);"/>
            </g>
        </g>
        <g transform="matrix(1,0,0,1,1963.02,0)">
            <g transform="matrix(0.998974,-0.0452948,0.0452948,0.998974,17.1382,136.179)">
                <path d="M784.776,174.058C754.833,178.541 728.211,197.02 706.812,237.513C716.079,261.733 729.039,269.165 743.677,268.967C724.429,241.426 752.823,193.669 784.776,174.058" style="fill:rgb(109,79,62);"/>
            </g>
        </g>
        <g transform="matrix(1,0,0,1,1963.02,0)">
            <g transform="matrix(-0.354393,-0.935097,-0.935097,0.354393,1493.76,941.071)">
                <path d="M784.776,174.058C754.833,178.541 728.211,197.02 706.812,237.513C716.079,261.733 729.039,269.165 743.677,268.967C724.429,241.426 752.823,193.669 784.776,174.058" style="fill:rgb(109,79,62);"/>
            </g>
        </g>
        <g transform="matrix(1,0,0,1,1963.02,0)">
            <g transform="matrix(-0.976658,-0.214802,0.214802,-0.976658,1756.02,455.958)">
                <path d="M894.464,74.84C893.73,134.128 935.628,119.487 969.465,107.387C939.443,111.393 908.474,118.366 912.174,56.553C906.073,61.757 897.773,67.217 894.464,74.84Z" style="fill:rgb(109,79,62);"/>
            </g>
        </g>
        <g transform="matrix(1,0,0,1,1963.02,0)">
            <g transform="matrix(-0.976658,-0.214802,0.214802,-0.976658,1772.7,441.196)">
                <path d="M894.96,75.885C894.226,135.173 951.99,114.968 965.663,105.68C951.343,112.327 905.243,117.879 908.942,56.065C903.594,62.625 899.043,69.656 894.96,75.885Z" style="fill:rgb(109,79,62);"/>
            </g>
        </g>
        <g transform="matrix(1,0,0,1,1963.02,0)">
            <g transform="matrix(-0.976658,-0.214802,0.214802,-0.976658,1790.03,420.557)">
                <path d="M897.887,95.112C914.298,121.668 918.92,102.323 954.537,95.485C923.982,96.117 902.171,102.525 901.703,71.446C896.355,78.006 901.969,88.883 897.887,95.112Z" style="fill:rgb(109,79,62);"/>
            </g>
        </g>
        <g transform="matrix(1,0,0,1,1963.02,0)">
            <g transform="matrix(0.998974,-0.0452948,0.0452948,0.998974,17.1382,136.179)">
                <path d="M896.305,74.58C901.068,69.554 906.995,59.337 911.015,51.472C907.315,113.285 915.633,156.989 954.495,186.063C920.114,167.975 900.982,147.359 897.787,98.311C895.514,146.421 896.953,156.49 931.928,182.656C894.692,174.836 870.521,154.166 877.355,92.141C881.84,88.21 890.153,84.047 894.95,76.871C894.952,76.543 894.956,76.215 894.96,75.885C895.391,75.507 895.836,75.075 896.291,74.595L896.306,74.566L896.305,74.58Z" style="fill:rgb(109,79,62);"/>
            </g>
        </g>
        <g transform="matrix(1,0,0,1,1963.02,0)">
            <g transform="matrix(-0.284912,0.958554,0.958554,0.284912,1139.75,-742.282)">
                <path d="M899.48,52.225C898.746,111.512 926.864,151.948 964.803,171.907C925.941,142.834 914.015,112.983 917.715,51.169C916.763,51.224 915.857,51.225 914.993,51.19C908.149,50.913 903.87,48.377 899.48,52.225Z" style="fill:rgb(109,79,62);"/>
            </g>
        </g>
        <g transform="matrix(1,0,0,1,1963.02,0)">
            <g transform="matrix(0.998974,-0.0452948,0.0452948,0.998974,17.1382,136.179)">
                <path d="M834.538,118.767C823.445,86.514 800.711,71.721 752.992,94.408C793.113,89.708 808.387,102.575 802.73,126.867C812.513,126.626 823.229,123.586 834.538,118.767Z" style="fill:rgb(109,79,62);"/>
            </g>
        </g>
        <g transform="matrix(1,0,0,1,1963.02,0)">
            <g transform="matrix(0.0578241,0.998327,-0.659494,0.0381986,928.236,-2560.12)">
                <path d="M2837.48,339.817C2830.32,339.817 2824.5,354.682 2824.5,372.992C2824.5,391.301 2830.32,406.166 2837.48,406.166C2835.33,398.425 2833.58,386.225 2833.58,372.992C2833.58,359.758 2835.33,347.558 2837.48,339.817Z"/>
            </g>
        </g>
        <g transform="matrix(1,0,0,1,1963.02,0)">
            <g transform="matrix(2.56739e-16,-1,0.660599,1.73472e-16,649.954,3195.97)">
                <path d="M2862.61,316.425C2855.45,316.425 2818.32,331.077 2819.51,377.678C2820.61,420.933 2860.04,429.318 2867.2,429.318C2858.65,422.088 2854.32,324.655 2862.61,316.425Z" style="fill:rgb(135,72,63);"/>
                <clipPath id="_clip5">
                    <path d="M2862.61,316.425C2855.45,316.425 2818.32,331.077 2819.51,377.678C2820.61,420.933 2860.04,429.318 2867.2,429.318C2858.65,422.088 2854.32,324.655 2862.61,316.425Z"/>
                </clipPath>
                <g clip-path="url(#_clip5)">
                    <g transform="matrix(2.62598e-16,1.51378,-1,3.88646e-16,3195.97,-3955.47)">
                        <ellipse cx="2860.4" cy="371.218" rx="42.991" ry="18.586" style="fill:rgb(192,57,37);"/>
                    </g>
                </g>
            </g>
        </g>
        <g transform="matrix(1,0,0,1,1963.02,0)">
            <g transform="matrix(-0.951256,0.308402,-0.308402,-0.951256,1764.67,948.155)">
                <path d="M653.556,757.708C653.556,757.708 620.427,731.579 611.265,735.229C603.134,738.469 591.342,730.998 582.762,732.93C563.842,737.191 547.814,749.047 528.629,751.576C496.533,755.805 465.437,770.39 441.5,791.752C433.629,798.776 410.5,841.745 404.681,870.375C403.078,878.267 398.521,932.352 395.199,964.302C394.595,970.113 377.388,997.386 376.791,1003.34C372.498,1046.15 370.27,1040.57 372.196,1048.51C377.994,1072.42 392.704,1075.8 395.496,1079.63C399.614,1085.28 432.163,1100.76 431.529,1091.1C431.369,1088.65 439.532,1045 440.98,1042.55C449.183,1028.68 460.059,1042.47 470.151,1038.76C478.636,1035.64 438.803,999.185 435.673,998.137C426.921,995.206 432.818,964.221 435.22,946.655C438.845,920.142 453.8,884.644 485.799,840.112C490.782,833.176 545.484,796.565 555.604,795.286C562.211,794.452 564.287,785.84 579.523,777.675C604.641,764.213 644.822,763.373 653.556,757.708Z" style="fill:rgb(255,215,196);"/>
            </g>
        </g>
        <g transform="matrix(1,0,0,1,1963.02,0)">
            <g transform="matrix(1,0,0,1,-1629,30.0638)">
                <path d="M2583.07,362.622L2645.38,292.776C2676.45,310.724 2692.9,338.772 2695.64,376.29L2606.41,433.714L2644.41,548.28C2566.41,589.689 2495.31,592.526 2431.94,552.102L2449.9,442.509L2422.98,493.042C2385.39,491.608 2356.79,476.144 2337.77,445.716L2419.97,365.328C2444.19,360.351 2468,359.098 2490.96,362.378C2491.47,362.432 2491.97,362.505 2492.46,362.598L2492.47,362.599L2492.47,362.599C2495.27,363.135 2497.76,364.347 2499.77,366.616C2515.85,384.802 2532.59,384.73 2549.95,366.051C2557.43,357.998 2571.61,363.595 2583.07,362.622Z" style="fill:rgb(255,189,0);"/>
            </g>
        </g>
        <g transform="matrix(1,0,0,1,1963.02,0)">
            <g transform="matrix(0.329367,0,0,1.14064,-41.1356,15.4907)">
                <path d="M2896.59,320.544L2817.41,320.544L2819.88,330.951C2846.68,335.402 2869.55,331.534 2895.57,327.466L2896.59,320.544Z" style="fill:rgb(78,58,45);"/>
            </g>
        </g>
    </g>
</svg>
