<svg xmlns="http://www.w3.org/2000/svg" width="97.016" height="97.016" viewBox="0 0 97.016 97.016">
  <defs>
    <style>
      .cls-1 {
        fill: none;
      }

      .cls-1, .cls-2 {
        fill-rule: evenodd;
      }

      .cls-2 {
        fill: #3f62a8;
      }
    </style>
  </defs>
  <g id="Icons" transform="translate(2 3)">
    <g id="Rounded" transform="translate(-2 -3)">
      <g id="Content">
        <g id="_-Round-_-Content-_-waves" data-name="-Round-/-Content-/-waves">
          <g id="Gruppe_104" data-name="Gruppe 104">
            <path id="Path" class="cls-1" d="M0,0H97.016V97.016H0Z"/>
            <path id="_Icon-Color" data-name="🔹Icon-Color" class="cls-2" d="M62.635,57.544A24.108,24.108,0,0,0,50.71,60.778c-2.628,1.334-4.77,2.425-8.287,2.425-3.638,0-5.659-1.011-8.287-2.425-3.032-1.536-6.346-3.234-11.925-3.234s-8.893,1.7-11.925,3.234a22.509,22.509,0,0,1-5.134,2.1A3.83,3.83,0,0,0,2,66.559v.4a3.8,3.8,0,0,0,4.608,3.679,27.386,27.386,0,0,0,7.317-2.789c2.628-1.334,4.73-2.425,8.287-2.425s5.659,1.011,8.287,2.425c3.032,1.536,6.346,3.234,11.925,3.234s8.893-1.7,11.925-3.234c2.628-1.334,4.77-2.425,8.287-2.425,3.638,0,5.659,1.011,8.287,2.425a27.99,27.99,0,0,0,7.4,2.83A3.8,3.8,0,0,0,82.847,67V66.64a3.876,3.876,0,0,0-3.193-3.719,19.119,19.119,0,0,1-5.093-2.1A23.669,23.669,0,0,0,62.635,57.544Zm0-17.988c-5.457,0-8.893,1.738-11.925,3.234-2.628,1.294-4.77,2.425-8.287,2.425-3.638,0-5.659-1.011-8.287-2.425-3.032-1.536-6.346-3.234-11.925-3.234s-8.893,1.738-11.925,3.234a23.962,23.962,0,0,1-5.174,2.1A3.833,3.833,0,0,0,2,48.57v.4a3.756,3.756,0,0,0,4.527,3.679,29.493,29.493,0,0,0,7.4-2.789c2.628-1.415,4.649-2.425,8.287-2.425s5.659,1.011,8.287,2.425C33.53,51.4,36.845,53.1,42.423,53.1s8.893-1.738,11.925-3.234c2.628-1.415,4.649-2.425,8.287-2.425s5.659,1.011,8.287,2.425a27.989,27.989,0,0,0,7.4,2.83,3.8,3.8,0,0,0,4.527-3.719v-.364a3.876,3.876,0,0,0-3.193-3.719,19.119,19.119,0,0,1-5.093-2.1A24.108,24.108,0,0,0,62.635,39.556ZM74.56,6.894a23.6,23.6,0,0,0-23.85,0c-2.628,1.294-4.77,2.425-8.287,2.425-3.638,0-5.659-1.011-8.287-2.425C31.1,5.4,27.79,3.66,22.212,3.66s-8.893,1.7-11.925,3.234A22.509,22.509,0,0,1,5.153,9,3.83,3.83,0,0,0,2,12.674v.283a3.763,3.763,0,0,0,4.527,3.719,29.493,29.493,0,0,0,7.4-2.789c2.628-1.334,4.73-2.425,8.287-2.425s5.659,1.011,8.287,2.425c3.032,1.536,6.346,3.234,11.925,3.234s8.893-1.738,11.925-3.234c2.628-1.294,4.77-2.425,8.287-2.425,3.638,0,5.659,1.011,8.287,2.425a27.989,27.989,0,0,0,7.4,2.83A3.8,3.8,0,0,0,82.847,13v-.364a3.876,3.876,0,0,0-3.193-3.719A20.287,20.287,0,0,1,74.56,6.894ZM62.635,21.568c-5.457,0-8.893,1.738-11.925,3.234-2.628,1.415-4.649,2.425-8.287,2.425s-5.659-1.011-8.287-2.425c-3.032-1.536-6.346-3.234-11.925-3.234S13.319,23.306,10.287,24.8a19.119,19.119,0,0,1-5.093,2.1A3.876,3.876,0,0,0,2,30.622v.364a3.756,3.756,0,0,0,4.527,3.679,29.493,29.493,0,0,0,7.4-2.789c2.628-1.294,4.77-2.425,8.287-2.425s5.659,1.011,8.287,2.425c3.032,1.536,6.346,3.234,11.925,3.234s8.893-1.738,11.925-3.234c2.628-1.294,4.77-2.425,8.287-2.425,3.638,0,5.659,1.011,8.287,2.425a27.989,27.989,0,0,0,7.4,2.83,3.8,3.8,0,0,0,4.527-3.679v-.364a3.876,3.876,0,0,0-3.193-3.719,19.119,19.119,0,0,1-5.093-2.1A23.669,23.669,0,0,0,62.635,21.568Z" transform="translate(6.085 11.135)"/>
          </g>
        </g>
      </g>
    </g>
  </g>
</svg>
