<svg xmlns="http://www.w3.org/2000/svg" width="241" height="241" viewBox="0 0 241 241">
  <defs>
    <style>
      .cls-1 {
        fill: #cd4482;
      }

      .cls-2 {
        fill: #6f6f6e;
      }

      .cls-3 {
        fill: #fff;
        stroke: #707070;
      }

      .cls-4 {
        stroke: none;
      }

      .cls-5 {
        fill: none;
      }
    </style>
  </defs>
  <g id="Gruppe_132" data-name="Gruppe 132" transform="translate(-1419 -2857)">
    <circle id="Ellipse_5" data-name="Ellipse 5" class="cls-1" cx="120.5" cy="120.5" r="120.5" transform="translate(1419 2857)"/>
    <path id="Differenzmenge_1" data-name="Differenzmenge 1" class="cls-2" d="M-1892-2774h0v-241a121.316,121.316,0,0,1,24.2,2.532,119.891,119.891,0,0,1,22.531,7.074,120.511,120.511,0,0,1,20.385,11.135,121.363,121.363,0,0,1,17.757,14.715,121.362,121.362,0,0,1,14.648,17.814,120.507,120.507,0,0,1,11.058,20.432,119.9,119.9,0,0,1,6.988,22.57A121.4,121.4,0,0,1-1772-2894.5a121.4,121.4,0,0,1-2.436,24.226,119.9,119.9,0,0,1-6.988,22.57,120.507,120.507,0,0,1-11.058,20.432,121.367,121.367,0,0,1-14.648,17.814,121.369,121.369,0,0,1-17.757,14.715,120.486,120.486,0,0,1-20.385,11.135,119.891,119.891,0,0,1-22.531,7.074A121.331,121.331,0,0,1-1892-2774Z" transform="translate(3432 5872)"/>
    <g id="Ellipse_7" data-name="Ellipse 7" class="cls-3" transform="translate(1440 2878)">
      <circle class="cls-4" cx="100" cy="100" r="100"/>
      <circle class="cls-5" cx="100" cy="100" r="99.5"/>
    </g>
    <path id="Differenzmenge_2" data-name="Differenzmenge 2" d="M-1961-2813h0v-200a99.375,99.375,0,0,1,38.924,7.858,100.01,100.01,0,0,1,16.986,9.22,100.7,100.7,0,0,1,14.8,12.211,100.72,100.72,0,0,1,12.211,14.8,100.006,100.006,0,0,1,9.22,16.986A99.375,99.375,0,0,1-1861-2913a99.378,99.378,0,0,1-7.858,38.925,100.009,100.009,0,0,1-9.22,16.986,100.71,100.71,0,0,1-12.211,14.8,100.717,100.717,0,0,1-14.8,12.211,99.977,99.977,0,0,1-16.986,9.22A99.372,99.372,0,0,1-1961-2813Z" transform="translate(3501 5891)"/>
    <g id="Ellipse_8" data-name="Ellipse 8" class="cls-3" transform="translate(1463 2901)">
      <circle class="cls-4" cx="77" cy="77" r="77"/>
      <circle class="cls-5" cx="77" cy="77" r="76.5"/>
    </g>
  </g>
</svg>
