<?xml version="1.0" encoding="UTF-8" standalone="no"?>
<!DOCTYPE svg PUBLIC "-//W3C//DTD SVG 1.1//EN" "http://www.w3.org/Graphics/SVG/1.1/DTD/svg11.dtd">
<svg width="100%" height="100%" viewBox="0 0 194 194" version="1.1" xmlns="http://www.w3.org/2000/svg" xmlns:xlink="http://www.w3.org/1999/xlink" xml:space="preserve" xmlns:serif="http://www.serif.com/" style="fill-rule:evenodd;clip-rule:evenodd;stroke-linejoin:round;stroke-miterlimit:2;">
    <g transform="matrix(1,0,0,1,-523.034,-508.369)">
        <g transform="matrix(0.800604,0,0,0.800604,123.556,120.632)">
            <path d="M701.179,686.514L538.126,686.514L538.126,523.461L701.179,523.461L701.179,686.514ZM553.115,538.45L553.115,671.525L686.191,671.525L686.191,538.45L553.115,538.45Z"/>
        </g>
        <g transform="matrix(0.452972,0.452972,-0.452972,0.452972,590.991,19.9297)">
            <rect x="610.286" y="473.158" width="18.732" height="282.006"/>
        </g>
        <g transform="matrix(0.452972,0.452972,-0.452972,0.452972,609.805,38.7438)">
            <rect x="684.319" y="473.158" width="18.732" height="282.006"/>
        </g>
        <g transform="matrix(-0.452972,0.452972,-0.452972,-0.452972,1204.71,576.326)">
            <rect x="610.286" y="473.158" width="18.732" height="282.006"/>
        </g>
        <g transform="matrix(-0.452972,0.452972,-0.452972,-0.452972,1185.9,595.14)">
            <rect x="684.319" y="473.158" width="18.732" height="282.006"/>
        </g>
    </g>
</svg>
