<svg xmlns="http://www.w3.org/2000/svg" width="2259.837" height="1589.724" viewBox="0 0 2259.837 1589.724">
  <defs>
    <style>
      .cls-1 {
        fill: #cd4482;
        fill-rule: evenodd;
      }
    </style>
  </defs>
  <g id="Gruppe_83" data-name="Gruppe 83" transform="translate(-6.812 1039.84)">
    <path id="Pfad_78" data-name="Pfad 78" class="cls-1" d="M31.739-842.145H204.508v-172.769H31.739Zm18.467-18.467H186.04V-996.447H50.206Z" transform="translate(13.433 13.433)"/>
    <path id="Pfad_79" data-name="Pfad 79" class="cls-1" d="M188.159-1026.79,19.87-858.493,6.812-871.551,175.1-1039.84Z" transform="translate(0 0)"/>
    <path id="Pfad_80" data-name="Pfad 80" class="cls-1" d="M232.438-982.5,64.149-814.214,51.091-827.272,219.38-995.561Z" transform="translate(23.862 23.862)"/>
    <path id="Pfad_81" data-name="Pfad 81" class="cls-1" d="M232.438-871.551,219.38-858.493,51.091-1026.79l13.058-13.05Z" transform="translate(23.862 0)"/>
    <path id="Pfad_82" data-name="Pfad 82" class="cls-1" d="M188.159-827.272,175.1-814.214,6.812-982.5,19.87-995.561Z" transform="translate(0 23.862)"/>
    <path id="Pfad_83" data-name="Pfad 83" class="cls-1" d="M31.739-696.994H204.508V-869.763H31.739Zm18.467-18.467H186.04V-851.3H50.206Z" transform="translate(13.433 91.654)"/>
    <path id="Pfad_84" data-name="Pfad 84" class="cls-1" d="M188.159-881.631,19.87-713.342,6.812-726.4,175.1-894.689Z" transform="translate(0 78.221)"/>
    <path id="Pfad_85" data-name="Pfad 85" class="cls-1" d="M232.438-837.352,64.149-669.063,51.091-682.121,219.38-850.41Z" transform="translate(23.862 102.083)"/>
    <path id="Pfad_86" data-name="Pfad 86" class="cls-1" d="M232.438-726.4,219.38-713.342,51.091-881.631l13.058-13.058Z" transform="translate(23.862 78.221)"/>
    <path id="Pfad_87" data-name="Pfad 87" class="cls-1" d="M188.159-682.121,175.1-669.063,6.812-837.352,19.87-850.41Z" transform="translate(0 102.083)"/>
    <path id="Pfad_88" data-name="Pfad 88" class="cls-1" d="M31.739-551.842H204.508V-724.611H31.739Zm18.467-18.467H186.04V-706.144H50.206Z" transform="translate(13.433 169.876)"/>
    <path id="Pfad_89" data-name="Pfad 89" class="cls-1" d="M188.159-736.48,19.87-568.19,6.812-581.249,175.1-749.538Z" transform="translate(0 156.443)"/>
    <path id="Pfad_90" data-name="Pfad 90" class="cls-1" d="M232.438-692.2,64.149-523.911,51.091-536.97,219.38-705.259Z" transform="translate(23.862 180.305)"/>
    <path id="Pfad_91" data-name="Pfad 91" class="cls-1" d="M232.438-581.249,219.38-568.19,51.091-736.48l13.058-13.058Z" transform="translate(23.862 156.443)"/>
    <path id="Pfad_92" data-name="Pfad 92" class="cls-1" d="M188.159-536.97,175.1-523.911,6.812-692.2,19.87-705.259Z" transform="translate(0 180.305)"/>
    <path id="Pfad_93" data-name="Pfad 93" class="cls-1" d="M31.739-406.691H204.508V-579.46H31.739Zm18.467-18.467H186.04V-560.993H50.206Z" transform="translate(13.433 248.097)"/>
    <path id="Pfad_94" data-name="Pfad 94" class="cls-1" d="M188.159-591.329,19.87-423.039,6.812-436.1,175.1-604.387Z" transform="translate(0 234.664)"/>
    <path id="Pfad_95" data-name="Pfad 95" class="cls-1" d="M232.438-547.051,64.149-378.76,51.091-391.819,219.38-560.108Z" transform="translate(23.862 258.526)"/>
    <path id="Pfad_96" data-name="Pfad 96" class="cls-1" d="M232.438-436.1,219.38-423.039,51.091-591.329l13.058-13.058Z" transform="translate(23.862 234.664)"/>
    <path id="Pfad_97" data-name="Pfad 97" class="cls-1" d="M188.159-391.819,175.1-378.76,6.812-547.051,19.87-560.108Z" transform="translate(0 258.526)"/>
    <path id="Pfad_98" data-name="Pfad 98" class="cls-1" d="M31.739-261.54H204.508V-434.309H31.739Zm18.467-18.467H186.04V-415.842H50.206Z" transform="translate(13.433 326.319)"/>
    <path id="Pfad_99" data-name="Pfad 99" class="cls-1" d="M188.159-446.179,19.87-277.888,6.812-290.945,175.1-459.236Z" transform="translate(0 312.886)"/>
    <path id="Pfad_100" data-name="Pfad 100" class="cls-1" d="M232.438-401.9,64.149-233.609,51.091-246.666,219.38-414.957Z" transform="translate(23.862 336.747)"/>
    <path id="Pfad_101" data-name="Pfad 101" class="cls-1" d="M232.438-290.945,219.38-277.888,51.091-446.179l13.058-13.057Z" transform="translate(23.862 312.886)"/>
    <path id="Pfad_102" data-name="Pfad 102" class="cls-1" d="M188.159-246.666,175.1-233.609,6.812-401.9,19.87-414.957Z" transform="translate(0 336.747)"/>
    <path id="Pfad_103" data-name="Pfad 103" class="cls-1" d="M31.739-116.389H204.508V-289.158H31.739Zm18.467-18.467H186.04V-270.691H50.206Z" transform="translate(13.433 404.54)"/>
    <path id="Pfad_104" data-name="Pfad 104" class="cls-1" d="M188.159-301.026,19.87-132.737,6.812-145.794,175.1-314.085Z" transform="translate(0 391.107)"/>
    <path id="Pfad_105" data-name="Pfad 105" class="cls-1" d="M232.438-256.747,64.149-88.458,51.091-101.515,219.38-269.806Z" transform="translate(23.862 414.969)"/>
    <path id="Pfad_106" data-name="Pfad 106" class="cls-1" d="M232.438-145.794,219.38-132.737,51.091-301.026l13.058-13.059Z" transform="translate(23.862 391.107)"/>
    <path id="Pfad_107" data-name="Pfad 107" class="cls-1" d="M188.159-101.515,175.1-88.458,6.812-256.747,19.87-269.806Z" transform="translate(0 414.969)"/>
    <path id="Pfad_108" data-name="Pfad 108" class="cls-1" d="M31.739,28.762H204.508V-144.007H31.739ZM50.206,10.3H186.04V-125.54H50.206Z" transform="translate(13.433 482.762)"/>
    <path id="Pfad_109" data-name="Pfad 109" class="cls-1" d="M188.159-155.875,19.87,12.415,6.812-.643,175.1-168.934Z" transform="translate(0 469.328)"/>
    <path id="Pfad_110" data-name="Pfad 110" class="cls-1" d="M232.438-111.6,64.149,56.693,51.091,43.635,219.38-124.654Z" transform="translate(23.862 493.191)"/>
    <path id="Pfad_111" data-name="Pfad 111" class="cls-1" d="M232.438-.643,219.38,12.415,51.091-155.875l13.058-13.059Z" transform="translate(23.862 469.328)"/>
    <path id="Pfad_112" data-name="Pfad 112" class="cls-1" d="M188.159,43.635,175.1,56.693,6.812-111.6,19.87-124.654Z" transform="translate(0 493.191)"/>
    <path id="Pfad_113" data-name="Pfad 113" class="cls-1" d="M176.89-842.145H349.659v-172.769H176.89Zm18.467-18.467H331.192V-996.447H195.357Z" transform="translate(91.655 13.433)"/>
    <path id="Pfad_114" data-name="Pfad 114" class="cls-1" d="M333.311-1026.79l-168.291,168.3-13.058-13.057L320.252-1039.84Z" transform="translate(78.221 0)"/>
    <path id="Pfad_115" data-name="Pfad 115" class="cls-1" d="M377.59-982.5,209.3-814.214l-13.058-13.057L364.531-995.561Z" transform="translate(102.083 23.862)"/>
    <path id="Pfad_116" data-name="Pfad 116" class="cls-1" d="M377.59-871.551l-13.059,13.057-168.289-168.3,13.058-13.05Z" transform="translate(102.083 0)"/>
    <path id="Pfad_117" data-name="Pfad 117" class="cls-1" d="M333.311-827.272l-13.059,13.057L151.963-982.5l13.058-13.057Z" transform="translate(78.221 23.862)"/>
    <path id="Pfad_118" data-name="Pfad 118" class="cls-1" d="M176.89-696.994H349.659V-869.763H176.89Zm18.467-18.467H331.192V-851.3H195.357Z" transform="translate(91.655 91.654)"/>
    <path id="Pfad_119" data-name="Pfad 119" class="cls-1" d="M333.311-881.631,165.021-713.342,151.963-726.4,320.252-894.689Z" transform="translate(78.221 78.221)"/>
    <path id="Pfad_120" data-name="Pfad 120" class="cls-1" d="M377.59-837.352,209.3-669.063l-13.058-13.057L364.531-850.41Z" transform="translate(102.083 102.083)"/>
    <path id="Pfad_121" data-name="Pfad 121" class="cls-1" d="M377.59-726.4l-13.059,13.057L196.242-881.631,209.3-894.689Z" transform="translate(102.083 78.221)"/>
    <path id="Pfad_122" data-name="Pfad 122" class="cls-1" d="M333.311-682.121l-13.059,13.057L151.963-837.352l13.058-13.058Z" transform="translate(78.221 102.083)"/>
    <path id="Pfad_123" data-name="Pfad 123" class="cls-1" d="M176.89-551.842H349.659V-724.611H176.89Zm18.467-18.467H331.192V-706.144H195.357Z" transform="translate(91.655 169.876)"/>
    <path id="Pfad_124" data-name="Pfad 124" class="cls-1" d="M333.311-736.48,165.021-568.19l-13.058-13.059L320.252-749.538Z" transform="translate(78.221 156.443)"/>
    <path id="Pfad_125" data-name="Pfad 125" class="cls-1" d="M377.59-692.2,209.3-523.911,196.242-536.97,364.531-705.259Z" transform="translate(102.083 180.305)"/>
    <path id="Pfad_126" data-name="Pfad 126" class="cls-1" d="M377.59-581.249,364.531-568.19,196.242-736.48,209.3-749.538Z" transform="translate(102.083 156.443)"/>
    <path id="Pfad_127" data-name="Pfad 127" class="cls-1" d="M333.311-536.97l-13.059,13.059L151.963-692.2l13.058-13.057Z" transform="translate(78.221 180.305)"/>
    <path id="Pfad_128" data-name="Pfad 128" class="cls-1" d="M176.89-406.691H349.659V-579.46H176.89Zm18.467-18.467H331.192V-560.993H195.357Z" transform="translate(91.655 248.097)"/>
    <path id="Pfad_129" data-name="Pfad 129" class="cls-1" d="M333.311-591.329,165.021-423.039,151.963-436.1,320.252-604.387Z" transform="translate(78.221 234.664)"/>
    <path id="Pfad_130" data-name="Pfad 130" class="cls-1" d="M377.59-547.051,209.3-378.76l-13.058-13.059L364.531-560.108Z" transform="translate(102.083 258.526)"/>
    <path id="Pfad_131" data-name="Pfad 131" class="cls-1" d="M377.59-436.1l-13.059,13.059L196.242-591.329,209.3-604.387Z" transform="translate(102.083 234.664)"/>
    <path id="Pfad_132" data-name="Pfad 132" class="cls-1" d="M333.311-391.819,320.252-378.76,151.963-547.051l13.058-13.057Z" transform="translate(78.221 258.526)"/>
    <path id="Pfad_133" data-name="Pfad 133" class="cls-1" d="M176.89-261.54H349.659V-434.309H176.89Zm18.467-18.467H331.192V-415.842H195.357Z" transform="translate(91.655 326.319)"/>
    <path id="Pfad_134" data-name="Pfad 134" class="cls-1" d="M333.311-446.179,165.021-277.888l-13.058-13.058L320.252-459.236Z" transform="translate(78.221 312.886)"/>
    <path id="Pfad_135" data-name="Pfad 135" class="cls-1" d="M377.59-401.9,209.3-233.609l-13.058-13.057L364.531-414.957Z" transform="translate(102.083 336.747)"/>
    <path id="Pfad_136" data-name="Pfad 136" class="cls-1" d="M377.59-290.945l-13.059,13.058L196.242-446.179,209.3-459.236Z" transform="translate(102.083 312.886)"/>
    <path id="Pfad_137" data-name="Pfad 137" class="cls-1" d="M333.311-246.666l-13.059,13.057L151.963-401.9l13.058-13.059Z" transform="translate(78.221 336.747)"/>
    <path id="Pfad_138" data-name="Pfad 138" class="cls-1" d="M176.89-116.389H349.659V-289.158H176.89Zm18.467-18.467H331.192V-270.691H195.357Z" transform="translate(91.655 404.54)"/>
    <path id="Pfad_139" data-name="Pfad 139" class="cls-1" d="M333.311-301.026,165.021-132.737l-13.058-13.058L320.252-314.085Z" transform="translate(78.221 391.107)"/>
    <path id="Pfad_140" data-name="Pfad 140" class="cls-1" d="M377.59-256.747,209.3-88.458l-13.058-13.058L364.531-269.806Z" transform="translate(102.083 414.969)"/>
    <path id="Pfad_141" data-name="Pfad 141" class="cls-1" d="M377.59-145.794l-13.059,13.058L196.242-301.026,209.3-314.085Z" transform="translate(102.083 391.107)"/>
    <path id="Pfad_142" data-name="Pfad 142" class="cls-1" d="M333.311-101.515,320.252-88.458,151.963-256.747l13.058-13.059Z" transform="translate(78.221 414.969)"/>
    <path id="Pfad_143" data-name="Pfad 143" class="cls-1" d="M176.89,28.762H349.659V-144.007H176.89ZM195.357,10.3H331.192V-125.54H195.357Z" transform="translate(91.655 482.762)"/>
    <path id="Pfad_144" data-name="Pfad 144" class="cls-1" d="M333.311-155.875,165.021,12.415,151.963-.643,320.252-168.934Z" transform="translate(78.221 469.328)"/>
    <path id="Pfad_145" data-name="Pfad 145" class="cls-1" d="M377.59-111.6,209.3,56.693,196.242,43.635,364.531-124.654Z" transform="translate(102.083 493.191)"/>
    <path id="Pfad_146" data-name="Pfad 146" class="cls-1" d="M377.59-.643,364.531,12.415,196.242-155.875,209.3-168.934Z" transform="translate(102.083 469.328)"/>
    <path id="Pfad_147" data-name="Pfad 147" class="cls-1" d="M333.311,43.635,320.252,56.693,151.963-111.6l13.058-13.058Z" transform="translate(78.221 493.191)"/>
    <path id="Pfad_148" data-name="Pfad 148" class="cls-1" d="M322.041-842.145H494.81v-172.769H322.041Zm18.467-18.467H476.343V-996.447H340.508Z" transform="translate(169.876 13.433)"/>
    <path id="Pfad_149" data-name="Pfad 149" class="cls-1" d="M478.462-1026.79l-168.291,168.3-13.057-13.057L465.4-1039.84Z" transform="translate(156.443 0)"/>
    <path id="Pfad_150" data-name="Pfad 150" class="cls-1" d="M522.741-982.5,354.451-814.214l-13.058-13.057L509.684-995.561Z" transform="translate(180.305 23.862)"/>
    <path id="Pfad_151" data-name="Pfad 151" class="cls-1" d="M522.741-871.551l-13.057,13.057-168.291-168.3,13.058-13.05Z" transform="translate(180.305 0)"/>
    <path id="Pfad_152" data-name="Pfad 152" class="cls-1" d="M478.462-827.272,465.4-814.214,297.114-982.5l13.057-13.057Z" transform="translate(156.443 23.862)"/>
    <path id="Pfad_153" data-name="Pfad 153" class="cls-1" d="M322.041-696.994H494.81V-869.763H322.041Zm18.467-18.467H476.343V-851.3H340.508Z" transform="translate(169.876 91.654)"/>
    <path id="Pfad_154" data-name="Pfad 154" class="cls-1" d="M478.462-881.631,310.172-713.342,297.114-726.4,465.4-894.689Z" transform="translate(156.443 78.221)"/>
    <path id="Pfad_155" data-name="Pfad 155" class="cls-1" d="M522.741-837.352,354.451-669.063l-13.058-13.057L509.684-850.41Z" transform="translate(180.305 102.083)"/>
    <path id="Pfad_156" data-name="Pfad 156" class="cls-1" d="M522.741-726.4l-13.057,13.057L341.393-881.631l13.058-13.058Z" transform="translate(180.305 78.221)"/>
    <path id="Pfad_157" data-name="Pfad 157" class="cls-1" d="M478.462-682.121,465.4-669.063,297.114-837.352l13.057-13.058Z" transform="translate(156.443 102.083)"/>
    <path id="Pfad_158" data-name="Pfad 158" class="cls-1" d="M322.041-551.842H494.81V-724.611H322.041Zm18.467-18.467H476.343V-706.144H340.508Z" transform="translate(169.876 169.876)"/>
    <path id="Pfad_159" data-name="Pfad 159" class="cls-1" d="M478.462-736.48,310.172-568.19l-13.057-13.059L465.4-749.538Z" transform="translate(156.443 156.443)"/>
    <path id="Pfad_160" data-name="Pfad 160" class="cls-1" d="M522.741-692.2,354.451-523.911,341.393-536.97,509.684-705.259Z" transform="translate(180.305 180.305)"/>
    <path id="Pfad_161" data-name="Pfad 161" class="cls-1" d="M522.741-581.249,509.684-568.19,341.393-736.48l13.058-13.058Z" transform="translate(180.305 156.443)"/>
    <path id="Pfad_162" data-name="Pfad 162" class="cls-1" d="M478.462-536.97,465.4-523.911,297.114-692.2l13.057-13.057Z" transform="translate(156.443 180.305)"/>
    <path id="Pfad_163" data-name="Pfad 163" class="cls-1" d="M322.041-406.691H494.81V-579.46H322.041Zm18.467-18.467H476.343V-560.993H340.508Z" transform="translate(169.876 248.097)"/>
    <path id="Pfad_164" data-name="Pfad 164" class="cls-1" d="M478.462-591.329,310.172-423.039,297.114-436.1,465.4-604.387Z" transform="translate(156.443 234.664)"/>
    <path id="Pfad_165" data-name="Pfad 165" class="cls-1" d="M522.741-547.051,354.451-378.76l-13.058-13.059L509.684-560.108Z" transform="translate(180.305 258.526)"/>
    <path id="Pfad_166" data-name="Pfad 166" class="cls-1" d="M522.741-436.1l-13.057,13.059L341.393-591.329l13.058-13.058Z" transform="translate(180.305 234.664)"/>
    <path id="Pfad_167" data-name="Pfad 167" class="cls-1" d="M478.462-391.819,465.4-378.76,297.114-547.051l13.057-13.057Z" transform="translate(156.443 258.526)"/>
    <path id="Pfad_168" data-name="Pfad 168" class="cls-1" d="M322.041-261.54H494.81V-434.309H322.041Zm18.467-18.467H476.343V-415.842H340.508Z" transform="translate(169.876 326.319)"/>
    <path id="Pfad_169" data-name="Pfad 169" class="cls-1" d="M478.462-446.179,310.172-277.888l-13.057-13.058L465.4-459.236Z" transform="translate(156.443 312.886)"/>
    <path id="Pfad_170" data-name="Pfad 170" class="cls-1" d="M522.741-401.9,354.451-233.609l-13.058-13.057L509.684-414.957Z" transform="translate(180.305 336.747)"/>
    <path id="Pfad_171" data-name="Pfad 171" class="cls-1" d="M522.741-290.945l-13.057,13.058L341.393-446.179l13.058-13.057Z" transform="translate(180.305 312.886)"/>
    <path id="Pfad_172" data-name="Pfad 172" class="cls-1" d="M478.462-246.666,465.4-233.609,297.114-401.9l13.057-13.059Z" transform="translate(156.443 336.747)"/>
    <path id="Pfad_173" data-name="Pfad 173" class="cls-1" d="M322.041-116.389H494.81V-289.158H322.041Zm18.467-18.467H476.343V-270.691H340.508Z" transform="translate(169.876 404.54)"/>
    <path id="Pfad_174" data-name="Pfad 174" class="cls-1" d="M478.462-301.026,310.172-132.737l-13.057-13.058L465.4-314.085Z" transform="translate(156.443 391.107)"/>
    <path id="Pfad_175" data-name="Pfad 175" class="cls-1" d="M522.741-256.747,354.451-88.458l-13.058-13.058L509.684-269.806Z" transform="translate(180.305 414.969)"/>
    <path id="Pfad_176" data-name="Pfad 176" class="cls-1" d="M522.741-145.794l-13.057,13.058L341.393-301.026l13.058-13.059Z" transform="translate(180.305 391.107)"/>
    <path id="Pfad_177" data-name="Pfad 177" class="cls-1" d="M478.462-101.515,465.4-88.458,297.114-256.747l13.057-13.059Z" transform="translate(156.443 414.969)"/>
    <path id="Pfad_178" data-name="Pfad 178" class="cls-1" d="M322.041,28.762H494.81V-144.007H322.041ZM340.508,10.3H476.343V-125.54H340.508Z" transform="translate(169.876 482.762)"/>
    <path id="Pfad_179" data-name="Pfad 179" class="cls-1" d="M478.462-155.875,310.172,12.415,297.114-.643,465.4-168.934Z" transform="translate(156.443 469.328)"/>
    <path id="Pfad_180" data-name="Pfad 180" class="cls-1" d="M522.741-111.6,354.451,56.693,341.393,43.635,509.684-124.654Z" transform="translate(180.305 493.191)"/>
    <path id="Pfad_181" data-name="Pfad 181" class="cls-1" d="M522.741-.643,509.684,12.415,341.393-155.875l13.058-13.059Z" transform="translate(180.305 469.328)"/>
    <path id="Pfad_182" data-name="Pfad 182" class="cls-1" d="M478.462,43.635,465.4,56.693,297.114-111.6l13.057-13.058Z" transform="translate(156.443 493.191)"/>
    <path id="Pfad_183" data-name="Pfad 183" class="cls-1" d="M467.192-842.145H639.961v-172.769H467.192Zm18.467-18.467H621.494V-996.447H485.659Z" transform="translate(248.097 13.433)"/>
    <path id="Pfad_184" data-name="Pfad 184" class="cls-1" d="M623.613-1026.79l-168.289,168.3-13.059-13.057L610.556-1039.84Z" transform="translate(234.664 0)"/>
    <path id="Pfad_185" data-name="Pfad 185" class="cls-1" d="M667.892-982.5,499.6-814.214l-13.059-13.057L654.835-995.561Z" transform="translate(258.526 23.862)"/>
    <path id="Pfad_186" data-name="Pfad 186" class="cls-1" d="M667.892-871.551l-13.058,13.057-168.291-168.3,13.059-13.05Z" transform="translate(258.526 0)"/>
    <path id="Pfad_187" data-name="Pfad 187" class="cls-1" d="M623.613-827.272l-13.057,13.057L442.265-982.5l13.059-13.057Z" transform="translate(234.664 23.862)"/>
    <path id="Pfad_188" data-name="Pfad 188" class="cls-1" d="M467.192-696.994H639.961V-869.763H467.192Zm18.467-18.467H621.494V-851.3H485.659Z" transform="translate(248.097 91.654)"/>
    <path id="Pfad_189" data-name="Pfad 189" class="cls-1" d="M623.613-881.631,455.324-713.342,442.265-726.4,610.556-894.689Z" transform="translate(234.664 78.221)"/>
    <path id="Pfad_190" data-name="Pfad 190" class="cls-1" d="M667.892-837.352,499.6-669.063l-13.059-13.057L654.835-850.41Z" transform="translate(258.526 102.083)"/>
    <path id="Pfad_191" data-name="Pfad 191" class="cls-1" d="M667.892-726.4l-13.058,13.057L486.544-881.631,499.6-894.689Z" transform="translate(258.526 78.221)"/>
    <path id="Pfad_192" data-name="Pfad 192" class="cls-1" d="M623.613-682.121l-13.057,13.057L442.265-837.352l13.059-13.058Z" transform="translate(234.664 102.083)"/>
    <path id="Pfad_193" data-name="Pfad 193" class="cls-1" d="M467.192-551.842H639.961V-724.611H467.192Zm18.467-18.467H621.494V-706.144H485.659Z" transform="translate(248.097 169.876)"/>
    <path id="Pfad_194" data-name="Pfad 194" class="cls-1" d="M623.613-736.48,455.324-568.19l-13.059-13.059L610.556-749.538Z" transform="translate(234.664 156.443)"/>
    <path id="Pfad_195" data-name="Pfad 195" class="cls-1" d="M667.892-692.2,499.6-523.911,486.544-536.97,654.835-705.259Z" transform="translate(258.526 180.305)"/>
    <path id="Pfad_196" data-name="Pfad 196" class="cls-1" d="M667.892-581.249,654.835-568.19,486.544-736.48,499.6-749.538Z" transform="translate(258.526 156.443)"/>
    <path id="Pfad_197" data-name="Pfad 197" class="cls-1" d="M623.613-536.97l-13.057,13.059L442.265-692.2l13.059-13.057Z" transform="translate(234.664 180.305)"/>
    <path id="Pfad_198" data-name="Pfad 198" class="cls-1" d="M467.192-406.691H639.961V-579.46H467.192Zm18.467-18.467H621.494V-560.993H485.659Z" transform="translate(248.097 248.097)"/>
    <path id="Pfad_199" data-name="Pfad 199" class="cls-1" d="M623.613-591.329,455.324-423.039,442.265-436.1,610.556-604.387Z" transform="translate(234.664 234.664)"/>
    <path id="Pfad_200" data-name="Pfad 200" class="cls-1" d="M667.892-547.051,499.6-378.76l-13.059-13.059L654.835-560.108Z" transform="translate(258.526 258.526)"/>
    <path id="Pfad_201" data-name="Pfad 201" class="cls-1" d="M667.892-436.1l-13.058,13.059L486.544-591.329,499.6-604.387Z" transform="translate(258.526 234.664)"/>
    <path id="Pfad_202" data-name="Pfad 202" class="cls-1" d="M623.613-391.819,610.556-378.76,442.265-547.051l13.059-13.057Z" transform="translate(234.664 258.526)"/>
    <path id="Pfad_203" data-name="Pfad 203" class="cls-1" d="M467.192-261.54H639.961V-434.309H467.192Zm18.467-18.467H621.494V-415.842H485.659Z" transform="translate(248.097 326.319)"/>
    <path id="Pfad_204" data-name="Pfad 204" class="cls-1" d="M623.613-446.179,455.324-277.888l-13.059-13.058L610.556-459.236Z" transform="translate(234.664 312.886)"/>
    <path id="Pfad_205" data-name="Pfad 205" class="cls-1" d="M667.892-401.9,499.6-233.609l-13.059-13.057L654.835-414.957Z" transform="translate(258.526 336.747)"/>
    <path id="Pfad_206" data-name="Pfad 206" class="cls-1" d="M667.892-290.945l-13.058,13.058L486.544-446.179,499.6-459.236Z" transform="translate(258.526 312.886)"/>
    <path id="Pfad_207" data-name="Pfad 207" class="cls-1" d="M623.613-246.666l-13.057,13.057L442.265-401.9l13.059-13.059Z" transform="translate(234.664 336.747)"/>
    <path id="Pfad_208" data-name="Pfad 208" class="cls-1" d="M467.192-116.389H639.961V-289.158H467.192Zm18.467-18.467H621.494V-270.691H485.659Z" transform="translate(248.097 404.54)"/>
    <path id="Pfad_209" data-name="Pfad 209" class="cls-1" d="M623.613-301.026,455.324-132.737l-13.059-13.058L610.556-314.085Z" transform="translate(234.664 391.107)"/>
    <path id="Pfad_210" data-name="Pfad 210" class="cls-1" d="M667.892-256.747,499.6-88.458l-13.059-13.058L654.835-269.806Z" transform="translate(258.526 414.969)"/>
    <path id="Pfad_211" data-name="Pfad 211" class="cls-1" d="M667.892-145.794l-13.058,13.058L486.544-301.026,499.6-314.085Z" transform="translate(258.526 391.107)"/>
    <path id="Pfad_212" data-name="Pfad 212" class="cls-1" d="M623.613-101.515,610.556-88.458,442.265-256.747l13.059-13.059Z" transform="translate(234.664 414.969)"/>
    <path id="Pfad_213" data-name="Pfad 213" class="cls-1" d="M467.192,28.762H639.961V-144.007H467.192ZM485.659,10.3H621.494V-125.54H485.659Z" transform="translate(248.097 482.762)"/>
    <path id="Pfad_214" data-name="Pfad 214" class="cls-1" d="M623.613-155.875,455.324,12.415,442.265-.643,610.556-168.934Z" transform="translate(234.664 469.328)"/>
    <path id="Pfad_215" data-name="Pfad 215" class="cls-1" d="M667.892-111.6,499.6,56.693,486.544,43.635,654.835-124.654Z" transform="translate(258.526 493.191)"/>
    <path id="Pfad_216" data-name="Pfad 216" class="cls-1" d="M667.892-.643,654.835,12.415,486.544-155.875,499.6-168.934Z" transform="translate(258.526 469.328)"/>
    <path id="Pfad_217" data-name="Pfad 217" class="cls-1" d="M623.613,43.635,610.556,56.693,442.265-111.6l13.059-13.058Z" transform="translate(234.664 493.191)"/>
    <path id="Pfad_218" data-name="Pfad 218" class="cls-1" d="M612.343-842.145H785.112v-172.769H612.343Zm18.467-18.467H766.645V-996.447H630.81Z" transform="translate(326.319 13.433)"/>
    <path id="Pfad_219" data-name="Pfad 219" class="cls-1" d="M768.764-1026.79l-168.289,168.3-13.059-13.057L755.707-1039.84Z" transform="translate(312.886 0)"/>
    <path id="Pfad_220" data-name="Pfad 220" class="cls-1" d="M813.043-982.5,644.754-814.214,631.7-827.272,799.986-995.561Z" transform="translate(336.748 23.862)"/>
    <path id="Pfad_221" data-name="Pfad 221" class="cls-1" d="M813.043-871.551l-13.058,13.057L631.7-1026.79l13.059-13.05Z" transform="translate(336.748 0)"/>
    <path id="Pfad_222" data-name="Pfad 222" class="cls-1" d="M768.764-827.272l-13.057,13.057L587.416-982.5l13.059-13.057Z" transform="translate(312.886 23.862)"/>
    <path id="Pfad_223" data-name="Pfad 223" class="cls-1" d="M612.343-696.994H785.112V-869.763H612.343Zm18.467-18.467H766.645V-851.3H630.81Z" transform="translate(326.319 91.654)"/>
    <path id="Pfad_224" data-name="Pfad 224" class="cls-1" d="M768.764-881.631,600.475-713.342,587.416-726.4,755.707-894.689Z" transform="translate(312.886 78.221)"/>
    <path id="Pfad_225" data-name="Pfad 225" class="cls-1" d="M813.043-837.352,644.754-669.063,631.7-682.121,799.986-850.41Z" transform="translate(336.748 102.083)"/>
    <path id="Pfad_226" data-name="Pfad 226" class="cls-1" d="M813.043-726.4l-13.058,13.057L631.7-881.631l13.059-13.058Z" transform="translate(336.748 78.221)"/>
    <path id="Pfad_227" data-name="Pfad 227" class="cls-1" d="M768.764-682.121l-13.057,13.057L587.416-837.352l13.059-13.058Z" transform="translate(312.886 102.083)"/>
    <path id="Pfad_228" data-name="Pfad 228" class="cls-1" d="M612.343-551.842H785.112V-724.611H612.343Zm18.467-18.467H766.645V-706.144H630.81Z" transform="translate(326.319 169.876)"/>
    <path id="Pfad_229" data-name="Pfad 229" class="cls-1" d="M768.764-736.48,600.475-568.19l-13.059-13.059L755.707-749.538Z" transform="translate(312.886 156.443)"/>
    <path id="Pfad_230" data-name="Pfad 230" class="cls-1" d="M813.043-692.2,644.754-523.911,631.7-536.97,799.986-705.259Z" transform="translate(336.748 180.305)"/>
    <path id="Pfad_231" data-name="Pfad 231" class="cls-1" d="M813.043-581.249,799.986-568.19,631.7-736.48l13.059-13.058Z" transform="translate(336.748 156.443)"/>
    <path id="Pfad_232" data-name="Pfad 232" class="cls-1" d="M768.764-536.97l-13.057,13.059L587.416-692.2l13.059-13.057Z" transform="translate(312.886 180.305)"/>
    <path id="Pfad_233" data-name="Pfad 233" class="cls-1" d="M612.343-406.691H785.112V-579.46H612.343Zm18.467-18.467H766.645V-560.993H630.81Z" transform="translate(326.319 248.097)"/>
    <path id="Pfad_234" data-name="Pfad 234" class="cls-1" d="M768.764-591.329,600.475-423.039,587.416-436.1,755.707-604.387Z" transform="translate(312.886 234.664)"/>
    <path id="Pfad_235" data-name="Pfad 235" class="cls-1" d="M813.043-547.051,644.754-378.76,631.7-391.819,799.986-560.108Z" transform="translate(336.748 258.526)"/>
    <path id="Pfad_236" data-name="Pfad 236" class="cls-1" d="M813.043-436.1l-13.058,13.059L631.7-591.329l13.059-13.058Z" transform="translate(336.748 234.664)"/>
    <path id="Pfad_237" data-name="Pfad 237" class="cls-1" d="M768.764-391.819,755.707-378.76,587.416-547.051l13.059-13.057Z" transform="translate(312.886 258.526)"/>
    <path id="Pfad_238" data-name="Pfad 238" class="cls-1" d="M612.343-261.54H785.112V-434.309H612.343Zm18.467-18.467H766.645V-415.842H630.81Z" transform="translate(326.319 326.319)"/>
    <path id="Pfad_239" data-name="Pfad 239" class="cls-1" d="M768.764-446.179,600.475-277.888l-13.059-13.058L755.707-459.236Z" transform="translate(312.886 312.886)"/>
    <path id="Pfad_240" data-name="Pfad 240" class="cls-1" d="M813.043-401.9,644.754-233.609,631.7-246.666,799.986-414.957Z" transform="translate(336.748 336.747)"/>
    <path id="Pfad_241" data-name="Pfad 241" class="cls-1" d="M813.043-290.945l-13.058,13.058L631.7-446.179l13.059-13.057Z" transform="translate(336.748 312.886)"/>
    <path id="Pfad_242" data-name="Pfad 242" class="cls-1" d="M768.764-246.666l-13.057,13.057L587.416-401.9l13.059-13.059Z" transform="translate(312.886 336.747)"/>
    <path id="Pfad_243" data-name="Pfad 243" class="cls-1" d="M612.343-116.389H785.112V-289.158H612.343Zm18.467-18.467H766.645V-270.691H630.81Z" transform="translate(326.319 404.54)"/>
    <path id="Pfad_244" data-name="Pfad 244" class="cls-1" d="M768.764-301.026,600.475-132.737l-13.059-13.058L755.707-314.085Z" transform="translate(312.886 391.107)"/>
    <path id="Pfad_245" data-name="Pfad 245" class="cls-1" d="M813.043-256.747,644.754-88.458,631.7-101.515,799.986-269.806Z" transform="translate(336.748 414.969)"/>
    <path id="Pfad_246" data-name="Pfad 246" class="cls-1" d="M813.043-145.794l-13.058,13.058L631.7-301.026l13.059-13.059Z" transform="translate(336.748 391.107)"/>
    <path id="Pfad_247" data-name="Pfad 247" class="cls-1" d="M768.764-101.515,755.707-88.458,587.416-256.747l13.059-13.059Z" transform="translate(312.886 414.969)"/>
    <path id="Pfad_248" data-name="Pfad 248" class="cls-1" d="M612.343,28.762H785.112V-144.007H612.343ZM630.81,10.3H766.645V-125.54H630.81Z" transform="translate(326.319 482.762)"/>
    <path id="Pfad_249" data-name="Pfad 249" class="cls-1" d="M768.764-155.875,600.475,12.415,587.416-.643,755.707-168.934Z" transform="translate(312.886 469.328)"/>
    <path id="Pfad_250" data-name="Pfad 250" class="cls-1" d="M813.043-111.6,644.754,56.693,631.7,43.635,799.986-124.654Z" transform="translate(336.748 493.191)"/>
    <path id="Pfad_251" data-name="Pfad 251" class="cls-1" d="M813.043-.643,799.986,12.415,631.7-155.875l13.059-13.059Z" transform="translate(336.748 469.328)"/>
    <path id="Pfad_252" data-name="Pfad 252" class="cls-1" d="M768.764,43.635,755.707,56.693,587.416-111.6l13.059-13.058Z" transform="translate(312.886 493.191)"/>
    <path id="Pfad_253" data-name="Pfad 253" class="cls-1" d="M757.5-842.145H930.264v-172.769H757.5Zm18.467-18.467H911.8V-996.447H775.962Z" transform="translate(404.541 13.433)"/>
    <path id="Pfad_254" data-name="Pfad 254" class="cls-1" d="M913.915-1026.79l-168.289,168.3-13.057-13.057L900.857-1039.84Z" transform="translate(391.108 0)"/>
    <path id="Pfad_255" data-name="Pfad 255" class="cls-1" d="M958.194-982.5,789.9-814.214l-13.057-13.057L945.136-995.561Z" transform="translate(414.969 23.862)"/>
    <path id="Pfad_256" data-name="Pfad 256" class="cls-1" d="M958.194-871.551l-13.058,13.057-168.289-168.3,13.057-13.05Z" transform="translate(414.969 0)"/>
    <path id="Pfad_257" data-name="Pfad 257" class="cls-1" d="M913.915-827.272l-13.058,13.057L732.568-982.5l13.057-13.057Z" transform="translate(391.108 23.862)"/>
    <path id="Pfad_258" data-name="Pfad 258" class="cls-1" d="M757.5-696.994H930.264V-869.763H757.5Zm18.467-18.467H911.8V-851.3H775.962Z" transform="translate(404.541 91.654)"/>
    <path id="Pfad_259" data-name="Pfad 259" class="cls-1" d="M913.915-881.631,745.625-713.342,732.568-726.4,900.857-894.689Z" transform="translate(391.108 78.221)"/>
    <path id="Pfad_260" data-name="Pfad 260" class="cls-1" d="M958.194-837.352,789.9-669.063l-13.057-13.057L945.136-850.41Z" transform="translate(414.969 102.083)"/>
    <path id="Pfad_261" data-name="Pfad 261" class="cls-1" d="M958.194-726.4l-13.058,13.057L776.847-881.631,789.9-894.689Z" transform="translate(414.969 78.221)"/>
    <path id="Pfad_262" data-name="Pfad 262" class="cls-1" d="M913.915-682.121l-13.058,13.057L732.568-837.352l13.057-13.058Z" transform="translate(391.108 102.083)"/>
    <path id="Pfad_263" data-name="Pfad 263" class="cls-1" d="M757.5-551.842H930.264V-724.611H757.5Zm18.467-18.467H911.8V-706.144H775.962Z" transform="translate(404.541 169.876)"/>
    <path id="Pfad_264" data-name="Pfad 264" class="cls-1" d="M913.915-736.48,745.625-568.19l-13.057-13.059L900.857-749.538Z" transform="translate(391.108 156.443)"/>
    <path id="Pfad_265" data-name="Pfad 265" class="cls-1" d="M958.194-692.2,789.9-523.911,776.847-536.97,945.136-705.259Z" transform="translate(414.969 180.305)"/>
    <path id="Pfad_266" data-name="Pfad 266" class="cls-1" d="M958.194-581.249,945.136-568.19,776.847-736.48,789.9-749.538Z" transform="translate(414.969 156.443)"/>
    <path id="Pfad_267" data-name="Pfad 267" class="cls-1" d="M913.915-536.97l-13.058,13.059L732.568-692.2l13.057-13.057Z" transform="translate(391.108 180.305)"/>
    <path id="Pfad_268" data-name="Pfad 268" class="cls-1" d="M757.5-406.691H930.264V-579.46H757.5Zm18.467-18.467H911.8V-560.993H775.962Z" transform="translate(404.541 248.097)"/>
    <path id="Pfad_269" data-name="Pfad 269" class="cls-1" d="M913.915-591.329,745.625-423.039,732.568-436.1,900.857-604.387Z" transform="translate(391.108 234.664)"/>
    <path id="Pfad_270" data-name="Pfad 270" class="cls-1" d="M958.194-547.051,789.9-378.76l-13.057-13.059L945.136-560.108Z" transform="translate(414.969 258.526)"/>
    <path id="Pfad_271" data-name="Pfad 271" class="cls-1" d="M958.194-436.1l-13.058,13.059L776.847-591.329,789.9-604.387Z" transform="translate(414.969 234.664)"/>
    <path id="Pfad_272" data-name="Pfad 272" class="cls-1" d="M913.915-391.819,900.857-378.76,732.568-547.051l13.057-13.057Z" transform="translate(391.108 258.526)"/>
    <path id="Pfad_273" data-name="Pfad 273" class="cls-1" d="M757.5-261.54H930.264V-434.309H757.5Zm18.467-18.467H911.8V-415.842H775.962Z" transform="translate(404.541 326.319)"/>
    <path id="Pfad_274" data-name="Pfad 274" class="cls-1" d="M913.915-446.179,745.625-277.888l-13.057-13.058L900.857-459.236Z" transform="translate(391.108 312.886)"/>
    <path id="Pfad_275" data-name="Pfad 275" class="cls-1" d="M958.194-401.9,789.9-233.609l-13.057-13.057L945.136-414.957Z" transform="translate(414.969 336.747)"/>
    <path id="Pfad_276" data-name="Pfad 276" class="cls-1" d="M958.194-290.945l-13.058,13.058L776.847-446.179,789.9-459.236Z" transform="translate(414.969 312.886)"/>
    <path id="Pfad_277" data-name="Pfad 277" class="cls-1" d="M913.915-246.666l-13.058,13.057L732.568-401.9l13.057-13.059Z" transform="translate(391.108 336.747)"/>
    <path id="Pfad_278" data-name="Pfad 278" class="cls-1" d="M757.5-116.389H930.264V-289.158H757.5Zm18.467-18.467H911.8V-270.691H775.962Z" transform="translate(404.541 404.54)"/>
    <path id="Pfad_279" data-name="Pfad 279" class="cls-1" d="M913.915-301.026,745.625-132.737l-13.057-13.058L900.857-314.085Z" transform="translate(391.108 391.107)"/>
    <path id="Pfad_280" data-name="Pfad 280" class="cls-1" d="M958.194-256.747,789.9-88.458l-13.057-13.058L945.136-269.806Z" transform="translate(414.969 414.969)"/>
    <path id="Pfad_281" data-name="Pfad 281" class="cls-1" d="M958.194-145.794l-13.058,13.058L776.847-301.026,789.9-314.085Z" transform="translate(414.969 391.107)"/>
    <path id="Pfad_282" data-name="Pfad 282" class="cls-1" d="M913.915-101.515,900.857-88.458,732.568-256.747l13.057-13.059Z" transform="translate(391.108 414.969)"/>
    <path id="Pfad_283" data-name="Pfad 283" class="cls-1" d="M757.5,28.762H930.264V-144.007H757.5ZM775.962,10.3H911.8V-125.54H775.962Z" transform="translate(404.541 482.762)"/>
    <path id="Pfad_284" data-name="Pfad 284" class="cls-1" d="M913.915-155.875,745.625,12.415,732.568-.643,900.857-168.934Z" transform="translate(391.108 469.328)"/>
    <path id="Pfad_285" data-name="Pfad 285" class="cls-1" d="M958.194-111.6,789.9,56.693,776.847,43.635,945.136-124.654Z" transform="translate(414.969 493.191)"/>
    <path id="Pfad_286" data-name="Pfad 286" class="cls-1" d="M958.194-.643,945.136,12.415,776.847-155.875,789.9-168.934Z" transform="translate(414.969 469.328)"/>
    <path id="Pfad_287" data-name="Pfad 287" class="cls-1" d="M913.915,43.635,900.857,56.693,732.568-111.6l13.057-13.058Z" transform="translate(391.108 493.191)"/>
    <path id="Pfad_288" data-name="Pfad 288" class="cls-1" d="M902.646-842.145h172.769v-172.769H902.646Zm18.467-18.467h135.835V-996.447H921.113Z" transform="translate(482.762 13.433)"/>
    <path id="Pfad_289" data-name="Pfad 289" class="cls-1" d="M1059.066-1026.79l-168.289,168.3-13.057-13.057,168.289-168.289Z" transform="translate(469.329 0)"/>
    <path id="Pfad_290" data-name="Pfad 290" class="cls-1" d="M1103.345-982.5,935.056-814.214,922-827.272l168.3-168.289Z" transform="translate(493.191 23.862)"/>
    <path id="Pfad_291" data-name="Pfad 291" class="cls-1" d="M1103.345-871.551l-13.05,13.057L922-1026.79l13.057-13.05Z" transform="translate(493.191 0)"/>
    <path id="Pfad_292" data-name="Pfad 292" class="cls-1" d="M1059.066-827.272l-13.058,13.057L877.719-982.5l13.057-13.057Z" transform="translate(469.329 23.862)"/>
    <path id="Pfad_293" data-name="Pfad 293" class="cls-1" d="M902.646-696.994h172.769V-869.763H902.646Zm18.467-18.467h135.835V-851.3H921.113Z" transform="translate(482.762 91.654)"/>
    <path id="Pfad_294" data-name="Pfad 294" class="cls-1" d="M1059.066-881.631,890.777-713.342,877.719-726.4l168.289-168.289Z" transform="translate(469.329 78.221)"/>
    <path id="Pfad_295" data-name="Pfad 295" class="cls-1" d="M1103.345-837.352,935.056-669.063,922-682.121l168.3-168.289Z" transform="translate(493.191 102.083)"/>
    <path id="Pfad_296" data-name="Pfad 296" class="cls-1" d="M1103.345-726.4l-13.05,13.057L922-881.631l13.057-13.058Z" transform="translate(493.191 78.221)"/>
    <path id="Pfad_297" data-name="Pfad 297" class="cls-1" d="M1059.066-682.121l-13.058,13.057L877.719-837.352l13.057-13.058Z" transform="translate(469.329 102.083)"/>
    <path id="Pfad_298" data-name="Pfad 298" class="cls-1" d="M902.646-551.842h172.769V-724.611H902.646Zm18.467-18.467h135.835V-706.144H921.113Z" transform="translate(482.762 169.876)"/>
    <path id="Pfad_299" data-name="Pfad 299" class="cls-1" d="M1059.066-736.48,890.777-568.19l-13.057-13.059,168.289-168.289Z" transform="translate(469.329 156.443)"/>
    <path id="Pfad_300" data-name="Pfad 300" class="cls-1" d="M1103.345-692.2,935.056-523.911,922-536.97l168.3-168.289Z" transform="translate(493.191 180.305)"/>
    <path id="Pfad_301" data-name="Pfad 301" class="cls-1" d="M1103.345-581.249l-13.05,13.059L922-736.48l13.057-13.058Z" transform="translate(493.191 156.443)"/>
    <path id="Pfad_302" data-name="Pfad 302" class="cls-1" d="M1059.066-536.97l-13.058,13.059L877.719-692.2l13.057-13.057Z" transform="translate(469.329 180.305)"/>
    <path id="Pfad_303" data-name="Pfad 303" class="cls-1" d="M902.646-406.691h172.769V-579.46H902.646Zm18.467-18.467h135.835V-560.993H921.113Z" transform="translate(482.762 248.097)"/>
    <path id="Pfad_304" data-name="Pfad 304" class="cls-1" d="M1059.066-591.329,890.777-423.039,877.719-436.1l168.289-168.289Z" transform="translate(469.329 234.664)"/>
    <path id="Pfad_305" data-name="Pfad 305" class="cls-1" d="M1103.345-547.051,935.056-378.76,922-391.819l168.3-168.289Z" transform="translate(493.191 258.526)"/>
    <path id="Pfad_306" data-name="Pfad 306" class="cls-1" d="M1103.345-436.1l-13.05,13.059L922-591.329l13.057-13.058Z" transform="translate(493.191 234.664)"/>
    <path id="Pfad_307" data-name="Pfad 307" class="cls-1" d="M1059.066-391.819l-13.058,13.059L877.719-547.051l13.057-13.057Z" transform="translate(469.329 258.526)"/>
    <path id="Pfad_308" data-name="Pfad 308" class="cls-1" d="M902.646-261.54h172.769V-434.309H902.646Zm18.467-18.467h135.835V-415.842H921.113Z" transform="translate(482.762 326.319)"/>
    <path id="Pfad_309" data-name="Pfad 309" class="cls-1" d="M1059.066-446.179,890.777-277.888l-13.057-13.058,168.289-168.291Z" transform="translate(469.329 312.886)"/>
    <path id="Pfad_310" data-name="Pfad 310" class="cls-1" d="M1103.345-401.9,935.056-233.609,922-246.666l168.3-168.291Z" transform="translate(493.191 336.747)"/>
    <path id="Pfad_311" data-name="Pfad 311" class="cls-1" d="M1103.345-290.945l-13.05,13.058L922-446.179l13.057-13.057Z" transform="translate(493.191 312.886)"/>
    <path id="Pfad_312" data-name="Pfad 312" class="cls-1" d="M1059.066-246.666l-13.058,13.057L877.719-401.9l13.057-13.059Z" transform="translate(469.329 336.747)"/>
    <path id="Pfad_313" data-name="Pfad 313" class="cls-1" d="M902.646-116.389h172.769V-289.158H902.646Zm18.467-18.467h135.835V-270.691H921.113Z" transform="translate(482.762 404.54)"/>
    <path id="Pfad_314" data-name="Pfad 314" class="cls-1" d="M1059.066-301.026,890.777-132.737l-13.057-13.058,168.289-168.291Z" transform="translate(469.329 391.107)"/>
    <path id="Pfad_315" data-name="Pfad 315" class="cls-1" d="M1103.345-256.747,935.056-88.458,922-101.515l168.3-168.291Z" transform="translate(493.191 414.969)"/>
    <path id="Pfad_316" data-name="Pfad 316" class="cls-1" d="M1103.345-145.794l-13.05,13.058L922-301.026l13.057-13.059Z" transform="translate(493.191 391.107)"/>
    <path id="Pfad_317" data-name="Pfad 317" class="cls-1" d="M1059.066-101.515l-13.058,13.058L877.719-256.747l13.057-13.059Z" transform="translate(469.329 414.969)"/>
    <path id="Pfad_318" data-name="Pfad 318" class="cls-1" d="M902.646,28.762h172.769V-144.007H902.646ZM921.113,10.3h135.835V-125.54H921.113Z" transform="translate(482.762 482.762)"/>
    <path id="Pfad_319" data-name="Pfad 319" class="cls-1" d="M1059.066-155.875,890.777,12.415,877.719-.643l168.289-168.291Z" transform="translate(469.329 469.328)"/>
    <path id="Pfad_320" data-name="Pfad 320" class="cls-1" d="M1103.345-111.6,935.056,56.693,922,43.635l168.3-168.289Z" transform="translate(493.191 493.191)"/>
    <path id="Pfad_321" data-name="Pfad 321" class="cls-1" d="M1103.345-.643l-13.05,13.058L922-155.875l13.057-13.059Z" transform="translate(493.191 469.328)"/>
    <path id="Pfad_322" data-name="Pfad 322" class="cls-1" d="M1059.066,43.635l-13.058,13.058L877.719-111.6l13.057-13.058Z" transform="translate(469.329 493.191)"/>
    <path id="Pfad_323" data-name="Pfad 323" class="cls-1" d="M1047.8-842.145h172.769v-172.769H1047.8Zm18.467-18.467H1202.1V-996.447H1066.267Z" transform="translate(560.985 13.433)"/>
    <path id="Pfad_324" data-name="Pfad 324" class="cls-1" d="M1204.214-1026.79l-168.278,168.3-13.065-13.057,168.294-168.289Z" transform="translate(547.55 0)"/>
    <path id="Pfad_325" data-name="Pfad 325" class="cls-1" d="M1248.494-982.5,1080.2-814.214l-13.05-13.057,168.294-168.289Z" transform="translate(571.413 23.862)"/>
    <path id="Pfad_326" data-name="Pfad 326" class="cls-1" d="M1248.494-871.551l-13.05,13.057-168.294-168.3,13.05-13.05Z" transform="translate(571.413 0)"/>
    <path id="Pfad_327" data-name="Pfad 327" class="cls-1" d="M1204.214-827.272l-13.05,13.057L1022.87-982.5l13.065-13.057Z" transform="translate(547.55 23.862)"/>
    <path id="Pfad_328" data-name="Pfad 328" class="cls-1" d="M1047.8-696.994h172.769V-869.763H1047.8Zm18.467-18.467H1202.1V-851.3H1066.267Z" transform="translate(560.985 91.654)"/>
    <path id="Pfad_329" data-name="Pfad 329" class="cls-1" d="M1204.214-881.631,1035.935-713.342,1022.87-726.4l168.294-168.289Z" transform="translate(547.55 78.221)"/>
    <path id="Pfad_330" data-name="Pfad 330" class="cls-1" d="M1248.494-837.352,1080.2-669.063l-13.05-13.057L1235.444-850.41Z" transform="translate(571.413 102.083)"/>
    <path id="Pfad_331" data-name="Pfad 331" class="cls-1" d="M1248.494-726.4l-13.05,13.057L1067.15-881.631l13.05-13.058Z" transform="translate(571.413 78.221)"/>
    <path id="Pfad_332" data-name="Pfad 332" class="cls-1" d="M1204.214-682.121l-13.05,13.057L1022.87-837.352l13.065-13.058Z" transform="translate(547.55 102.083)"/>
    <path id="Pfad_333" data-name="Pfad 333" class="cls-1" d="M1047.8-551.842h172.769V-724.611H1047.8Zm18.467-18.467H1202.1V-706.144H1066.267Z" transform="translate(560.985 169.876)"/>
    <path id="Pfad_334" data-name="Pfad 334" class="cls-1" d="M1204.214-736.48,1035.935-568.19l-13.065-13.059,168.294-168.289Z" transform="translate(547.55 156.443)"/>
    <path id="Pfad_335" data-name="Pfad 335" class="cls-1" d="M1248.494-692.2,1080.2-523.911l-13.05-13.059,168.294-168.289Z" transform="translate(571.413 180.305)"/>
    <path id="Pfad_336" data-name="Pfad 336" class="cls-1" d="M1248.494-581.249l-13.05,13.059L1067.15-736.48l13.05-13.058Z" transform="translate(571.413 156.443)"/>
    <path id="Pfad_337" data-name="Pfad 337" class="cls-1" d="M1204.214-536.97l-13.05,13.059L1022.87-692.2l13.065-13.057Z" transform="translate(547.55 180.305)"/>
    <path id="Pfad_338" data-name="Pfad 338" class="cls-1" d="M1047.8-406.691h172.769V-579.46H1047.8Zm18.467-18.467H1202.1V-560.993H1066.267Z" transform="translate(560.985 248.097)"/>
    <path id="Pfad_339" data-name="Pfad 339" class="cls-1" d="M1204.214-591.329,1035.935-423.039,1022.87-436.1l168.294-168.289Z" transform="translate(547.55 234.664)"/>
    <path id="Pfad_340" data-name="Pfad 340" class="cls-1" d="M1248.494-547.051,1080.2-378.76l-13.05-13.059,168.294-168.289Z" transform="translate(571.413 258.526)"/>
    <path id="Pfad_341" data-name="Pfad 341" class="cls-1" d="M1248.494-436.1l-13.05,13.059L1067.15-591.329l13.05-13.058Z" transform="translate(571.413 234.664)"/>
    <path id="Pfad_342" data-name="Pfad 342" class="cls-1" d="M1204.214-391.819l-13.05,13.059L1022.87-547.051l13.065-13.057Z" transform="translate(547.55 258.526)"/>
    <path id="Pfad_343" data-name="Pfad 343" class="cls-1" d="M1047.8-261.54h172.769V-434.309H1047.8Zm18.467-18.467H1202.1V-415.842H1066.267Z" transform="translate(560.985 326.319)"/>
    <path id="Pfad_344" data-name="Pfad 344" class="cls-1" d="M1204.214-446.179,1035.935-277.888l-13.065-13.058,168.294-168.291Z" transform="translate(547.55 312.886)"/>
    <path id="Pfad_345" data-name="Pfad 345" class="cls-1" d="M1248.494-401.9,1080.2-233.609l-13.05-13.057,168.294-168.291Z" transform="translate(571.413 336.747)"/>
    <path id="Pfad_346" data-name="Pfad 346" class="cls-1" d="M1248.494-290.945l-13.05,13.058L1067.15-446.179l13.05-13.057Z" transform="translate(571.413 312.886)"/>
    <path id="Pfad_347" data-name="Pfad 347" class="cls-1" d="M1204.214-246.666l-13.05,13.057L1022.87-401.9l13.065-13.059Z" transform="translate(547.55 336.747)"/>
    <path id="Pfad_348" data-name="Pfad 348" class="cls-1" d="M1047.8-116.389h172.769V-289.158H1047.8Zm18.467-18.467H1202.1V-270.691H1066.267Z" transform="translate(560.985 404.54)"/>
    <path id="Pfad_349" data-name="Pfad 349" class="cls-1" d="M1204.214-301.026,1035.935-132.737l-13.065-13.058,168.294-168.291Z" transform="translate(547.55 391.107)"/>
    <path id="Pfad_350" data-name="Pfad 350" class="cls-1" d="M1248.494-256.747,1080.2-88.458l-13.05-13.058,168.294-168.291Z" transform="translate(571.413 414.969)"/>
    <path id="Pfad_351" data-name="Pfad 351" class="cls-1" d="M1248.494-145.794l-13.05,13.058L1067.15-301.026l13.05-13.059Z" transform="translate(571.413 391.107)"/>
    <path id="Pfad_352" data-name="Pfad 352" class="cls-1" d="M1204.214-101.515l-13.05,13.058L1022.87-256.747l13.065-13.059Z" transform="translate(547.55 414.969)"/>
    <path id="Pfad_353" data-name="Pfad 353" class="cls-1" d="M1047.8,28.762h172.769V-144.007H1047.8ZM1066.267,10.3H1202.1V-125.54H1066.267Z" transform="translate(560.985 482.762)"/>
    <path id="Pfad_354" data-name="Pfad 354" class="cls-1" d="M1204.214-155.875,1035.935,12.415,1022.87-.643l168.294-168.291Z" transform="translate(547.55 469.328)"/>
    <path id="Pfad_355" data-name="Pfad 355" class="cls-1" d="M1248.494-111.6,1080.2,56.693l-13.05-13.058,168.294-168.289Z" transform="translate(571.413 493.191)"/>
    <path id="Pfad_356" data-name="Pfad 356" class="cls-1" d="M1248.494-.643l-13.05,13.058L1067.15-155.875l13.05-13.059Z" transform="translate(571.413 469.328)"/>
    <path id="Pfad_357" data-name="Pfad 357" class="cls-1" d="M1204.214,43.635l-13.05,13.058L1022.87-111.6l13.065-13.058Z" transform="translate(547.55 493.191)"/>
    <path id="Pfad_358" data-name="Pfad 358" class="cls-1" d="M1192.95-842.145h172.769v-172.769H1192.95Zm18.467-18.467h135.835V-996.447H1211.417Z" transform="translate(639.206 13.433)"/>
    <path id="Pfad_359" data-name="Pfad 359" class="cls-1" d="M1349.364-1026.79l-168.278,168.3-13.065-13.057,168.294-168.289Z" transform="translate(625.771 0)"/>
    <path id="Pfad_360" data-name="Pfad 360" class="cls-1" d="M1393.644-982.5,1225.365-814.214,1212.3-827.272l168.294-168.289Z" transform="translate(649.634 23.862)"/>
    <path id="Pfad_361" data-name="Pfad 361" class="cls-1" d="M1393.644-871.551l-13.05,13.057L1212.3-1026.79l13.065-13.05Z" transform="translate(649.634 0)"/>
    <path id="Pfad_362" data-name="Pfad 362" class="cls-1" d="M1349.364-827.272l-13.05,13.057L1168.02-982.5l13.065-13.057Z" transform="translate(625.771 23.862)"/>
    <path id="Pfad_363" data-name="Pfad 363" class="cls-1" d="M1192.95-696.994h172.769V-869.763H1192.95Zm18.467-18.467h135.835V-851.3H1211.417Z" transform="translate(639.206 91.654)"/>
    <path id="Pfad_364" data-name="Pfad 364" class="cls-1" d="M1349.364-881.631,1181.085-713.342,1168.02-726.4l168.294-168.289Z" transform="translate(625.771 78.221)"/>
    <path id="Pfad_365" data-name="Pfad 365" class="cls-1" d="M1393.644-837.352,1225.365-669.063,1212.3-682.121,1380.594-850.41Z" transform="translate(649.634 102.083)"/>
    <path id="Pfad_366" data-name="Pfad 366" class="cls-1" d="M1393.644-726.4l-13.05,13.057L1212.3-881.631l13.065-13.058Z" transform="translate(649.634 78.221)"/>
    <path id="Pfad_367" data-name="Pfad 367" class="cls-1" d="M1349.364-682.121l-13.05,13.057L1168.02-837.352l13.065-13.058Z" transform="translate(625.771 102.083)"/>
    <path id="Pfad_368" data-name="Pfad 368" class="cls-1" d="M1192.95-551.842h172.769V-724.611H1192.95Zm18.467-18.467h135.835V-706.144H1211.417Z" transform="translate(639.206 169.876)"/>
    <path id="Pfad_369" data-name="Pfad 369" class="cls-1" d="M1349.364-736.48,1181.085-568.19l-13.065-13.059,168.294-168.289Z" transform="translate(625.771 156.443)"/>
    <path id="Pfad_370" data-name="Pfad 370" class="cls-1" d="M1393.644-692.2,1225.365-523.911,1212.3-536.97l168.294-168.289Z" transform="translate(649.634 180.305)"/>
    <path id="Pfad_371" data-name="Pfad 371" class="cls-1" d="M1393.644-581.249l-13.05,13.059L1212.3-736.48l13.065-13.058Z" transform="translate(649.634 156.443)"/>
    <path id="Pfad_372" data-name="Pfad 372" class="cls-1" d="M1349.364-536.97l-13.05,13.059L1168.02-692.2l13.065-13.057Z" transform="translate(625.771 180.305)"/>
    <path id="Pfad_373" data-name="Pfad 373" class="cls-1" d="M1192.95-406.691h172.769V-579.46H1192.95Zm18.467-18.467h135.835V-560.993H1211.417Z" transform="translate(639.206 248.097)"/>
    <path id="Pfad_374" data-name="Pfad 374" class="cls-1" d="M1349.364-591.329,1181.085-423.039,1168.02-436.1l168.294-168.289Z" transform="translate(625.771 234.664)"/>
    <path id="Pfad_375" data-name="Pfad 375" class="cls-1" d="M1393.644-547.051,1225.365-378.76,1212.3-391.819l168.294-168.289Z" transform="translate(649.634 258.526)"/>
    <path id="Pfad_376" data-name="Pfad 376" class="cls-1" d="M1393.644-436.1l-13.05,13.059L1212.3-591.329l13.065-13.058Z" transform="translate(649.634 234.664)"/>
    <path id="Pfad_377" data-name="Pfad 377" class="cls-1" d="M1349.364-391.819l-13.05,13.059L1168.02-547.051l13.065-13.057Z" transform="translate(625.771 258.526)"/>
    <path id="Pfad_378" data-name="Pfad 378" class="cls-1" d="M1192.95-261.54h172.769V-434.309H1192.95Zm18.467-18.467h135.835V-415.842H1211.417Z" transform="translate(639.206 326.319)"/>
    <path id="Pfad_379" data-name="Pfad 379" class="cls-1" d="M1349.364-446.179,1181.085-277.888l-13.065-13.058,168.294-168.291Z" transform="translate(625.771 312.886)"/>
    <path id="Pfad_380" data-name="Pfad 380" class="cls-1" d="M1393.644-401.9,1225.365-233.609,1212.3-246.666l168.294-168.291Z" transform="translate(649.634 336.747)"/>
    <path id="Pfad_381" data-name="Pfad 381" class="cls-1" d="M1393.644-290.945l-13.05,13.058L1212.3-446.179l13.065-13.057Z" transform="translate(649.634 312.886)"/>
    <path id="Pfad_382" data-name="Pfad 382" class="cls-1" d="M1349.364-246.666l-13.05,13.057L1168.02-401.9l13.065-13.059Z" transform="translate(625.771 336.747)"/>
    <path id="Pfad_383" data-name="Pfad 383" class="cls-1" d="M1192.95-116.389h172.769V-289.158H1192.95Zm18.467-18.467h135.835V-270.691H1211.417Z" transform="translate(639.206 404.54)"/>
    <path id="Pfad_384" data-name="Pfad 384" class="cls-1" d="M1349.364-301.026,1181.085-132.737l-13.065-13.058,168.294-168.291Z" transform="translate(625.771 391.107)"/>
    <path id="Pfad_385" data-name="Pfad 385" class="cls-1" d="M1393.644-256.747,1225.365-88.458,1212.3-101.515l168.294-168.291Z" transform="translate(649.634 414.969)"/>
    <path id="Pfad_386" data-name="Pfad 386" class="cls-1" d="M1393.644-145.794l-13.05,13.058L1212.3-301.026l13.065-13.059Z" transform="translate(649.634 391.107)"/>
    <path id="Pfad_387" data-name="Pfad 387" class="cls-1" d="M1349.364-101.515l-13.05,13.058L1168.02-256.747l13.065-13.059Z" transform="translate(625.771 414.969)"/>
    <path id="Pfad_388" data-name="Pfad 388" class="cls-1" d="M1192.95,28.762h172.769V-144.007H1192.95ZM1211.417,10.3h135.835V-125.54H1211.417Z" transform="translate(639.206 482.762)"/>
    <path id="Pfad_389" data-name="Pfad 389" class="cls-1" d="M1349.364-155.875,1181.085,12.415,1168.02-.643l168.294-168.291Z" transform="translate(625.771 469.328)"/>
    <path id="Pfad_390" data-name="Pfad 390" class="cls-1" d="M1393.644-111.6,1225.365,56.693,1212.3,43.635l168.294-168.289Z" transform="translate(649.634 493.191)"/>
    <path id="Pfad_391" data-name="Pfad 391" class="cls-1" d="M1393.644-.643l-13.05,13.058L1212.3-155.875l13.065-13.059Z" transform="translate(649.634 469.328)"/>
    <path id="Pfad_392" data-name="Pfad 392" class="cls-1" d="M1349.364,43.635l-13.05,13.058L1168.02-111.6l13.065-13.058Z" transform="translate(625.771 493.191)"/>
    <path id="Pfad_393" data-name="Pfad 393" class="cls-1" d="M1338.1-842.145h172.769v-172.769H1338.1Zm18.467-18.467H1492.4V-996.447H1356.567Z" transform="translate(717.427 13.433)"/>
    <path id="Pfad_394" data-name="Pfad 394" class="cls-1" d="M1494.529-1026.79l-168.294,168.3-13.065-13.057,168.294-168.289Z" transform="translate(703.992 0)"/>
    <path id="Pfad_395" data-name="Pfad 395" class="cls-1" d="M1538.794-982.5,1370.515-814.214l-13.065-13.057,168.294-168.289Z" transform="translate(727.855 23.862)"/>
    <path id="Pfad_396" data-name="Pfad 396" class="cls-1" d="M1538.794-871.551l-13.05,13.057-168.294-168.3,13.065-13.05Z" transform="translate(727.855 0)"/>
    <path id="Pfad_397" data-name="Pfad 397" class="cls-1" d="M1494.529-827.272l-13.065,13.057L1313.17-982.5l13.065-13.057Z" transform="translate(703.992 23.862)"/>
    <path id="Pfad_398" data-name="Pfad 398" class="cls-1" d="M1338.1-696.994h172.769V-869.763H1338.1Zm18.467-18.467H1492.4V-851.3H1356.567Z" transform="translate(717.427 91.654)"/>
    <path id="Pfad_399" data-name="Pfad 399" class="cls-1" d="M1494.529-881.631,1326.235-713.342,1313.17-726.4l168.294-168.289Z" transform="translate(703.992 78.221)"/>
    <path id="Pfad_400" data-name="Pfad 400" class="cls-1" d="M1538.794-837.352,1370.515-669.063l-13.065-13.057L1525.744-850.41Z" transform="translate(727.855 102.083)"/>
    <path id="Pfad_401" data-name="Pfad 401" class="cls-1" d="M1538.794-726.4l-13.05,13.057L1357.45-881.631l13.065-13.058Z" transform="translate(727.855 78.221)"/>
    <path id="Pfad_402" data-name="Pfad 402" class="cls-1" d="M1494.529-682.121l-13.065,13.057L1313.17-837.352l13.065-13.058Z" transform="translate(703.992 102.083)"/>
    <path id="Pfad_403" data-name="Pfad 403" class="cls-1" d="M1338.1-551.842h172.769V-724.611H1338.1Zm18.467-18.467H1492.4V-706.144H1356.567Z" transform="translate(717.427 169.876)"/>
    <path id="Pfad_404" data-name="Pfad 404" class="cls-1" d="M1494.529-736.48,1326.235-568.19l-13.065-13.059,168.294-168.289Z" transform="translate(703.992 156.443)"/>
    <path id="Pfad_405" data-name="Pfad 405" class="cls-1" d="M1538.794-692.2,1370.515-523.911,1357.45-536.97l168.294-168.289Z" transform="translate(727.855 180.305)"/>
    <path id="Pfad_406" data-name="Pfad 406" class="cls-1" d="M1538.794-581.249l-13.05,13.059L1357.45-736.48l13.065-13.058Z" transform="translate(727.855 156.443)"/>
    <path id="Pfad_407" data-name="Pfad 407" class="cls-1" d="M1494.529-536.97l-13.065,13.059L1313.17-692.2l13.065-13.057Z" transform="translate(703.992 180.305)"/>
    <path id="Pfad_408" data-name="Pfad 408" class="cls-1" d="M1338.1-406.691h172.769V-579.46H1338.1Zm18.467-18.467H1492.4V-560.993H1356.567Z" transform="translate(717.427 248.097)"/>
    <path id="Pfad_409" data-name="Pfad 409" class="cls-1" d="M1494.529-591.329,1326.235-423.039,1313.17-436.1l168.294-168.289Z" transform="translate(703.992 234.664)"/>
    <path id="Pfad_410" data-name="Pfad 410" class="cls-1" d="M1538.794-547.051,1370.515-378.76l-13.065-13.059,168.294-168.289Z" transform="translate(727.855 258.526)"/>
    <path id="Pfad_411" data-name="Pfad 411" class="cls-1" d="M1538.794-436.1l-13.05,13.059L1357.45-591.329l13.065-13.058Z" transform="translate(727.855 234.664)"/>
    <path id="Pfad_412" data-name="Pfad 412" class="cls-1" d="M1494.529-391.819l-13.065,13.059L1313.17-547.051l13.065-13.057Z" transform="translate(703.992 258.526)"/>
    <path id="Pfad_413" data-name="Pfad 413" class="cls-1" d="M1338.1-261.54h172.769V-434.309H1338.1Zm18.467-18.467H1492.4V-415.842H1356.567Z" transform="translate(717.427 326.319)"/>
    <path id="Pfad_414" data-name="Pfad 414" class="cls-1" d="M1494.529-446.179,1326.235-277.888l-13.065-13.058,168.294-168.291Z" transform="translate(703.992 312.886)"/>
    <path id="Pfad_415" data-name="Pfad 415" class="cls-1" d="M1538.794-401.9,1370.515-233.609l-13.065-13.057,168.294-168.291Z" transform="translate(727.855 336.747)"/>
    <path id="Pfad_416" data-name="Pfad 416" class="cls-1" d="M1538.794-290.945l-13.05,13.058L1357.45-446.179l13.065-13.057Z" transform="translate(727.855 312.886)"/>
    <path id="Pfad_417" data-name="Pfad 417" class="cls-1" d="M1494.529-246.666l-13.065,13.057L1313.17-401.9l13.065-13.059Z" transform="translate(703.992 336.747)"/>
    <path id="Pfad_418" data-name="Pfad 418" class="cls-1" d="M1338.1-116.389h172.769V-289.158H1338.1Zm18.467-18.467H1492.4V-270.691H1356.567Z" transform="translate(717.427 404.54)"/>
    <path id="Pfad_419" data-name="Pfad 419" class="cls-1" d="M1494.529-301.026,1326.235-132.737l-13.065-13.058,168.294-168.291Z" transform="translate(703.992 391.107)"/>
    <path id="Pfad_420" data-name="Pfad 420" class="cls-1" d="M1538.794-256.747,1370.515-88.458l-13.065-13.058,168.294-168.291Z" transform="translate(727.855 414.969)"/>
    <path id="Pfad_421" data-name="Pfad 421" class="cls-1" d="M1538.794-145.794l-13.05,13.058L1357.45-301.026l13.065-13.059Z" transform="translate(727.855 391.107)"/>
    <path id="Pfad_422" data-name="Pfad 422" class="cls-1" d="M1494.529-101.515l-13.065,13.058L1313.17-256.747l13.065-13.059Z" transform="translate(703.992 414.969)"/>
    <path id="Pfad_423" data-name="Pfad 423" class="cls-1" d="M1338.1,28.762h172.769V-144.007H1338.1ZM1356.567,10.3H1492.4V-125.54H1356.567Z" transform="translate(717.427 482.762)"/>
    <path id="Pfad_424" data-name="Pfad 424" class="cls-1" d="M1494.529-155.875,1326.235,12.415,1313.17-.643l168.294-168.291Z" transform="translate(703.992 469.328)"/>
    <path id="Pfad_425" data-name="Pfad 425" class="cls-1" d="M1538.794-111.6,1370.515,56.693,1357.45,43.635l168.294-168.289Z" transform="translate(727.855 493.191)"/>
    <path id="Pfad_426" data-name="Pfad 426" class="cls-1" d="M1538.794-.643l-13.05,13.058L1357.45-155.875l13.065-13.059Z" transform="translate(727.855 469.328)"/>
    <path id="Pfad_427" data-name="Pfad 427" class="cls-1" d="M1494.529,43.635l-13.065,13.058L1313.17-111.6l13.065-13.058Z" transform="translate(703.992 493.191)"/>
  </g>
</svg>
