<?xml version="1.0" encoding="UTF-8" standalone="no"?>
<!DOCTYPE svg PUBLIC "-//W3C//DTD SVG 1.1//EN" "http://www.w3.org/Graphics/SVG/1.1/DTD/svg11.dtd">
<svg width="100%" height="100%" viewBox="0 0 84 153" version="1.1" xmlns="http://www.w3.org/2000/svg" xmlns:xlink="http://www.w3.org/1999/xlink" xml:space="preserve" xmlns:serif="http://www.serif.com/" style="fill-rule:evenodd;clip-rule:evenodd;stroke-linejoin:round;stroke-miterlimit:2;">
    <g transform="matrix(1,0,0,1,-10337.7,-13520.9)">
        <g transform="matrix(1,0,0,9.50258,9079.47,5855.71)">
            <g transform="matrix(1,0,0,0.0526173,-8664.83,99.5445)">
                <path d="M9988.68,13730L9988.68,13730.1L9964.88,13741.3L9964.86,13742L9964.76,13742.2L9963.95,13741.8L9963.14,13742.2L9962.96,13741.9L9962.98,13741.3L9940.54,13730L9944.18,13710.1L9985.05,13710.1L9988.68,13730ZM9944.84,13712L9941.8,13728.7L9963.96,13739.8L9964.61,13712L9944.84,13712ZM9964.61,13712L9963.96,13739.8L9987.43,13728.7L9984.38,13712L9964.61,13712Z"/>
            </g>
        </g>
        <g transform="matrix(1,0,0,9.50258,9079.47,5855.71)">
            <g transform="matrix(1,0,0,0.105235,-8909.21,-616.826)">
                <path d="M10209.1,13528L10209.2,13528L10209.3,13528L10209.4,13528L10209.5,13528L10209.5,13528L10209.6,13528.1L10209.7,13528.1L10209.7,13528.1L10209.8,13528.1L10209.9,13528.1L10210,13528.1L10210,13528.1L10210.1,13528.1L10210.2,13528.1L10210.3,13528.2L10210.3,13528.2L10210.4,13528.2L10210.5,13528.2L10210.6,13528.2L10210.6,13528.2L10210.8,13528.3L10210.9,13528.3L10211,13528.4L10211.1,13528.4L10211.2,13528.4L10211.3,13528.5L10211.4,13528.5L10211.6,13528.6L10211.7,13528.7L10211.8,13528.7L10212,13528.8L10212.1,13528.9L10212.2,13529L10212.3,13529L10212.4,13529.1L10212.6,13529.2L10212.7,13529.3L10212.8,13529.4L10212.9,13529.5L10213,13529.6L10213.1,13529.7L10213.2,13529.8L10213.3,13529.9L10213.4,13530L10213.5,13530.1L10213.6,13530.2L10213.7,13530.3L10213.8,13530.4L10213.8,13530.5L10213.9,13530.6L10214,13530.8L10214.1,13530.9L10214.1,13531L10214.2,13531.1L10214.3,13531.3L10214.4,13531.4L10214.4,13531.5L10214.5,13531.7L10214.5,13531.8L10214.6,13531.9L10214.6,13531.9L10214.6,13532.1L10214.7,13532.2L10214.7,13532.3L10214.7,13532.4L10214.8,13532.5L10214.8,13532.6L10214.8,13532.6L10214.8,13532.7L10214.8,13532.8L10214.8,13532.8L10214.8,13532.9L10214.9,13533L10214.9,13533.1L10214.9,13533.1L10214.9,13533.3L10214.9,13533.4L10214.9,13533.4L10214.9,13533.6L10214.9,13533.7L10214.9,13533.7L10214.9,13533.9L10214.9,13534L10214.9,13534.1L10214.9,13534.1L10214.9,13534.2L10214.9,13534.3L10214.9,13534.4L10214.9,13534.5L10214.9,13534.6L10214.9,13534.7L10214.9,13534.8L10214.9,13534.9L10214.9,13534.9L10214.8,13535L10214.8,13535.1L10214.8,13535.2L10214.8,13535.3L10214.8,13535.4L10214.7,13535.5L10214.7,13535.5L10214.7,13535.6L10214.7,13535.7L10214.7,13535.8L10214.6,13535.9L10214.6,13536L10214.6,13536L10214.5,13536.1L10214.5,13536.2L10214.5,13536.3L10214.4,13536.4L10214.4,13536.4L10214.4,13536.5L10214.3,13536.6L10214.3,13536.7L10214.3,13536.7L10214.2,13536.8L10214.2,13536.9L10214.1,13537L10214.1,13537L10214,13537.1L10214,13537.2L10214,13537.3L10213.9,13537.3L10213.9,13537.4L10213.8,13537.5L10213.8,13537.5L10213.7,13537.6L10213.7,13537.7L10213.6,13537.7L10213.5,13537.8L10213.5,13537.9L10213.4,13537.9L10213.4,13538L10213.3,13538L10213.3,13538.1L10213.2,13538.2L10213.1,13538.2L10213.1,13538.3L10213.1,13538.3L10213.2,13538.8L10213.5,13540L10213.9,13541.1L10214.2,13542.3L10214.5,13543.6L10214.9,13544.8L10215.2,13546.1L10215.6,13547.4L10216,13548.7L10216.2,13549.4L10216.4,13550L10216.6,13550.7L10216.8,13551.4L10217,13552.1L10217.2,13552.8L10217.4,13553.5L10217.6,13554.2L10217.8,13554.9L10218,13555.6L10218.2,13556.3L10218.5,13557L10218.7,13557.7L10218.9,13558.4L10219.1,13559.2L10219.3,13559.9L10219.6,13560.6L10219.8,13561.4L10220,13562.1L10220.3,13562.8L10220.5,13563.6L10220.7,13564.3L10221,13565.1L10221.2,13565.8L10221.5,13566.6L10221.7,13567.3L10222,13568.1L10222.2,13568.8L10222.5,13569.6L10222.7,13570.3L10223,13571.1L10223.3,13571.8L10223.5,13572.6L10223.8,13573.3L10224.1,13574.1L10224.3,13574.9L10224.6,13575.6L10224.9,13576.4L10225.1,13577.1L10225.4,13577.9L10225.7,13578.7L10226,13579.4L10226.3,13580.2L10226.5,13580.9L10226.8,13581.7L10227.1,13582.4L10227.4,13583.2L10227.7,13584L10228,13584.7L10228.3,13585.5L10228.6,13586.2L10228.9,13586.9L10229.2,13587.7L10229.5,13588.4L10229.8,13589.2L10230.1,13589.9L10230.4,13590.6L10230.8,13591.4L10231.1,13592.1L10231.2,13592.5L10231.4,13592.8L10231.5,13593.2L10231.7,13593.6L10231.9,13593.9L10232,13594.3L10232.2,13594.6L10232.3,13595L10232.7,13595.7L10232.8,13596.1L10233,13596.4L10233.2,13596.8L10233.3,13597.1L10233.5,13597.5L10233.7,13597.8L10233.8,13598.2L10234,13598.5L10234.2,13598.9L10234.3,13599.2L10234.5,13599.5L10234.7,13599.9L10234.8,13600.2L10235,13600.6L10235.2,13600.9L10235.3,13601.2L10235.5,13601.6L10235.7,13601.9L10235.9,13602.3L10236,13602.6L10236.2,13602.9L10236.4,13603.3L10236.5,13603.6L10236.7,13603.9L10236.9,13604.2L10237.1,13604.6L10237.2,13604.9L10237.4,13605.2L10237.6,13605.5L10237.8,13605.8L10237.9,13606.2L10238.1,13606.5L10238.3,13606.8L10238.5,13607.1L10238.7,13607.4L10238.8,13607.7L10239,13608L10239.2,13608.4L10239.4,13608.7L10239.6,13609L10239.7,13609.3L10239.9,13609.6L10240.1,13609.9L10240.3,13610.2L10240.5,13610.5L10240.7,13610.8L10240.8,13611.1L10241,13611.3L10241.2,13611.6L10241.4,13611.9L10241.6,13612.2L10241.8,13612.5L10241.9,13612.8L10242.1,13613L10242.3,13613.3L10242.5,13613.6L10242.7,13613.9L10242.9,13614.2L10243.1,13614.4L10243.3,13614.7L10243.5,13615L10243.6,13615.2L10243.8,13615.5L10244,13615.7L10244.2,13616L10244.4,13616.3L10244.6,13616.5L10244.8,13616.8L10245,13617L10245.2,13617.3L10245.4,13617.5L10245.6,13617.8L10245.8,13618L10246,13618.2L10246.1,13618.5L10246.3,13618.7L10246.5,13618.9L10246.7,13619.2L10246.9,13619.4L10247.1,13619.6L10247.3,13619.8L10247.5,13620.1L10247.7,13620.3L10247.9,13620.5L10248.1,13620.7L10248.3,13620.9L10248.5,13621.1L10248.7,13621.3L10248.9,13621.5L10249.1,13621.8L10249.3,13622L10250.3,13622.9L10250.3,13622.9L10249.1,13623.9L10248.7,13624.1L10248.4,13624.4L10248,13624.6L10247.7,13624.9L10247.4,13625.2L10247,13625.5L10246.7,13625.7L10246.4,13626L10246,13626.3L10245.7,13626.6L10245.4,13626.8L10245.1,13627.1L10244.7,13627.4L10244.4,13627.7L10244.1,13628L10243.8,13628.2L10243.5,13628.5L10243.2,13628.8L10242.9,13629.1L10242.6,13629.4L10242.3,13629.7L10242,13629.9L10241.7,13630.2L10241.4,13630.5L10241.1,13630.8L10240.8,13631.1L10240.5,13631.4L10240.3,13631.7L10240,13632L10239.7,13632.3L10239.4,13632.6L10239.2,13632.9L10238.9,13633.2L10238.6,13633.5L10238.4,13633.8L10238.1,13634.1L10237.9,13634.4L10237.6,13634.7L10237.3,13635L10237.1,13635.3L10236.8,13635.6L10236.6,13635.9L10236.4,13636.2L10236.1,13636.5L10235.9,13636.8L10235.7,13637.1L10235.4,13637.4L10235.2,13637.7L10235,13638L10234.7,13638.3L10234.5,13638.6L10234.3,13638.9L10234.1,13639.2L10233.9,13639.5L10233.7,13639.8L10233.5,13640.1L10233.3,13640.4L10233.1,13640.7L10232.9,13641L10232.7,13641.3L10232.5,13641.6L10232.3,13641.9L10232.1,13642.2L10231.9,13642.5L10231.7,13642.8L10231.5,13643.1L10231.4,13643.4L10231.2,13643.8L10231,13644.1L10230.8,13644.4L10230.7,13644.7L10230.5,13645L10230.4,13645.3L10230.2,13645.6L10230,13645.9L10229.9,13646.2L10229.7,13646.5L10229.6,13646.8L10229.5,13647.1L10229.3,13647.4L10229.2,13647.7L10229,13648L10228.9,13648.3L10228.8,13648.6L10228.7,13648.9L10228.5,13649.2L10228.4,13649.5L10228.3,13649.8L10228.2,13650L10228.1,13650.3L10228,13650.6L10227.9,13650.9L10227.8,13651.2L10227.7,13651.5L10227.6,13651.8L10227.5,13652.1L10227.4,13652.4L10227.3,13652.7L10227.2,13653L10227.1,13653.2L10227,13653.5L10227,13653.8L10226.9,13654.1L10226.8,13654.4L10226.7,13654.7L10226.7,13654.9L10226.6,13655.2L10226.6,13655.5L10226.5,13655.8L10226.5,13656L10226.4,13656.3L10226.4,13656.6L10226.3,13656.9L10226.3,13657.1L10226.2,13657.4L10226.2,13657.7L10226.2,13657.9L10226.1,13658.2L10226.1,13658.5L10226.1,13658.7L10226.1,13658.8L10226.1,13659L10226.1,13659.1L10226.1,13659.2L10226.1,13659.4L10226,13659.5L10226,13659.6L10226,13659.7L10226,13659.9L10226,13660L10226,13660.1L10226,13660.3L10226,13660.4L10226,13661.5L10192,13661.5L10192,13660.4L10192,13660.3L10192,13660.1L10192,13660L10192,13659.9L10192,13659.7L10191.9,13659.6L10191.9,13659.5L10191.9,13659.4L10191.9,13659.2L10191.9,13659.1L10191.9,13659L10191.9,13658.8L10191.9,13658.7L10191.9,13658.5L10191.8,13658.2L10191.8,13657.9L10191.8,13657.7L10191.7,13657.4L10191.7,13657.1L10191.7,13656.9L10191.6,13656.6L10191.6,13656.3L10191.5,13656L10191.5,13655.8L10191.4,13655.5L10191.4,13655.2L10191.3,13654.9L10191.2,13654.6L10191.2,13654.4L10191.1,13654.1L10191,13653.8L10190.9,13653.5L10190.9,13653.2L10190.8,13653L10190.7,13652.7L10190.6,13652.4L10190.5,13652.1L10190.4,13651.8L10190.3,13651.5L10190.2,13651.2L10190.1,13650.9L10190,13650.6L10189.9,13650.3L10189.8,13650L10189.7,13649.8L10189.6,13649.5L10189.5,13649.2L10189.3,13648.9L10189.2,13648.6L10189.1,13648.3L10188.9,13648L10188.8,13647.7L10188.7,13647.4L10188.5,13647.1L10188.4,13646.8L10188.2,13646.5L10188.1,13646.2L10187.9,13645.9L10187.8,13645.6L10187.6,13645.3L10187.5,13645L10187.3,13644.7L10187.1,13644.4L10187,13644.1L10186.8,13643.8L10186.6,13643.4L10186.4,13643.1L10186.3,13642.8L10186.1,13642.5L10185.9,13642.2L10185.7,13641.9L10185.5,13641.6L10185.3,13641.3L10185.1,13641L10184.9,13640.7L10184.7,13640.4L10184.5,13640.1L10184.3,13639.8L10184.1,13639.5L10183.9,13639.2L10183.7,13638.9L10183.5,13638.6L10183.2,13638.3L10183,13638L10182.8,13637.7L10182.6,13637.4L10182.3,13637.1L10182.1,13636.8L10181.9,13636.5L10181.6,13636.2L10181.4,13635.9L10181.1,13635.6L10180.9,13635.3L10180.6,13635L10180.4,13634.7L10180.1,13634.4L10179.9,13634.1L10179.6,13633.8L10179.4,13633.5L10179.1,13633.2L10178.8,13632.9L10178.5,13632.6L10178.3,13632.3L10178,13632L10177.7,13631.7L10177.4,13631.4L10177.2,13631.1L10176.9,13630.8L10176.6,13630.5L10176.3,13630.2L10176,13629.9L10175.7,13629.7L10175.4,13629.4L10175.1,13629.1L10174.8,13628.8L10174.5,13628.5L10174.2,13628.2L10173.9,13628L10173.6,13627.7L10173.2,13627.4L10172.9,13627.1L10172.6,13626.8L10172.3,13626.6L10172,13626.3L10171.6,13626L10171.3,13625.7L10171,13625.5L10170.6,13625.2L10170.3,13624.9L10169.9,13624.6L10169.6,13624.4L10169.3,13624.1L10168.9,13623.9L10167.7,13622.9L10167.7,13622.9L10168.7,13622L10168.9,13621.8L10169.1,13621.5L10169.3,13621.3L10169.5,13621.1L10169.7,13620.9L10169.9,13620.7L10170.1,13620.5L10170.3,13620.3L10170.5,13620.1L10170.7,13619.8L10170.9,13619.6L10171.1,13619.4L10171.2,13619.2L10171.4,13618.9L10171.6,13618.7L10171.8,13618.5L10172,13618.2L10172.2,13618L10172.4,13617.8L10172.6,13617.5L10172.8,13617.3L10173,13617L10173.2,13616.8L10173.4,13616.5L10173.6,13616.3L10173.8,13616L10174,13615.7L10174.1,13615.5L10174.3,13615.2L10174.5,13615L10174.7,13614.7L10174.9,13614.4L10175.1,13614.2L10175.3,13613.9L10175.5,13613.6L10175.7,13613.3L10175.8,13613.1L10176,13612.8L10176.2,13612.5L10176.4,13612.2L10176.6,13611.9L10176.8,13611.6L10177,13611.3L10177.1,13611.1L10177.3,13610.8L10177.5,13610.5L10177.7,13610.2L10177.9,13609.9L10178.1,13609.6L10178.2,13609.3L10178.4,13609L10178.6,13608.7L10178.8,13608.4L10179,13608L10179.1,13607.7L10179.3,13607.4L10179.5,13607.1L10179.7,13606.8L10179.9,13606.5L10180,13606.2L10180.2,13605.8L10180.4,13605.5L10180.6,13605.2L10180.7,13604.9L10180.9,13604.6L10181.1,13604.2L10181.3,13603.9L10181.4,13603.6L10181.6,13603.3L10181.8,13602.9L10182,13602.6L10182.1,13602.3L10182.3,13601.9L10182.5,13601.6L10182.6,13601.2L10182.8,13600.9L10183,13600.6L10183.2,13600.2L10183.3,13599.9L10183.5,13599.5L10183.7,13599.2L10183.8,13598.9L10184,13598.5L10184.2,13598.2L10184.3,13597.8L10184.5,13597.5L10184.7,13597.1L10184.8,13596.8L10185,13596.4L10185.1,13596L10185.3,13595.7L10185.5,13595.3L10185.6,13595L10185.8,13594.6L10186,13594.3L10186.1,13593.9L10186.3,13593.6L10186.4,13593.2L10186.6,13592.8L10186.8,13592.5L10186.9,13592.1L10187.2,13591.4L10187.5,13590.6L10187.9,13589.9L10188.2,13589.2L10188.5,13588.4L10188.8,13587.7L10189.1,13586.9L10189.4,13586.2L10189.7,13585.5L10190,13584.7L10190.3,13584L10190.6,13583.2L10190.9,13582.4L10191.1,13581.7L10191.4,13580.9L10191.7,13580.2L10192,13579.4L10192.3,13578.7L10192.6,13577.9L10192.8,13577.1L10193.1,13576.4L10193.4,13575.6L10193.7,13574.9L10193.9,13574.1L10194.2,13573.3L10194.5,13572.6L10194.7,13571.8L10195,13571.1L10195.2,13570.3L10195.5,13569.6L10195.8,13568.8L10196,13568.1L10196.3,13567.3L10196.5,13566.6L10196.8,13565.8L10197,13565.1L10197.2,13564.3L10197.5,13563.6L10197.7,13562.8L10197.9,13562.1L10198.2,13561.4L10198.4,13560.6L10198.6,13559.9L10198.9,13559.2L10199.1,13558.4L10199.3,13557.7L10199.5,13557L10199.8,13556.3L10200,13555.6L10200.2,13554.9L10200.4,13554.2L10200.6,13553.5L10200.8,13552.8L10201,13552.1L10201.2,13551.4L10201.4,13550.7L10201.6,13550L10201.8,13549.4L10202,13548.7L10202.4,13547.4L10202.7,13546.1L10203.1,13544.8L10203.5,13543.6L10203.8,13542.3L10204.1,13541.1L10204.5,13540L10204.8,13538.8L10204.9,13538.3L10204.9,13538.3L10204.8,13538.2L10204.8,13538.2L10204.7,13538.1L10204.7,13538L10204.6,13538L10204.5,13537.9L10204.5,13537.9L10204.4,13537.8L10204.4,13537.7L10204.3,13537.7L10204.3,13537.6L10204.2,13537.5L10204.2,13537.5L10204.1,13537.4L10204.1,13537.3L10204,13537.3L10204,13537.2L10203.9,13537.1L10203.9,13537L10203.9,13537L10203.8,13536.9L10203.8,13536.8L10203.7,13536.7L10203.7,13536.7L10203.7,13536.6L10203.6,13536.5L10203.6,13536.4L10203.5,13536.4L10203.5,13536.3L10203.5,13536.2L10203.4,13536.1L10203.4,13536L10203.4,13536L10203.4,13535.9L10203.3,13535.8L10203.3,13535.7L10203.3,13535.6L10203.3,13535.5L10203.2,13535.5L10203.2,13535.4L10203.2,13535.3L10203.2,13535.2L10203.2,13535.1L10203.1,13535L10203.1,13535L10203.1,13534.9L10203.1,13534.8L10203.1,13534.7L10203.1,13534.6L10203.1,13534.5L10203.1,13534.4L10203.1,13534.3L10203.1,13534.2L10203,13534.1L10203,13534.1L10203,13534L10203,13533.9L10203,13533.8L10203,13533.7L10203.1,13533.7L10203.1,13533.6L10203.1,13533.5L10203.1,13533.4L10203.1,13533.4L10203.1,13533.3L10203.1,13533.2L10203.1,13533.1L10203.1,13533.1L10203.1,13533L10203.1,13532.9L10203.2,13532.8L10203.2,13532.8L10203.2,13532.7L10203.2,13532.6L10203.2,13532.6L10203.2,13532.5L10203.3,13532.4L10203.3,13532.3L10203.3,13532.3L10203.3,13532.2L10203.3,13532.1L10203.4,13532.1L10203.4,13532L10203.4,13531.9L10203.4,13531.9L10203.5,13531.8L10203.5,13531.7L10203.6,13531.5L10203.6,13531.4L10203.7,13531.3L10203.8,13531.1L10203.8,13531L10203.9,13530.9L10204,13530.8L10204.1,13530.6L10204.1,13530.5L10204.2,13530.4L10204.3,13530.3L10204.4,13530.2L10204.5,13530.1L10204.6,13530L10204.7,13529.9L10204.8,13529.8L10204.9,13529.7L10205,13529.6L10205.1,13529.5L10205.2,13529.4L10205.3,13529.3L10205.4,13529.2L10205.6,13529.1L10205.7,13529L10205.8,13529L10205.9,13528.9L10206,13528.8L10206.2,13528.7L10206.3,13528.7L10206.4,13528.6L10206.5,13528.5L10206.7,13528.5L10206.8,13528.4L10206.9,13528.4L10206.9,13528.4L10207,13528.4L10207.1,13528.3L10207.2,13528.3L10207.2,13528.3L10207.3,13528.3L10207.4,13528.2L10207.4,13528.2L10207.5,13528.2L10207.6,13528.2L10207.6,13528.2L10207.7,13528.2L10207.8,13528.1L10207.9,13528.1L10207.9,13528.1L10208,13528.1L10208.1,13528.1L10208.2,13528.1L10208.2,13528.1L10208.3,13528.1L10208.4,13528.1L10208.5,13528L10208.5,13528L10208.6,13528L10208.7,13528L10208.8,13528L10208.8,13528L10208.9,13528L10209.1,13528L10209.1,13528ZM10208.9,13529L10208.9,13529L10208.8,13529L10208.7,13529L10208.7,13529L10208.6,13529L10208.5,13529L10208.5,13529L10208.4,13529L10208.4,13529L10208.3,13529L10208.2,13529L10208.2,13529L10208.1,13529.1L10208,13529.1L10208,13529.1L10207.9,13529.1L10207.9,13529.1L10207.8,13529.1L10207.7,13529.1L10207.7,13529.1L10207.6,13529.2L10207.6,13529.2L10207.5,13529.2L10207.4,13529.2L10207.4,13529.2L10207.3,13529.3L10207.3,13529.3L10207.2,13529.3L10207.2,13529.3L10207,13529.4L10206.9,13529.4L10206.8,13529.5L10206.7,13529.5L10206.6,13529.6L10206.5,13529.6L10206.4,13529.7L10206.3,13529.8L10206.2,13529.8L10206.1,13529.9L10206,13530L10205.9,13530L10205.8,13530.1L10205.7,13530.2L10205.6,13530.3L10205.5,13530.4L10205.5,13530.4L10205.4,13530.5L10205.3,13530.6L10205.2,13530.7L10205.1,13530.8L10205.1,13530.9L10205,13531L10204.9,13531.1L10204.8,13531.2L10204.8,13531.3L10204.7,13531.4L10204.7,13531.5L10204.6,13531.6L10204.5,13531.7L10204.5,13531.8L10204.4,13531.9L10204.4,13532L10204.3,13532.1L10204.3,13532.2L10204.3,13532.3L10204.3,13532.3L10204.3,13532.4L10204.2,13532.4L10204.2,13532.5L10204.2,13532.5L10204.2,13532.6L10204.2,13532.7L10204.2,13532.7L10204.1,13532.8L10204.1,13532.8L10204.1,13532.9L10204.1,13533L10204.1,13533L10204.1,13533.1L10204.1,13533.1L10204.1,13533.2L10204,13533.3L10204,13533.3L10204,13533.4L10204,13533.5L10204,13533.5L10204,13533.6L10204,13533.6L10204,13533.7L10204,13533.8L10204,13533.8L10204,13533.9L10204,13534L10204,13534L10204,13534.1L10204,13534.2L10204,13534.3L10204,13534.3L10204,13534.4L10204,13534.5L10204,13534.6L10204,13534.6L10204.1,13534.7L10204.1,13534.8L10204.1,13534.9L10204.1,13534.9L10204.1,13535L10204.1,13535.1L10204.1,13535.2L10204.2,13535.2L10204.2,13535.3L10204.2,13535.4L10204.2,13535.4L10204.2,13535.5L10204.3,13535.6L10204.3,13535.6L10204.3,13535.7L10204.3,13535.8L10204.4,13535.8L10204.4,13535.9L10204.4,13536L10204.4,13536L10204.5,13536.1L10204.5,13536.2L10204.5,13536.2L10204.6,13536.3L10204.6,13536.4L10204.6,13536.4L10204.7,13536.5L10204.7,13536.5L10204.7,13536.6L10204.8,13536.7L10204.8,13536.7L10204.9,13536.8L10204.9,13536.8L10204.9,13536.9L10205,13537L10205,13537L10205.1,13537.1L10205.1,13537.1L10205.2,13537.2L10205.2,13537.2L10205.3,13537.3L10205.3,13537.3L10205.4,13537.4L10205.4,13537.4L10205.5,13537.5L10205.5,13537.5L10205.6,13537.6L10205.6,13537.6L10205.7,13537.7L10205.7,13537.7L10205.8,13537.8L10205.8,13537.8L10205.9,13537.9L10205.9,13537.9L10206,13538L10205.7,13539.1L10205.4,13540.2L10205,13541.4L10204.7,13542.6L10204.4,13543.8L10204,13545.1L10203.7,13546.3L10203.3,13547.6L10202.9,13549L10202.7,13549.6L10202.5,13550.3L10202.3,13551L10202.1,13551.7L10201.9,13552.4L10201.7,13553L10201.5,13553.7L10201.3,13554.4L10201.1,13555.1L10200.9,13555.9L10200.7,13556.6L10200.4,13557.3L10200.2,13558L10200,13558.7L10199.8,13559.4L10199.5,13560.2L10199.3,13560.9L10199.1,13561.6L10198.9,13562.4L10198.6,13563.1L10198.4,13563.9L10198.1,13564.6L10197.9,13565.4L10197.7,13566.1L10197.4,13566.8L10197.2,13567.6L10196.9,13568.4L10196.7,13569.1L10196.4,13569.9L10196.1,13570.6L10195.9,13571.4L10195.6,13572.1L10195.4,13572.9L10195.1,13573.7L10194.8,13574.4L10194.6,13575.2L10194.3,13575.9L10194,13576.7L10193.7,13577.5L10193.5,13578.2L10193.2,13579L10192.9,13579.8L10192.6,13580.5L10192.3,13581.3L10192,13582L10191.7,13582.8L10191.5,13583.5L10191.2,13584.3L10190.9,13585.1L10190.6,13585.8L10190.3,13586.6L10190,13587.3L10189.7,13588.1L10189.4,13588.8L10189,13589.5L10188.7,13590.3L10188.4,13591L10188.1,13591.8L10187.8,13592.5L10187.6,13592.8L10187.5,13593.2L10187.3,13593.6L10187.1,13593.9L10187,13594.3L10186.8,13594.7L10186.7,13595L10186.5,13595.4L10186.3,13595.7L10186.2,13596.1L10186,13596.4L10185.8,13596.8L10185.7,13597.2L10185.5,13597.5L10185.4,13597.9L10185.2,13598.2L10185,13598.6L10184.9,13598.9L10184.7,13599.3L10184.5,13599.6L10184.3,13600L10184.2,13600.3L10184,13600.6L10183.8,13601L10183.7,13601.3L10183.5,13601.7L10183.3,13602L10183.1,13602.4L10183,13602.7L10182.8,13603L10182.6,13603.4L10182.5,13603.7L10182.3,13604L10182.1,13604.4L10181.9,13604.7L10181.8,13605L10181.6,13605.3L10181.4,13605.7L10181.2,13606L10181,13606.3L10180.9,13606.6L10180.7,13606.9L10180.5,13607.3L10180.3,13607.6L10180.1,13607.9L10180,13608.2L10179.8,13608.5L10179.6,13608.8L10179.4,13609.1L10179.2,13609.5L10179.1,13609.8L10178.9,13610.1L10178.7,13610.4L10178.5,13610.7L10178.3,13611L10178.1,13611.3L10178,13611.6L10177.8,13611.9L10177.6,13612.1L10177.4,13612.4L10177.2,13612.7L10177,13613L10176.8,13613.3L10176.6,13613.6L10176.4,13613.9L10176.3,13614.1L10176.1,13614.4L10175.9,13614.7L10175.7,13615L10175.5,13615.2L10175.3,13615.5L10175.1,13615.8L10174.9,13616L10174.7,13616.3L10174.5,13616.6L10174.3,13616.8L10174.1,13617.1L10173.9,13617.3L10173.7,13617.6L10173.6,13617.9L10173.4,13618.1L10173.2,13618.3L10173,13618.6L10172.8,13618.8L10172.6,13619.1L10172.4,13619.3L10172.2,13619.6L10172,13619.8L10171.8,13620L10171.6,13620.3L10171.4,13620.5L10171.2,13620.7L10171,13620.9L10170.8,13621.1L10170.6,13621.4L10170.4,13621.6L10170.2,13621.8L10169.9,13622L10169.7,13622.2L10169.5,13622.4L10169.3,13622.6L10169.1,13622.8L10169.5,13623.1L10169.8,13623.4L10170.2,13623.6L10170.5,13623.9L10170.9,13624.2L10171.2,13624.4L10171.6,13624.7L10171.9,13625L10172.2,13625.3L10172.6,13625.6L10172.9,13625.8L10173.2,13626.1L10173.5,13626.4L10173.9,13626.7L10174.2,13627L10174.5,13627.2L10174.8,13627.5L10175.1,13627.8L10175.4,13628.1L10175.8,13628.4L10176.1,13628.7L10176.4,13629L10176.7,13629.3L10177,13629.6L10177.3,13629.9L10177.5,13630.1L10177.8,13630.4L10178.1,13630.7L10178.4,13631L10178.7,13631.3L10179,13631.6L10179.2,13631.9L10179.5,13632.2L10179.8,13632.5L10180.1,13632.8L10180.3,13633.1L10180.6,13633.4L10180.9,13633.7L10181.1,13634L10181.4,13634.3L10181.6,13634.6L10181.9,13635L10182.1,13635.3L10182.4,13635.6L10182.6,13635.9L10182.8,13636.2L10183.1,13636.5L10183.3,13636.8L10183.6,13637.1L10183.8,13637.4L10184,13637.7L10184.2,13638L10184.5,13638.3L10184.7,13638.6L10184.9,13639L10185.1,13639.3L10185.3,13639.6L10185.5,13639.9L10185.7,13640.2L10185.9,13640.5L10186.1,13640.8L10186.3,13641.1L10186.5,13641.4L10186.7,13641.7L10186.9,13642L10187.1,13642.4L10187.3,13642.7L10187.4,13643L10187.6,13643.3L10187.8,13643.6L10188,13643.9L10188.1,13644.2L10188.3,13644.5L10188.5,13644.8L10188.6,13645.1L10188.8,13645.4L10188.9,13645.8L10189.1,13646.1L10189.2,13646.4L10189.4,13646.7L10189.5,13647L10189.7,13647.3L10189.8,13647.6L10189.9,13647.9L10190.1,13648.2L10190.2,13648.5L10190.3,13648.8L10190.5,13649.1L10190.6,13649.4L10190.7,13649.7L10190.8,13650L10190.9,13650.3L10191,13650.6L10191.1,13650.9L10191.2,13651.2L10191.3,13651.5L10191.4,13651.8L10191.5,13652.1L10191.6,13652.4L10191.7,13652.7L10191.8,13653L10191.9,13653.3L10191.9,13653.6L10192,13653.9L10192.1,13654.1L10192.2,13654.4L10192.2,13654.7L10192.3,13655L10192.4,13655.3L10192.4,13655.6L10192.5,13655.9L10192.5,13656.1L10192.6,13656.4L10192.6,13656.7L10192.6,13657L10192.7,13657.3L10192.7,13657.5L10192.8,13657.8L10192.8,13658.1L10192.8,13658.4L10192.8,13658.6L10192.8,13658.8L10192.9,13658.9L10192.9,13659L10192.9,13659.2L10192.9,13659.3L10192.9,13659.4L10192.9,13659.6L10192.9,13659.7L10192.9,13659.8L10192.9,13660L10192.9,13660.1L10192.9,13660.2L10192.9,13660.4L10192.9,13660.5L10225.1,13660.5L10225.1,13660.4L10225.1,13660.2L10225.1,13660.1L10225.1,13660L10225.1,13659.8L10225.1,13659.7L10225.1,13659.6L10225.1,13659.4L10225.1,13659.3L10225.1,13659.2L10225.1,13659L10225.1,13658.9L10225.1,13658.8L10225.1,13658.6L10225.2,13658.4L10225.2,13658.1L10225.2,13657.8L10225.3,13657.5L10225.3,13657.3L10225.3,13657L10225.4,13656.7L10225.4,13656.4L10225.5,13656.1L10225.5,13655.9L10225.6,13655.6L10225.6,13655.3L10225.7,13655L10225.8,13654.7L10225.8,13654.4L10225.9,13654.1L10226,13653.9L10226,13653.6L10226.1,13653.3L10226.2,13653L10226.3,13652.7L10226.4,13652.4L10226.5,13652.1L10226.6,13651.8L10226.7,13651.5L10226.8,13651.2L10226.9,13650.9L10227,13650.6L10227.1,13650.3L10227.2,13650L10227.3,13649.7L10227.4,13649.4L10227.5,13649.1L10227.7,13648.8L10227.8,13648.5L10227.9,13648.2L10228,13647.9L10228.2,13647.6L10228.3,13647.3L10228.5,13647L10228.6,13646.7L10228.7,13646.4L10228.9,13646.1L10229,13645.8L10229.2,13645.4L10229.4,13645.1L10229.5,13644.8L10229.7,13644.5L10229.8,13644.2L10230,13643.9L10230.2,13643.6L10230.4,13643.3L10230.5,13643L10230.7,13642.7L10230.9,13642.4L10231.1,13642L10231.3,13641.7L10231.5,13641.4L10231.7,13641.1L10231.9,13640.8L10232.1,13640.5L10232.3,13640.2L10232.5,13639.9L10232.7,13639.6L10232.9,13639.3L10233.1,13639L10233.3,13638.6L10233.5,13638.3L10233.8,13638L10234,13637.7L10234.2,13637.4L10234.4,13637.1L10234.7,13636.8L10234.9,13636.5L10235.1,13636.2L10235.4,13635.9L10235.6,13635.6L10235.9,13635.3L10236.1,13635L10236.4,13634.6L10236.6,13634.3L10236.9,13634L10237.1,13633.7L10237.4,13633.4L10237.7,13633.1L10237.9,13632.8L10238.2,13632.5L10238.5,13632.2L10238.7,13631.9L10239,13631.6L10239.3,13631.3L10239.6,13631L10239.9,13630.7L10240.1,13630.4L10240.4,13630.1L10240.7,13629.9L10241,13629.6L10241.3,13629.3L10241.6,13629L10241.9,13628.7L10242.2,13628.4L10242.5,13628.1L10242.9,13627.8L10243.2,13627.5L10243.5,13627.2L10243.8,13627L10244.1,13626.7L10244.4,13626.4L10244.8,13626.1L10245.1,13625.8L10245.4,13625.6L10245.8,13625.3L10246.1,13625L10246.4,13624.7L10246.8,13624.4L10247.1,13624.2L10247.5,13623.9L10247.8,13623.6L10248.1,13623.4L10248.5,13623.1L10248.9,13622.8L10248.7,13622.6L10248.4,13622.4L10248.2,13622.2L10248,13622L10247.8,13621.8L10247.6,13621.6L10247.4,13621.4L10247.2,13621.1L10247,13620.9L10246.8,13620.7L10246.6,13620.5L10246.4,13620.3L10246.2,13620L10246,13619.8L10245.8,13619.6L10245.6,13619.3L10245.4,13619.1L10245.2,13618.8L10245,13618.6L10244.8,13618.3L10244.6,13618.1L10244.4,13617.9L10244.2,13617.6L10244,13617.3L10243.8,13617.1L10243.6,13616.8L10243.5,13616.6L10243.3,13616.3L10243.1,13616L10242.9,13615.8L10242.7,13615.5L10242.5,13615.2L10242.3,13615L10242.1,13614.7L10241.9,13614.4L10241.7,13614.1L10241.5,13613.9L10241.3,13613.6L10241.2,13613.3L10241,13613L10240.8,13612.7L10240.6,13612.4L10240.4,13612.1L10240.2,13611.9L10240,13611.6L10239.8,13611.3L10239.7,13611L10239.5,13610.7L10239.3,13610.4L10239.1,13610.1L10238.9,13609.8L10238.7,13609.5L10238.6,13609.1L10238.4,13608.8L10238.2,13608.5L10238,13608.2L10237.8,13607.9L10237.7,13607.6L10237.5,13607.3L10237.3,13606.9L10237.1,13606.6L10236.9,13606.3L10236.8,13606L10236.6,13605.7L10236.4,13605.3L10236.2,13605L10236.1,13604.7L10235.9,13604.4L10235.7,13604L10235.5,13603.7L10235.4,13603.4L10235.2,13603L10235,13602.7L10234.8,13602.4L10234.7,13602L10234.5,13601.7L10234.3,13601.3L10234.1,13601L10234,13600.6L10233.8,13600.3L10233.6,13600L10233.5,13599.6L10233.3,13599.3L10233.1,13598.9L10233,13598.6L10232.8,13598.2L10232.6,13597.9L10232.5,13597.5L10232.3,13597.2L10232.1,13596.8L10232,13596.4L10231.8,13596.1L10231.6,13595.7L10231.5,13595.4L10231.3,13595L10231.2,13594.7L10231,13594.3L10230.8,13593.9L10230.7,13593.6L10230.5,13593.2L10230.4,13592.8L10230.2,13592.5L10229.9,13591.8L10229.6,13591L10229.3,13590.3L10228.9,13589.5L10228.6,13588.8L10228.3,13588.1L10228,13587.3L10227.7,13586.6L10227.4,13585.8L10227.1,13585.1L10226.8,13584.3L10226.5,13583.5L10226.2,13582.8L10225.9,13582L10225.7,13581.3L10225.4,13580.5L10225.1,13579.8L10224.8,13579L10224.5,13578.2L10224.2,13577.5L10224,13576.7L10223.7,13575.9L10223.4,13575.2L10223.2,13574.4L10222.9,13573.7L10222.6,13572.9L10222.4,13572.1L10222.1,13571.4L10221.8,13570.6L10221.6,13569.9L10221.3,13569.1L10221.1,13568.4L10220.8,13567.6L10220.6,13566.8L10220.3,13566.1L10220.1,13565.4L10219.8,13564.6L10219.6,13563.9L10219.4,13563.1L10219.1,13562.4L10218.9,13561.6L10218.7,13560.9L10218.4,13560.2L10218.2,13559.4L10218,13558.7L10217.8,13558L10217.5,13557.3L10217.3,13556.6L10217.1,13555.9L10216.9,13555.1L10216.7,13554.4L10216.5,13553.7L10216.3,13553L10216.1,13552.4L10215.9,13551.7L10215.7,13551L10215.5,13550.3L10215.3,13549.6L10215.1,13549L10214.7,13547.6L10214.3,13546.3L10214,13545.1L10213.6,13543.8L10213.3,13542.6L10212.9,13541.4L10212.6,13540.2L10212.3,13539.1L10212,13538L10212.1,13537.9L10212.1,13537.9L10212.2,13537.8L10212.2,13537.8L10212.3,13537.7L10212.3,13537.7L10212.4,13537.6L10212.4,13537.6L10212.5,13537.5L10212.5,13537.5L10212.6,13537.4L10212.6,13537.4L10212.7,13537.3L10212.7,13537.3L10212.8,13537.2L10212.8,13537.2L10212.9,13537.1L10212.9,13537.1L10213,13537L10213,13537L10213,13536.9L10213.1,13536.8L10213.1,13536.8L10213.2,13536.7L10213.2,13536.7L10213.2,13536.6L10213.3,13536.5L10213.3,13536.5L10213.3,13536.4L10213.4,13536.4L10213.4,13536.3L10213.4,13536.2L10213.5,13536.2L10213.5,13536.1L10213.5,13536L10213.6,13536L10213.6,13535.9L10213.6,13535.8L10213.7,13535.8L10213.7,13535.7L10213.7,13535.6L10213.7,13535.6L10213.7,13535.5L10213.8,13535.4L10213.8,13535.4L10213.8,13535.3L10213.8,13535.2L10213.8,13535.2L10213.9,13535.1L10213.9,13535L10213.9,13534.9L10213.9,13534.9L10213.9,13534.8L10213.9,13534.7L10213.9,13534.6L10214,13534.6L10214,13534.5L10214,13534.4L10214,13534.3L10214,13534.3L10214,13534.2L10214,13534.1L10214,13534L10214,13534L10214,13533.9L10214,13533.8L10214,13533.8L10214,13533.7L10214,13533.6L10214,13533.6L10214,13533.5L10214,13533.5L10214,13533.4L10213.9,13533.3L10213.9,13533.3L10213.9,13533.2L10213.9,13533.1L10213.9,13533.1L10213.9,13533L10213.9,13533L10213.9,13532.9L10213.9,13532.8L10213.8,13532.8L10213.8,13532.7L10213.8,13532.7L10213.8,13532.6L10213.8,13532.5L10213.8,13532.5L10213.7,13532.4L10213.7,13532.4L10213.7,13532.3L10213.7,13532.3L10213.7,13532.2L10213.6,13532.1L10213.6,13532L10213.5,13531.9L10213.5,13531.8L10213.4,13531.7L10213.4,13531.6L10213.3,13531.5L10213.3,13531.4L10213.2,13531.3L10213.1,13531.2L10213.1,13531.1L10213,13531L10212.9,13530.9L10212.8,13530.8L10212.8,13530.7L10212.7,13530.6L10212.6,13530.5L10212.5,13530.4L10212.4,13530.4L10212.4,13530.3L10212.3,13530.2L10212.2,13530.1L10212.1,13530L10212,13530L10211.9,13529.9L10211.8,13529.8L10211.7,13529.8L10211.6,13529.7L10211.5,13529.6L10211.4,13529.6L10211.3,13529.5L10211.2,13529.5L10211,13529.4L10210.9,13529.4L10210.8,13529.3L10210.8,13529.3L10210.7,13529.3L10210.7,13529.3L10210.6,13529.2L10210.5,13529.2L10210.5,13529.2L10210.4,13529.2L10210.4,13529.2L10210.3,13529.1L10210.2,13529.1L10210.2,13529.1L10210.1,13529.1L10210.1,13529.1L10210,13529.1L10209.9,13529.1L10209.9,13529.1L10209.8,13529L10209.8,13529L10209.7,13529L10209.6,13529L10209.6,13529L10209.5,13529L10209.4,13529L10209.4,13529L10209.3,13529L10209.2,13529L10209.2,13529L10209.1,13529L10209.1,13529L10209,13529L10208.9,13529Z"/>
            </g>
        </g>
        <g transform="matrix(1,0,0,9.50258,9079.47,5855.71)">
            <g transform="matrix(1,0,0,0.105235,-9079.46,-616.182)">
                <path d="M10381.1,13608.8L10381.1,13608.9L10381.2,13608.9L10381.3,13608.9L10381.5,13609L10381.6,13609L10381.7,13609L10381.7,13609L10381.8,13609.1L10382,13609.1L10382.1,13609.2L10382.2,13609.2L10382.2,13609.2L10382.3,13609.3L10382.4,13609.3L10382.5,13609.3L10382.6,13609.4L10382.7,13609.4L10382.8,13609.5L10382.9,13609.5L10383,13609.6L10383.1,13609.6L10383.2,13609.7L10383.3,13609.8L10383.4,13609.8L10383.5,13609.9L10383.5,13609.9L10383.6,13610L10383.7,13610L10383.8,13610.1L10383.9,13610.2L10384,13610.2L10384.1,13610.3L10384.2,13610.4L10384.2,13610.4L10384.3,13610.5L10384.4,13610.6L10384.5,13610.7L10384.6,13610.7L10384.6,13610.8L10384.7,13610.8L10384.8,13610.9L10384.8,13611L10384.9,13611L10384.9,13611.1L10385,13611.1L10385.1,13611.2L10385.1,13611.3L10385.2,13611.3L10385.3,13611.5L10385.3,13611.5L10385.4,13611.6L10385.4,13611.7L10385.5,13611.7L10385.6,13611.8L10385.6,13611.9L10385.7,13611.9L10385.7,13612L10385.8,13612.1L10385.8,13612.2L10385.8,13612.2L10385.9,13612.3L10385.9,13612.4L10386,13612.5L10386,13612.5L10386.1,13612.6L10386.1,13612.7L10386.2,13612.8L10386.2,13612.9L10386.3,13613L10386.3,13613.1L10386.4,13613.2L10386.4,13613.2L10386.4,13613.3L10386.5,13613.4L10386.5,13613.5L10386.5,13613.6L10386.6,13613.6L10386.6,13613.7L10386.6,13613.8L10386.7,13613.9L10386.7,13614L10386.7,13614.1L10386.7,13614.1L10386.8,13614.2L10386.8,13614.3L10386.8,13614.4L10386.8,13614.5L10386.9,13614.6L10386.9,13614.7L10386.9,13614.7L10386.9,13614.8L10386.9,13614.9L10387,13615L10387,13615.1L10387,13615.2L10387,13615.3L10387,13615.4L10387,13615.5L10387,13615.5L10387,13615.6L10387.1,13615.7L10387.1,13615.8L10387.1,13615.9L10387.1,13616L10387.1,13616.1L10387.1,13616.2L10387.1,13616.3L10387.1,13616.4L10387.1,13616.5L10387.1,13616.6L10387.1,13616.7L10387.1,13616.8L10387.1,13616.9L10387.1,13617L10387.1,13617.1L10387.1,13617.2L10387,13617.3L10387,13617.4L10387,13617.5L10387,13617.6L10387,13617.7L10387,13617.8L10387,13617.9L10386.9,13617.9L10386.9,13618L10386.9,13618.1L10386.9,13618.2L10386.9,13618.3L10386.8,13618.4L10386.8,13618.5L10386.8,13618.6L10386.8,13618.7L10386.7,13618.8L10386.7,13618.9L10386.7,13619L10386.6,13619.1L10386.6,13619.2L10386.6,13619.3L10386.5,13619.3L10386.5,13619.4L10386.5,13619.5L10386.4,13619.6L10386.4,13619.7L10386.4,13619.8L10386.3,13619.9L10386.3,13619.9L10386.2,13620L10386.2,13620.1L10386.1,13620.2L10386.1,13620.3L10386,13620.4L10386,13620.5L10386,13620.5L10385.9,13620.6L10385.9,13620.7L10385.8,13620.8L10385.7,13620.9L10385.7,13620.9L10385.6,13621L10385.6,13621.1L10385.5,13621.2L10385.5,13621.2L10385.4,13621.3L10385.4,13621.4L10385.3,13621.5L10385.2,13621.5L10385.2,13621.6L10385.1,13621.7L10385.1,13621.7L10385,13621.8L10384.9,13621.9L10384.9,13621.9L10384.8,13622L10384.7,13622.1L10384.7,13622.1L10384.6,13622.2L10384.5,13622.3L10384.5,13622.3L10384.4,13622.4L10384.3,13622.5L10384.2,13622.5L10384.2,13622.6L10384.1,13622.6L10384,13622.7L10383.9,13622.7L10383.9,13622.8L10383.8,13622.9L10383.7,13622.9L10383.6,13623L10383.6,13623L10383.5,13623.1L10383.4,13623.1L10383.3,13623.2L10383.2,13623.2L10383.1,13623.3L10383.1,13623.3L10383,13623.4L10382.9,13623.4L10382.8,13623.4L10382.7,13623.5L10382.6,13623.5L10382.6,13623.6L10382.5,13623.6L10382.4,13623.6L10382.3,13623.7L10382.2,13623.7L10382.1,13623.8L10382,13623.8L10381.9,13623.8L10381.8,13623.9L10381.8,13623.9L10381.7,13623.9L10381.6,13624L10381.5,13624L10381.4,13624L10381.3,13624L10381.2,13624.1L10381.1,13624.1L10381,13624.1L10380.9,13624.1L10380.8,13624.1L10380.7,13624.2L10380.6,13624.2L10380.5,13624.2L10380.4,13624.2L10380.3,13624.2L10380.2,13624.2L10380.1,13624.3L10380,13624.3L10380,13624.3L10379.9,13624.3L10379.8,13624.3L10379.6,13624.3L10379.5,13624.3L10379.4,13624.3L10379.4,13624.3L10379.2,13624.3L10379.1,13624.3L10379.1,13624.3L10378.9,13624.3L10378.8,13624.3L10378.7,13624.3L10378.6,13624.3L10378.5,13624.3L10378.4,13624.3L10378.4,13624.3L10378.2,13624.2L10378.1,13624.2L10378.1,13624.2L10378,13624.2L10377.9,13624.2L10377.8,13624.2L10377.7,13624.1L10377.6,13624.1L10377.5,13624.1L10377.4,13624.1L10377.3,13624.1L10377.2,13624L10377.1,13624L10377,13624L10376.9,13624L10376.8,13623.9L10376.7,13623.9L10376.6,13623.9L10376.6,13623.8L10376.5,13623.8L10376.4,13623.8L10376.3,13623.7L10376.2,13623.7L10376.1,13623.6L10376,13623.6L10375.9,13623.6L10375.9,13623.5L10375.8,13623.5L10375.7,13623.4L10375.6,13623.4L10375.5,13623.4L10375.4,13623.3L10375.3,13623.3L10375.3,13623.2L10375.2,13623.2L10375.1,13623.1L10375,13623.1L10374.9,13623L10374.9,13623L10374.8,13622.9L10374.7,13622.9L10374.6,13622.8L10374.6,13622.7L10374.5,13622.7L10374.4,13622.6L10374.3,13622.6L10374.3,13622.5L10374.2,13622.5L10374.1,13622.4L10374,13622.3L10374,13622.3L10373.9,13622.2L10373.8,13622.1L10373.8,13622.1L10373.7,13622L10373.6,13621.9L10373.6,13621.9L10373.5,13621.8L10373.4,13621.7L10373.4,13621.7L10373.3,13621.6L10373.3,13621.5L10373.2,13621.5L10373.1,13621.4L10373.1,13621.3L10373,13621.2L10373,13621.2L10372.9,13621.1L10372.9,13621L10372.8,13620.9L10372.8,13620.9L10372.7,13620.8L10372.6,13620.7L10372.6,13620.6L10372.5,13620.5L10372.5,13620.4L10372.4,13620.4L10372.4,13620.3L10372.4,13620.2L10372.3,13620.1L10372.3,13620L10372.2,13619.9L10372.2,13619.9L10372.1,13619.8L10372.1,13619.7L10372.1,13619.6L10372,13619.5L10372,13619.4L10372,13619.3L10371.9,13619.3L10371.9,13619.2L10371.9,13619.1L10371.8,13619L10371.8,13618.9L10371.8,13618.8L10371.7,13618.7L10371.7,13618.6L10371.7,13618.5L10371.7,13618.4L10371.6,13618.3L10371.6,13618.2L10371.6,13618.1L10371.6,13618L10371.5,13617.9L10371.5,13617.9L10371.5,13617.8L10371.5,13617.7L10371.5,13617.6L10371.5,13617.5L10371.5,13617.4L10371.4,13617.3L10371.4,13617.2L10371.4,13617.1L10371.4,13617L10371.4,13616.9L10371.4,13616.8L10371.4,13616.7L10371.4,13616.6L10371.4,13616.5L10371.4,13616.4L10371.4,13616.3L10371.4,13616.2L10371.4,13616.1L10371.4,13616L10371.4,13615.9L10371.4,13615.8L10371.4,13615.7L10371.5,13615.6L10371.5,13615.5L10371.5,13615.5L10371.5,13615.4L10371.5,13615.3L10371.5,13615.2L10371.5,13615.1L10371.5,13615L10371.6,13614.9L10371.6,13614.8L10371.6,13614.7L10371.6,13614.7L10371.6,13614.6L10371.7,13614.5L10371.7,13614.4L10371.7,13614.3L10371.7,13614.2L10371.8,13614.1L10371.8,13614.1L10371.8,13614L10371.8,13613.9L10371.9,13613.8L10371.9,13613.7L10371.9,13613.6L10372,13613.6L10372,13613.5L10372,13613.4L10372.1,13613.3L10372.1,13613.2L10372.1,13613.1L10372.2,13613.1L10372.2,13613L10372.3,13612.9L10372.3,13612.8L10372.3,13612.8L10372.4,13612.7L10372.4,13612.6L10372.5,13612.5L10372.5,13612.5L10372.6,13612.4L10372.6,13612.3L10372.6,13612.2L10372.7,13612.2L10372.7,13612.1L10372.8,13612L10372.8,13611.9L10372.9,13611.9L10372.9,13611.8L10373,13611.7L10373,13611.7L10373.1,13611.6L10373.2,13611.5L10373.2,13611.5L10373.3,13611.4L10373.3,13611.3L10373.4,13611.3L10373.4,13611.2L10373.5,13611.1L10373.6,13611.1L10373.6,13611L10373.7,13611L10373.7,13610.9L10373.8,13610.8L10373.9,13610.8L10373.9,13610.7L10374,13610.7L10374.1,13610.6L10374.1,13610.5L10374.2,13610.5L10374.2,13610.4L10374.3,13610.4L10374.4,13610.3L10374.5,13610.3L10374.5,13610.2L10374.6,13610.2L10374.7,13610.1L10374.7,13610.1L10374.8,13610L10374.9,13610L10374.9,13609.9L10375,13609.9L10375.1,13609.8L10375.2,13609.8L10375.2,13609.7L10375.3,13609.7L10375.4,13609.6L10375.5,13609.6L10375.5,13609.6L10375.6,13609.5L10375.7,13609.5L10375.8,13609.4L10375.9,13609.4L10375.9,13609.4L10376,13609.3L10376.1,13609.3L10376.2,13609.3L10376.3,13609.2L10376.3,13609.2L10376.4,13609.2L10376.5,13609.1L10376.6,13609.1L10376.7,13609.1L10376.8,13609L10376.8,13609L10376.9,13609L10377,13609L10377.1,13608.9L10377.2,13608.9L10377.3,13608.9L10377.4,13608.9L10377.4,13608.8L10377.4,13522.3L10381.1,13522.3L10381.1,13608.8ZM10378.4,13523.2L10378.4,13609.6L10378.3,13609.6L10378.2,13609.7L10378.1,13609.7L10378,13609.7L10378,13609.7L10377.9,13609.7L10377.8,13609.7L10377.7,13609.7L10377.7,13609.8L10377.6,13609.8L10377.5,13609.8L10377.4,13609.8L10377.4,13609.8L10377.3,13609.9L10377.2,13609.9L10377.1,13609.9L10377.1,13609.9L10377,13610L10376.9,13610L10376.8,13610L10376.8,13610L10376.7,13610.1L10376.6,13610.1L10376.6,13610.1L10376.5,13610.2L10376.4,13610.2L10376.3,13610.2L10376.3,13610.3L10376.2,13610.3L10376.1,13610.3L10376.1,13610.4L10376,13610.4L10375.9,13610.4L10375.9,13610.5L10375.8,13610.5L10375.7,13610.5L10375.7,13610.6L10375.6,13610.6L10375.5,13610.7L10375.5,13610.7L10375.4,13610.7L10375.3,13610.8L10375.3,13610.8L10375.2,13610.9L10375.2,13610.9L10375.1,13611L10375,13611L10375,13611.1L10374.9,13611.1L10374.9,13611.2L10374.8,13611.2L10374.7,13611.3L10374.7,13611.3L10374.6,13611.4L10374.6,13611.4L10374.5,13611.5L10374.5,13611.5L10374.4,13611.6L10374.4,13611.6L10374.3,13611.7L10374.2,13611.7L10374.2,13611.8L10374.1,13611.8L10374.1,13611.9L10374,13612L10374,13612L10373.9,13612.1L10373.9,13612.1L10373.8,13612.2L10373.8,13612.3L10373.8,13612.3L10373.7,13612.4L10373.7,13612.4L10373.6,13612.5L10373.6,13612.6L10373.5,13612.6L10373.5,13612.7L10373.4,13612.8L10373.4,13612.8L10373.4,13612.9L10373.3,13612.9L10373.3,13613L10373.2,13613.1L10373.2,13613.1L10373.2,13613.2L10373.1,13613.3L10373.1,13613.3L10373.1,13613.4L10373,13613.5L10373,13613.6L10373,13613.6L10372.9,13613.7L10372.9,13613.8L10372.9,13613.8L10372.8,13613.9L10372.8,13614L10372.8,13614.1L10372.8,13614.1L10372.7,13614.2L10372.7,13614.3L10372.7,13614.3L10372.7,13614.4L10372.6,13614.5L10372.6,13614.6L10372.6,13614.6L10372.6,13614.7L10372.6,13614.8L10372.5,13614.9L10372.5,13615L10372.5,13615L10372.5,13615.1L10372.5,13615.2L10372.5,13615.3L10372.5,13615.3L10372.4,13615.4L10372.4,13615.5L10372.4,13615.6L10372.4,13615.7L10372.4,13615.7L10372.4,13615.8L10372.4,13615.9L10372.4,13616L10372.4,13616.1L10372.4,13616.1L10372.4,13616.2L10372.4,13616.3L10372.4,13616.4L10372.4,13616.5L10372.4,13616.6L10372.4,13616.6L10372.4,13616.7L10372.4,13616.8L10372.4,13616.9L10372.4,13617L10372.4,13617.1L10372.4,13617.2L10372.4,13617.3L10372.4,13617.3L10372.4,13617.4L10372.4,13617.5L10372.5,13617.6L10372.5,13617.7L10372.5,13617.8L10372.5,13617.9L10372.5,13617.9L10372.5,13618L10372.6,13618.1L10372.6,13618.2L10372.6,13618.3L10372.6,13618.4L10372.6,13618.4L10372.7,13618.5L10372.7,13618.6L10372.7,13618.7L10372.7,13618.8L10372.8,13618.8L10372.8,13618.9L10372.8,13619L10372.9,13619.1L10372.9,13619.1L10372.9,13619.2L10373,13619.3L10373,13619.4L10373,13619.5L10373.1,13619.5L10373.1,13619.6L10373.2,13619.7L10373.2,13619.7L10373.2,13619.8L10373.3,13619.9L10373.3,13620L10373.4,13620L10373.4,13620.1L10373.4,13620.2L10373.5,13620.2L10373.5,13620.3L10373.6,13620.4L10373.6,13620.5L10373.7,13620.5L10373.7,13620.6L10373.8,13620.7L10373.8,13620.7L10373.9,13620.8L10373.9,13620.8L10374,13620.9L10374,13621L10374.1,13621L10374.1,13621.1L10374.2,13621.2L10374.3,13621.2L10374.3,13621.3L10374.4,13621.3L10374.4,13621.4L10374.5,13621.5L10374.6,13621.5L10374.6,13621.6L10374.7,13621.6L10374.7,13621.7L10374.8,13621.7L10374.9,13621.8L10374.9,13621.8L10375,13621.9L10375.1,13621.9L10375.1,13622L10375.2,13622L10375.3,13622.1L10375.3,13622.1L10375.4,13622.2L10375.5,13622.2L10375.5,13622.3L10375.6,13622.3L10375.7,13622.4L10375.7,13622.4L10375.8,13622.4L10375.9,13622.5L10376,13622.5L10376,13622.6L10376.1,13622.6L10376.2,13622.6L10376.3,13622.7L10376.3,13622.7L10376.4,13622.7L10376.5,13622.8L10376.6,13622.8L10376.6,13622.8L10376.7,13622.9L10376.8,13622.9L10376.9,13622.9L10377,13623L10377,13623L10377.1,13623L10377.2,13623L10377.3,13623.1L10377.4,13623.1L10377.4,13623.1L10377.5,13623.1L10377.6,13623.2L10377.7,13623.2L10377.8,13623.2L10377.9,13623.2L10377.9,13623.2L10378,13623.2L10378.1,13623.3L10378.2,13623.3L10378.3,13623.3L10378.4,13623.3L10378.5,13623.3L10378.5,13623.3L10378.6,13623.3L10378.7,13623.3L10378.8,13623.3L10378.9,13623.3L10379,13623.4L10379.1,13623.4L10379.2,13623.4L10379.2,13623.4L10379.3,13623.4L10379.4,13623.4L10379.5,13623.4L10379.6,13623.3L10379.7,13623.3L10379.8,13623.3L10379.9,13623.3L10380,13623.3L10380,13623.3L10380.1,13623.3L10380.2,13623.3L10380.3,13623.3L10380.4,13623.3L10380.5,13623.2L10380.6,13623.2L10380.6,13623.2L10380.7,13623.2L10380.8,13623.2L10380.9,13623.2L10381,13623.1L10381.1,13623.1L10381.1,13623.1L10381.2,13623.1L10381.3,13623L10381.4,13623L10381.5,13623L10381.5,13623L10381.6,13622.9L10381.7,13622.9L10381.8,13622.9L10381.9,13622.8L10381.9,13622.8L10382,13622.8L10382.1,13622.7L10382.2,13622.7L10382.2,13622.7L10382.3,13622.6L10382.4,13622.6L10382.5,13622.6L10382.5,13622.5L10382.6,13622.5L10382.7,13622.4L10382.7,13622.4L10382.8,13622.4L10382.9,13622.3L10383,13622.3L10383,13622.2L10383.1,13622.2L10383.2,13622.1L10383.2,13622.1L10383.3,13622L10383.4,13622L10383.4,13621.9L10383.5,13621.9L10383.6,13621.8L10383.6,13621.8L10383.7,13621.7L10383.8,13621.7L10383.8,13621.6L10383.9,13621.6L10383.9,13621.5L10384,13621.5L10384.1,13621.4L10384.1,13621.3L10384.2,13621.3L10384.2,13621.2L10384.3,13621.2L10384.3,13621.1L10384.4,13621L10384.5,13621L10384.5,13620.9L10384.6,13620.8L10384.6,13620.8L10384.7,13620.7L10384.7,13620.7L10384.8,13620.6L10384.8,13620.5L10384.9,13620.5L10384.9,13620.4L10385,13620.3L10385,13620.2L10385.1,13620.2L10385.1,13620.1L10385.1,13620L10385.2,13620L10385.2,13619.9L10385.3,13619.8L10385.3,13619.7L10385.3,13619.7L10385.4,13619.6L10385.4,13619.5L10385.5,13619.5L10385.5,13619.4L10385.5,13619.3L10385.6,13619.2L10385.6,13619.1L10385.6,13619.1L10385.7,13619L10385.7,13618.9L10385.7,13618.8L10385.7,13618.8L10385.8,13618.7L10385.8,13618.6L10385.8,13618.5L10385.9,13618.4L10385.9,13618.4L10385.9,13618.3L10385.9,13618.2L10385.9,13618.1L10386,13618L10386,13617.9L10386,13617.9L10386,13617.8L10386,13617.7L10386,13617.6L10386.1,13617.5L10386.1,13617.4L10386.1,13617.3L10386.1,13617.3L10386.1,13617.2L10386.1,13617.1L10386.1,13617L10386.1,13616.9L10386.1,13616.8L10386.1,13616.7L10386.1,13616.6L10386.1,13616.6L10386.1,13616.5L10386.1,13616.4L10386.1,13616.3L10386.1,13616.2L10386.1,13616.1L10386.1,13616.1L10386.1,13616L10386.1,13615.9L10386.1,13615.8L10386.1,13615.7L10386.1,13615.7L10386.1,13615.6L10386.1,13615.5L10386.1,13615.4L10386,13615.3L10386,13615.3L10386,13615.2L10386,13615.1L10386,13615L10386,13615L10386,13614.9L10385.9,13614.8L10385.9,13614.7L10385.9,13614.6L10385.9,13614.6L10385.9,13614.5L10385.8,13614.4L10385.8,13614.3L10385.8,13614.3L10385.8,13614.2L10385.7,13614.1L10385.7,13614.1L10385.7,13614L10385.6,13613.9L10385.6,13613.8L10385.6,13613.8L10385.6,13613.7L10385.5,13613.6L10385.5,13613.6L10385.5,13613.5L10385.4,13613.4L10385.4,13613.3L10385.4,13613.3L10385.3,13613.2L10385.3,13613.1L10385.2,13613.1L10385.2,13613L10385.2,13612.9L10385.1,13612.9L10385.1,13612.8L10385,13612.8L10385,13612.7L10385,13612.6L10384.9,13612.6L10384.9,13612.5L10384.8,13612.4L10384.8,13612.4L10384.7,13612.3L10384.7,13612.3L10384.6,13612.2L10384.6,13612.1L10384.6,13612.1L10384.5,13612L10384.5,13612L10384.4,13611.9L10384.4,13611.8L10384.3,13611.8L10384.3,13611.7L10384.2,13611.7L10384.1,13611.6L10384.1,13611.6L10384,13611.5L10384,13611.5L10383.9,13611.4L10383.9,13611.4L10383.8,13611.3L10383.8,13611.3L10383.7,13611.2L10383.6,13611.2L10383.6,13611.1L10383.5,13611.1L10383.5,13611L10383.4,13611L10383.3,13610.9L10383.3,13610.9L10383.2,13610.8L10383.2,13610.8L10383.1,13610.7L10383,13610.7L10383,13610.7L10382.9,13610.6L10382.8,13610.6L10382.8,13610.5L10382.7,13610.5L10382.6,13610.5L10382.6,13610.4L10382.5,13610.4L10382.4,13610.4L10382.4,13610.3L10382.3,13610.3L10382.2,13610.3L10382.2,13610.2L10382.1,13610.2L10382,13610.2L10381.9,13610.1L10381.9,13610.1L10381.8,13610.1L10381.7,13610L10381.7,13610L10381.6,13610L10381.5,13610L10381.4,13609.9L10381.4,13609.9L10381.3,13609.9L10381.2,13609.9L10381.1,13609.8L10381.1,13609.8L10381,13609.8L10380.9,13609.8L10380.8,13609.8L10380.8,13609.7L10380.7,13609.7L10380.6,13609.7L10380.5,13609.7L10380.5,13609.7L10380.4,13609.7L10380.3,13609.7L10380.2,13609.6L10380.1,13609.6L10380.1,13523.2L10378.4,13523.2Z"/>
            </g>
        </g>
        <g transform="matrix(1,0,0,9.50258,9079.47,5855.71)">
            <g transform="matrix(1,0,0,0.0946523,-9079.47,-473.107)">
                <rect x="10378.4" y="13520.6" width="1.783" height="3.64" style="fill:white;"/>
            </g>
        </g>
    </g>
</svg>
