<svg xmlns="http://www.w3.org/2000/svg" width="859.722" height="856.868" viewBox="0 0 859.722 856.868">
  <defs>
    <style>
      .cls-1 {
        fill: #54aaff;
        fill-rule: evenodd;
      }
    </style>
  </defs>
  <path id="Pfad_2" data-name="Pfad 2" class="cls-1" d="M311.781-241.389l.371.264L329.458-228.3l16.981,13.357,1.031.848,14.708,12.275,2.8,2.407,13.708,12.133,1.856,1.668,15.5,14.535,14.256,14.165,3.4,3.5,10.825,11.4,3.629,3.913,11.95,13.332,1.549,1.747,13.047,15.434,3.212,3.966,9.327,11.706L471.34-86.6l8.487,11.308,3.692,5.008L494.832-54.26l2.095,3.126,8.9,13.415,4.012,6.3,6.7,10.769,4.1,6.767L527.4-2.257l3.311,5.764,9.027,16.6,3.616,7.021,5.427,10.724,3.936,8.093L557.488,56.1l3.753,8.195,5.3,12.222,2.263,5.257L571.6,88.7l4.358,10.922,3.54,9.4,3.388,9.284,3.459,9.884,3,9.061,3.278,10.116,5.036,16.889,3.062,11.223,2.125,8,2.867,11.578,1.775,7.6,2.7,12.151,1.122,5.559,2.519,12.733,2.491,14.361.63,3.7,2.062,13.843.8,5.779,1.757,14.086.488,4.529,1.491,14.841a750.658,750.658,0,0,1-311.766,67.342A750.789,750.789,0,0,1,0,304.24C19.863,79.722,138.276-116.648,311.781-241.389Z" transform="matrix(-0.829, 0.559, -0.559, -0.829, 724.739, 308.06)"/>
</svg>
