<svg xmlns="http://www.w3.org/2000/svg" width="109" height="129.762" viewBox="0 0 109 129.762">
  <defs>
    <style>
      .cls-1 {
        fill: #0e1d25;
      }
    </style>
  </defs>
  <path id="Server" class="cls-1" d="M56.5,129.762C25.928,129.762,2,118.343,2,103.81V25.952C2,11.419,25.928,0,56.5,0S111,11.419,111,25.952V103.81C111,118.343,87.072,129.762,56.5,129.762ZM7.19,89.12V103.81c0,10.018,19.828,20.762,49.31,20.762s49.31-10.744,49.31-20.762V89.12C97.141,97.892,78.56,103.81,56.5,103.81S15.859,97.892,7.19,89.12Zm0-11.263c0,10.018,19.828,20.762,49.31,20.762s49.31-10.744,49.31-20.762V63.168C97.141,71.94,78.56,77.857,56.5,77.857S15.859,71.94,7.19,63.168Zm0-25.952c0,10.018,19.828,20.762,49.31,20.762S105.81,61.922,105.81,51.9V37.216C97.141,45.988,78.56,51.9,56.5,51.9S15.859,45.988,7.19,37.216ZM56.5,5.19C27.018,5.19,7.19,15.935,7.19,25.952S27.018,46.714,56.5,46.714s49.31-10.744,49.31-20.762S85.982,5.19,56.5,5.19Z" transform="translate(-2)"/>
</svg>
