<svg xmlns="http://www.w3.org/2000/svg" width="62.979" height="62.65" viewBox="0 0 62.979 62.65">
  <path id="Pfad_3" data-name="Pfad 3" d="M23.422-241.389l.028.02,1.3.963,1.276,1,.077.064,1.1.922.21.181,1.03.911.139.125,1.164,1.092,1.071,1.064.255.263.813.856.273.294.9,1,.116.131.98,1.159.241.3.7.879.309.4.638.849.277.376.85,1.2.157.235L38-226.089l.3.473.5.809.308.508.508.873.249.433.678,1.247.272.527.408.806.3.608.358.763.282.616.4.918.17.395.21.52.327.82.266.706.254.7.26.743.225.681.246.76.378,1.269.23.843.16.6.215.87.133.571.2.913.084.418.189.957.187,1.079.047.278.155,1.04.06.434.132,1.058.037.34.112,1.115a56.392,56.392,0,0,1-23.421,5.059A56.4,56.4,0,0,1,0-200.4,56.637,56.637,0,0,1,23.422-241.389Z" transform="matrix(-0.883, -0.469, 0.469, -0.883, 154.685, -150.484)" fill="#54aaff" fill-rule="evenodd"/>
</svg>
