<?xml version="1.0" encoding="UTF-8" standalone="no"?>
<!DOCTYPE svg PUBLIC "-//W3C//DTD SVG 1.1//EN" "http://www.w3.org/Graphics/SVG/1.1/DTD/svg11.dtd">
<svg width="100%" height="100%" viewBox="0 0 1921 2869" version="1.1" xmlns="http://www.w3.org/2000/svg" xmlns:xlink="http://www.w3.org/1999/xlink" xml:space="preserve" xmlns:serif="http://www.serif.com/" style="fill-rule:evenodd;clip-rule:evenodd;stroke-linecap:round;stroke-linejoin:round;stroke-miterlimit:1.5;">
    <g transform="matrix(1,0,0,1,0.5,897.758)">
        <g transform="matrix(1,0,0,1,1.1191e-13,85.9252)">
            <path d="M1920,0C1920,0 1919.3,540 960,540" style="fill:none;stroke:black;stroke-width:1px;"/>
        </g>
        <g transform="matrix(1,0,0,1,1.1191e-13,175.31)">
            <path d="M1920,0C1920,0 1919.3,540 960,540" style="fill:none;stroke:black;stroke-width:1px;"/>
        </g>
        <g transform="matrix(1,0,0,1,1.1191e-13,264.695)">
            <path d="M1920,0C1920,0 1919.3,540 960,540" style="fill:none;stroke:black;stroke-width:1px;"/>
        </g>
        <g transform="matrix(1,0,0,1,1.1191e-13,354.079)">
            <path d="M1920,0C1920,0 1919.3,540 960,540" style="fill:none;stroke:black;stroke-width:1px;"/>
        </g>
        <g transform="matrix(1,0,0,1,1.1191e-13,443.464)">
            <path d="M1920,0C1920,0 1919.3,540 960,540" style="fill:none;stroke:black;stroke-width:1px;"/>
        </g>
        <g transform="matrix(1,0,0,1,1.1191e-13,532.849)">
            <path d="M1920,0C1920,0 1919.3,540 960,540" style="fill:none;stroke:black;stroke-width:1px;"/>
        </g>
        <g transform="matrix(1,0,0,1,1.1191e-13,622.233)">
            <path d="M1920,0C1920,0 1919.3,540 960,540" style="fill:none;stroke:black;stroke-width:1px;"/>
        </g>
        <g transform="matrix(1,0,0,1,1.1191e-13,711.618)">
            <path d="M1920,0C1920,0 1919.3,540 960,540" style="fill:none;stroke:black;stroke-width:1px;"/>
        </g>
        <g transform="matrix(1,0,0,1,1.1191e-13,801.003)">
            <path d="M1920,0C1920,0 1919.3,540 960,540" style="fill:none;stroke:black;stroke-width:1px;"/>
        </g>
        <g transform="matrix(1,0,0,1,1.1191e-13,890.387)">
            <path d="M1920,0C1920,0 1919.3,540 960,540" style="fill:none;stroke:black;stroke-width:1px;"/>
        </g>
        <g transform="matrix(1,0,0,1,1.1191e-13,-3.45511)">
            <path d="M1920,0C1920,0 1919.3,540 960,540" style="fill:none;stroke:black;stroke-width:1px;"/>
        </g>
        <g transform="matrix(1,0,0,1,1.1191e-13,-92.8354)">
            <path d="M1920,0C1920,0 1919.3,540 960,540" style="fill:none;stroke:black;stroke-width:1px;"/>
        </g>
        <g transform="matrix(1,0,0,1,1.1191e-13,-182.216)">
            <path d="M1920,0C1920,0 1919.3,540 960,540" style="fill:none;stroke:black;stroke-width:1px;"/>
        </g>
        <g transform="matrix(1,0,0,1,1.1191e-13,-271.596)">
            <path d="M1920,0C1920,0 1919.3,540 960,540" style="fill:none;stroke:black;stroke-width:1px;"/>
        </g>
        <g transform="matrix(1,0,0,1,1.1191e-13,-360.976)">
            <path d="M1920,0C1920,0 1919.3,540 960,540" style="fill:none;stroke:black;stroke-width:1px;"/>
        </g>
        <g transform="matrix(1,0,0,1,1.1191e-13,-450.357)">
            <path d="M1920,0C1920,0 1919.3,540 960,540" style="fill:none;stroke:black;stroke-width:1px;"/>
        </g>
        <g transform="matrix(1,0,0,1,1.1191e-13,-539.737)">
            <path d="M1920,0C1920,0 1919.3,540 960,540" style="fill:none;stroke:black;stroke-width:1px;"/>
        </g>
        <g transform="matrix(1,0,0,1,1.1191e-13,-629.117)">
            <path d="M1920,0C1920,0 1919.3,540 960,540" style="fill:none;stroke:black;stroke-width:1px;"/>
        </g>
        <g transform="matrix(1,0,0,1,1.1191e-13,-718.497)">
            <path d="M1920,0C1920,0 1919.3,540 960,540" style="fill:none;stroke:black;stroke-width:1px;"/>
        </g>
        <g transform="matrix(1,0,0,1,1.1191e-13,-807.878)">
            <path d="M1920,0C1920,0 1919.3,540 960,540" style="fill:none;stroke:black;stroke-width:1px;"/>
        </g>
        <g transform="matrix(1,0,0,1,1.1191e-13,-897.258)">
            <path d="M1920,0C1920,0 1919.3,540 960,540" style="fill:none;stroke:black;stroke-width:1px;"/>
        </g>
        <g transform="matrix(-1,0,0,-1,1920,1165.93)">
            <path d="M1920,0C1920,0 1919.3,540 960,540" style="fill:none;stroke:black;stroke-width:1px;"/>
        </g>
        <g transform="matrix(-1,0,0,-1,1920,1255.31)">
            <path d="M1920,0C1920,0 1919.3,540 960,540" style="fill:none;stroke:black;stroke-width:1px;"/>
        </g>
        <g transform="matrix(-1,0,0,-1,1920,1344.69)">
            <path d="M1920,0C1920,0 1919.3,540 960,540" style="fill:none;stroke:black;stroke-width:1px;"/>
        </g>
        <g transform="matrix(-1,0,0,-1,1920,1434.08)">
            <path d="M1920,0C1920,0 1919.3,540 960,540" style="fill:none;stroke:black;stroke-width:1px;"/>
        </g>
        <g transform="matrix(-1,0,0,-1,1920,1523.46)">
            <path d="M1920,0C1920,0 1919.3,540 960,540" style="fill:none;stroke:black;stroke-width:1px;"/>
        </g>
        <g transform="matrix(-1,0,0,-1,1920,1612.85)">
            <path d="M1920,0C1920,0 1919.3,540 960,540" style="fill:none;stroke:black;stroke-width:1px;"/>
        </g>
        <g transform="matrix(-1,0,0,-1,1920,1702.23)">
            <path d="M1920,0C1920,0 1919.3,540 960,540" style="fill:none;stroke:black;stroke-width:1px;"/>
        </g>
        <g transform="matrix(-1,0,0,-1,1920,1791.62)">
            <path d="M1920,0C1920,0 1919.3,540 960,540" style="fill:none;stroke:black;stroke-width:1px;"/>
        </g>
        <g transform="matrix(-1,0,0,-1,1920,1881)">
            <path d="M1920,0C1920,0 1919.3,540 960,540" style="fill:none;stroke:black;stroke-width:1px;"/>
        </g>
        <g transform="matrix(-1,0,0,-1,1920,1970.39)">
            <path d="M1920,0C1920,0 1919.3,540 960,540" style="fill:none;stroke:black;stroke-width:1px;"/>
        </g>
        <g transform="matrix(-1,0,0,-1,1920,1076.54)">
            <path d="M1920,0C1920,0 1919.3,540 960,540" style="fill:none;stroke:black;stroke-width:1px;"/>
        </g>
        <g transform="matrix(-1,0,0,-1,1920,987.165)">
            <path d="M1920,0C1920,0 1919.3,540 960,540" style="fill:none;stroke:black;stroke-width:1px;"/>
        </g>
        <g transform="matrix(-1,0,0,-1,1920,897.784)">
            <path d="M1920,0C1920,0 1919.3,540 960,540" style="fill:none;stroke:black;stroke-width:1px;"/>
        </g>
        <g transform="matrix(-1,0,0,-1,1920,808.404)">
            <path d="M1920,0C1920,0 1919.3,540 960,540" style="fill:none;stroke:black;stroke-width:1px;"/>
        </g>
        <g transform="matrix(-1,0,0,-1,1920,719.024)">
            <path d="M1920,0C1920,0 1919.3,540 960,540" style="fill:none;stroke:black;stroke-width:1px;"/>
        </g>
        <g transform="matrix(-1,0,0,-1,1920,629.643)">
            <path d="M1920,0C1920,0 1919.3,540 960,540" style="fill:none;stroke:black;stroke-width:1px;"/>
        </g>
        <g transform="matrix(-1,0,0,-1,1920,540.263)">
            <path d="M1920,0C1920,0 1919.3,540 960,540" style="fill:none;stroke:black;stroke-width:1px;"/>
        </g>
        <g transform="matrix(-1,0,0,-1,1920,450.883)">
            <path d="M1920,0C1920,0 1919.3,540 960,540" style="fill:none;stroke:black;stroke-width:1px;"/>
        </g>
        <g transform="matrix(-1,0,0,-1,1920,361.503)">
            <path d="M1920,0C1920,0 1919.3,540 960,540" style="fill:none;stroke:black;stroke-width:1px;"/>
        </g>
        <g transform="matrix(-1,0,0,-1,1920,272.122)">
            <path d="M1920,0C1920,0 1919.3,540 960,540" style="fill:none;stroke:black;stroke-width:1px;"/>
        </g>
        <g transform="matrix(-1,0,0,-1,1920,182.742)">
            <path d="M1920,0C1920,0 1919.3,540 960,540" style="fill:none;stroke:black;stroke-width:1px;"/>
        </g>
    </g>
</svg>
